%TF.GenerationSoftware,Altium Limited,Altium Designer,25.8.1 (18)*%
G04 Layer_Color=0*
%FSLAX45Y45*%
%MOMM*%
%TF.SameCoordinates,7B3F40D8-49BE-4A82-B445-1243D3C56F15*%
%TF.FilePolarity,Positive*%
%TF.FileFunction,Plated,1,4,PTH,Drill*%
%TF.Part,Single*%
G01*
G75*
%TA.AperFunction,ComponentDrill*%
%ADD111C,0.50000*%
%ADD112C,0.99060*%
%ADD113O,1.20000X0.60000*%
%TA.AperFunction,ViaDrill,NotFilled*%
%ADD114C,0.25000*%
%ADD115C,0.20000*%
D111*
X17259300Y6561200D02*
D03*
X17259300Y6311200D02*
D03*
Y6436200D02*
D03*
X3053800Y8675100D02*
D03*
X17259300Y6186200D02*
D03*
Y9114600D02*
D03*
Y7061200D02*
D03*
Y6811200D02*
D03*
Y9864600D02*
D03*
Y9239600D02*
D03*
Y9614600D02*
D03*
X17259300Y9364600D02*
D03*
X17259300Y8989600D02*
D03*
Y8864600D02*
D03*
Y6936200D02*
D03*
Y6686200D02*
D03*
Y9489600D02*
D03*
Y9739600D02*
D03*
Y6061200D02*
D03*
X3053800Y8800100D02*
D03*
D112*
X13880016Y6583703D02*
D03*
X13379636D02*
D03*
D113*
X3576600Y8394675D02*
D03*
Y7530675D02*
D03*
X3196600Y8394675D02*
D03*
Y7530675D02*
D03*
D114*
X3683000Y8674100D02*
D03*
X16713200Y6565900D02*
D03*
Y6438900D02*
D03*
Y6311900D02*
D03*
X14566901Y5778500D02*
D03*
X10960100Y9372600D02*
D03*
X11036300Y9423400D02*
D03*
X9182100Y9105900D02*
D03*
X9169400Y9194800D02*
D03*
X13373100Y7188200D02*
D03*
Y7467600D02*
D03*
Y7696200D02*
D03*
X13500101Y9182100D02*
D03*
X8666808Y6578600D02*
D03*
X15836900Y8343900D02*
D03*
X9398000Y8115300D02*
D03*
X15951199Y6731000D02*
D03*
X15862300Y6553200D02*
D03*
X12915900Y9118600D02*
D03*
X11785600Y9309100D02*
D03*
X12255500Y6819900D02*
D03*
X10261600Y8458200D02*
D03*
X13614400Y7239000D02*
D03*
Y8077200D02*
D03*
X15671800Y8394700D02*
D03*
X10096500Y8280400D02*
D03*
X15430499Y8369300D02*
D03*
X12153900Y8382000D02*
D03*
X13830299Y7823200D02*
D03*
X13893800Y8089900D02*
D03*
X14566901Y6096000D02*
D03*
X14147800Y6146800D02*
D03*
X10845800Y6007100D02*
D03*
X14439900Y5880100D02*
D03*
X10439400Y6210300D02*
D03*
Y6337300D02*
D03*
X13398500Y9182100D02*
D03*
Y9055100D02*
D03*
X12915900Y9207500D02*
D03*
X11849100Y9372600D02*
D03*
X15748000Y8343900D02*
D03*
X10020300Y8229600D02*
D03*
X14719299Y9093200D02*
D03*
X12700000Y9271000D02*
D03*
X12496800Y8877300D02*
D03*
X11451500Y9677400D02*
D03*
X11493500Y9296400D02*
D03*
X12496800Y7543800D02*
D03*
X12471400Y8166100D02*
D03*
X9766300Y9804400D02*
D03*
X10782300Y9436100D02*
D03*
X9740900Y8572500D02*
D03*
X9461500Y8013700D02*
D03*
X15074899Y6946900D02*
D03*
X12306300Y6642100D02*
D03*
X14071600Y6578600D02*
D03*
X13195300Y6311900D02*
D03*
X12319000Y6299200D02*
D03*
X9448800Y7416800D02*
D03*
X9436100Y6883400D02*
D03*
X11315700Y6451600D02*
D03*
X9334500Y6591300D02*
D03*
X10591800Y6451600D02*
D03*
X10033000D02*
D03*
X9182100Y9461500D02*
D03*
X9144000Y8801100D02*
D03*
Y8648700D02*
D03*
X7315200Y8496300D02*
D03*
X4660900Y9740900D02*
D03*
X5778500Y8763000D02*
D03*
X4724400Y8712200D02*
D03*
X6642100Y7975600D02*
D03*
X8788400Y7607300D02*
D03*
X8724900Y7124700D02*
D03*
X7696200Y5969000D02*
D03*
X3759200Y8280400D02*
D03*
X4368800Y8077200D02*
D03*
X6007100Y7899400D02*
D03*
X4368800Y7861300D02*
D03*
X3759200Y7620000D02*
D03*
X4013200Y6375400D02*
D03*
X15506700Y8318500D02*
D03*
X10020300Y8432800D02*
D03*
X15354300Y8864600D02*
D03*
X13550900Y7759700D02*
D03*
X11912552Y9436012D02*
D03*
X15798801Y6896100D02*
D03*
X12915900Y9296400D02*
D03*
X15798801Y7023100D02*
D03*
X14986000Y6400800D02*
D03*
X14363699D02*
D03*
X13766800Y7759700D02*
D03*
X13792200Y8077200D02*
D03*
X15684500Y6692900D02*
D03*
X12509500Y9004300D02*
D03*
X12750800Y8242300D02*
D03*
X12471400Y8318500D02*
D03*
X15684500Y6972300D02*
D03*
X14909801Y6934200D02*
D03*
X12496800Y7721600D02*
D03*
X11912600Y6477000D02*
D03*
X11518900Y6273800D02*
D03*
X10795000D02*
D03*
X11290300D02*
D03*
X5448300Y8801100D02*
D03*
X6311900Y7366000D02*
D03*
X4686300Y7493000D02*
D03*
X5105400Y7188200D02*
D03*
Y6502400D02*
D03*
X14922501Y6311900D02*
D03*
X14287500Y6273800D02*
D03*
X11645900Y6197600D02*
D03*
X10858500D02*
D03*
X14376401Y6235700D02*
D03*
X14605000Y6223000D02*
D03*
X15582899Y8382000D02*
D03*
X10058400Y8356600D02*
D03*
X14033501Y6134100D02*
D03*
X14490700Y6019800D02*
D03*
X10020300Y8140700D02*
D03*
X15278101Y8940800D02*
D03*
X13487399Y7823200D02*
D03*
X13703300Y7696200D02*
D03*
Y8077200D02*
D03*
X12001500Y9474200D02*
D03*
X12915900Y9385300D02*
D03*
X14338300Y8991600D02*
D03*
Y9182100D02*
D03*
X14668500Y6159500D02*
D03*
X14262100Y6184900D02*
D03*
X16332201Y8267700D02*
D03*
X11049000Y9283700D02*
D03*
X15354300Y9677400D02*
D03*
X12433300Y9347200D02*
D03*
X16384425Y7834474D02*
D03*
X16459200Y7124700D02*
D03*
X12992101Y8661400D02*
D03*
X9512300Y6692900D02*
D03*
X9817100Y6896100D02*
D03*
X10553700Y9182100D02*
D03*
X16526700Y6811200D02*
D03*
X12992101Y8394700D02*
D03*
X9740900Y6692900D02*
D03*
Y6832600D02*
D03*
X9461500Y9652000D02*
D03*
X11798300Y10096500D02*
D03*
X10858500Y9791700D02*
D03*
X12433300Y9448800D02*
D03*
X16386426Y7959474D02*
D03*
X11645900Y6362700D02*
D03*
X9398000Y10096500D02*
D03*
Y9944100D02*
D03*
X10452100Y9867900D02*
D03*
Y9728200D02*
D03*
X15290800Y9740900D02*
D03*
X8483600Y7302500D02*
D03*
X10058400Y7835900D02*
D03*
X10496395Y9594695D02*
D03*
X11019700Y9677400D02*
D03*
X10528300D02*
D03*
X9613900Y9817100D02*
D03*
X11595100Y9969500D02*
D03*
X12255500Y6718300D02*
D03*
X10020300Y7645400D02*
D03*
X10642600Y9169400D02*
D03*
X16388426Y8084474D02*
D03*
X15201900Y9753600D02*
D03*
X9626600Y6692900D02*
D03*
Y6832600D02*
D03*
X8394700Y7302500D02*
D03*
X10058400Y7962900D02*
D03*
X10071100Y9867900D02*
D03*
Y9728200D02*
D03*
X11087100Y9169400D02*
D03*
X15417799Y9613900D02*
D03*
X11188700Y9156700D02*
D03*
X15481300Y9550400D02*
D03*
X16524699Y6936200D02*
D03*
X12992101Y8483600D02*
D03*
X16471899Y6629400D02*
D03*
X12992101Y8077200D02*
D03*
X10896600Y9169400D02*
D03*
X15113000Y9753600D02*
D03*
X16319501Y7645400D02*
D03*
X12903200Y8724900D02*
D03*
X9537700Y9740900D02*
D03*
X11696700Y10033000D02*
D03*
X8305800Y7302500D02*
D03*
Y7429500D02*
D03*
X5613400Y8623300D02*
D03*
Y8763000D02*
D03*
D115*
X5384800Y7072000D02*
D03*
X5384800Y7152000D02*
D03*
%TF.MD5,56fb9c0c7019bccf00da46d142235ef9*%
M02*
