%TF.GenerationSoftware,Altium Limited,Altium Designer,25.8.1 (18)*%
G04 Layer_Color=8421504*
%FSLAX45Y45*%
%MOMM*%
%TF.SameCoordinates,7B3F40D8-49BE-4A82-B445-1243D3C56F15*%
%TF.FilePolarity,Positive*%
%TF.FileFunction,Paste,Top*%
%TF.Part,Single*%
G01*
G75*
%TA.AperFunction,SMDPad,CuDef*%
G04:AMPARAMS|DCode=10|XSize=0.55mm|YSize=1.35mm|CornerRadius=0.275mm|HoleSize=0mm|Usage=FLASHONLY|Rotation=0.000|XOffset=0mm|YOffset=0mm|HoleType=Round|Shape=RoundedRectangle|*
%AMROUNDEDRECTD10*
21,1,0.55000,0.80000,0,0,0.0*
21,1,0.00000,1.35000,0,0,0.0*
1,1,0.55000,0.00000,-0.40000*
1,1,0.55000,0.00000,-0.40000*
1,1,0.55000,0.00000,0.40000*
1,1,0.55000,0.00000,0.40000*
%
%ADD10ROUNDEDRECTD10*%
%ADD11R,1.35000X0.35000*%
%ADD12R,0.35000X1.35000*%
%ADD13R,1.40000X1.50000*%
%ADD14R,1.50000X1.40000*%
%ADD15R,1.01213X1.15814*%
%ADD16R,1.15814X1.01213*%
%ADD17R,0.90000X0.80000*%
%ADD18R,1.70000X0.95000*%
%ADD19R,0.50000X0.50000*%
%ADD20R,1.35000X1.10000*%
%ADD21R,0.52000X0.56000*%
G04:AMPARAMS|DCode=23|XSize=0.86107mm|YSize=0.23928mm|CornerRadius=0.11964mm|HoleSize=0mm|Usage=FLASHONLY|Rotation=0.000|XOffset=0mm|YOffset=0mm|HoleType=Round|Shape=RoundedRectangle|*
%AMROUNDEDRECTD23*
21,1,0.86107,0.00000,0,0,0.0*
21,1,0.62178,0.23928,0,0,0.0*
1,1,0.23928,0.31089,0.00000*
1,1,0.23928,-0.31089,0.00000*
1,1,0.23928,-0.31089,0.00000*
1,1,0.23928,0.31089,0.00000*
%
%ADD23ROUNDEDRECTD23*%
%ADD24R,1.80000X1.00000*%
%ADD25R,0.85000X0.70000*%
%ADD26R,0.90000X0.85000*%
%ADD27R,0.60000X1.25000*%
G04:AMPARAMS|DCode=28|XSize=1.50524mm|YSize=0.45493mm|CornerRadius=0.22746mm|HoleSize=0mm|Usage=FLASHONLY|Rotation=270.000|XOffset=0mm|YOffset=0mm|HoleType=Round|Shape=RoundedRectangle|*
%AMROUNDEDRECTD28*
21,1,1.50524,0.00000,0,0,270.0*
21,1,1.05031,0.45493,0,0,270.0*
1,1,0.45493,0.00000,-0.52516*
1,1,0.45493,0.00000,0.52516*
1,1,0.45493,0.00000,0.52516*
1,1,0.45493,0.00000,-0.52516*
%
%ADD28ROUNDEDRECTD28*%
%ADD29R,1.35000X1.00000*%
%ADD30R,0.52000X0.52000*%
%ADD31R,0.65000X0.65000*%
%ADD32R,0.55000X0.55000*%
%ADD33R,1.05000X0.90000*%
G04:AMPARAMS|DCode=35|XSize=0.23928mm|YSize=0.86602mm|CornerRadius=0.11964mm|HoleSize=0mm|Usage=FLASHONLY|Rotation=0.000|XOffset=0mm|YOffset=0mm|HoleType=Round|Shape=RoundedRectangle|*
%AMROUNDEDRECTD35*
21,1,0.23928,0.62673,0,0,0.0*
21,1,0.00000,0.86602,0,0,0.0*
1,1,0.23928,0.00000,-0.31337*
1,1,0.23928,0.00000,-0.31337*
1,1,0.23928,0.00000,0.31337*
1,1,0.23928,0.00000,0.31337*
%
%ADD35ROUNDEDRECTD35*%
G04:AMPARAMS|DCode=37|XSize=0.86107mm|YSize=0.39247mm|CornerRadius=0.19624mm|HoleSize=0mm|Usage=FLASHONLY|Rotation=0.000|XOffset=0mm|YOffset=0mm|HoleType=Round|Shape=RoundedRectangle|*
%AMROUNDEDRECTD37*
21,1,0.86107,0.00000,0,0,0.0*
21,1,0.46860,0.39247,0,0,0.0*
1,1,0.39247,0.23430,0.00000*
1,1,0.39247,-0.23430,0.00000*
1,1,0.39247,-0.23430,0.00000*
1,1,0.39247,0.23430,0.00000*
%
%ADD37ROUNDEDRECTD37*%
G04:AMPARAMS|DCode=38|XSize=0.86602mm|YSize=0.23928mm|CornerRadius=0.11964mm|HoleSize=0mm|Usage=FLASHONLY|Rotation=0.000|XOffset=0mm|YOffset=0mm|HoleType=Round|Shape=RoundedRectangle|*
%AMROUNDEDRECTD38*
21,1,0.86602,0.00000,0,0,0.0*
21,1,0.62673,0.23928,0,0,0.0*
1,1,0.23928,0.31337,0.00000*
1,1,0.23928,-0.31337,0.00000*
1,1,0.23928,-0.31337,0.00000*
1,1,0.23928,0.31337,0.00000*
%
%ADD38ROUNDEDRECTD38*%
%ADD39R,1.20000X0.80000*%
%ADD40R,0.73504X0.86213*%
G04:AMPARAMS|DCode=41|XSize=0.25mm|YSize=0.5mm|CornerRadius=0.05mm|HoleSize=0mm|Usage=FLASHONLY|Rotation=270.000|XOffset=0mm|YOffset=0mm|HoleType=Round|Shape=RoundedRectangle|*
%AMROUNDEDRECTD41*
21,1,0.25000,0.40000,0,0,270.0*
21,1,0.15000,0.50000,0,0,270.0*
1,1,0.10000,-0.20000,-0.07500*
1,1,0.10000,-0.20000,0.07500*
1,1,0.10000,0.20000,0.07500*
1,1,0.10000,0.20000,-0.07500*
%
%ADD41ROUNDEDRECTD41*%
%ADD42R,1.13504X1.06213*%
%ADD44R,1.35000X0.95000*%
%ADD45R,0.95000X1.35000*%
%ADD46R,1.20000X1.20000*%
%ADD47R,1.00000X1.35000*%
%ADD48R,0.45000X0.45000*%
%ADD49R,0.45000X0.45000*%
%ADD50R,1.55620X1.45490*%
%ADD51R,0.45000X0.35000*%
%ADD52R,1.00000X0.55000*%
%ADD53R,1.55000X1.25000*%
%ADD54R,1.30000X0.80000*%
%ADD55R,2.60000X1.90000*%
%ADD56R,0.86107X0.39247*%
%ADD57R,1.20000X0.76000*%
%ADD58R,1.20000X0.70000*%
%ADD59R,1.00000X1.80000*%
%ADD60R,0.86602X0.23928*%
%ADD61R,1.45000X1.05000*%
%ADD62R,1.25000X2.70000*%
%ADD63R,0.55000X0.50000*%
%ADD64R,0.45493X1.50524*%
%ADD65R,3.00000X2.10000*%
%ADD66R,0.86107X0.23928*%
%TA.AperFunction,NonConductor*%
%ADD106R,1.06253X1.06253*%
%ADD107R,2.07240X2.97240*%
%ADD108R,0.85184X1.05184*%
%ADD109R,0.85400X1.46600*%
D10*
X14868539Y8543100D02*
D03*
X15828540Y7408100D02*
D03*
X14148540Y8543100D02*
D03*
X14548540Y7408100D02*
D03*
X15428540Y8543100D02*
D03*
X15668539D02*
D03*
X14468539D02*
D03*
X14308540Y7408100D02*
D03*
X15748540D02*
D03*
X15108540D02*
D03*
X14228540Y8543100D02*
D03*
X14948540D02*
D03*
X15028540Y7408100D02*
D03*
X14228540D02*
D03*
X15748540Y8543100D02*
D03*
X14788541D02*
D03*
X14308540D02*
D03*
X15588541Y7408100D02*
D03*
X14468539D02*
D03*
X15188541Y8543100D02*
D03*
X15508540D02*
D03*
X14148540Y7408100D02*
D03*
X14788541D02*
D03*
X15668539D02*
D03*
X15028540Y8543100D02*
D03*
X14948540Y7408100D02*
D03*
X14388541D02*
D03*
X15108540Y8543100D02*
D03*
X15828540D02*
D03*
X15188541Y7408100D02*
D03*
X15588541Y8543100D02*
D03*
X14868539Y7408100D02*
D03*
X14548540Y8543100D02*
D03*
X15428540Y7408100D02*
D03*
X14388541Y8543100D02*
D03*
X14628540Y7408100D02*
D03*
X14708540D02*
D03*
X15268539D02*
D03*
X15348540D02*
D03*
X15508540D02*
D03*
X14628540Y8543100D02*
D03*
X14708540D02*
D03*
X15268539D02*
D03*
X15348540D02*
D03*
D11*
X12029925Y7950600D02*
D03*
X9904925Y8150600D02*
D03*
X12029925Y7800600D02*
D03*
X9904925Y8800600D02*
D03*
Y8300600D02*
D03*
X12029925D02*
D03*
Y7450600D02*
D03*
X9904925Y8250600D02*
D03*
X12029925Y7850600D02*
D03*
Y8800600D02*
D03*
Y8150600D02*
D03*
Y7600600D02*
D03*
X9904925Y8600600D02*
D03*
Y8100600D02*
D03*
Y7350600D02*
D03*
Y8400600D02*
D03*
X12029925Y7700600D02*
D03*
Y7500600D02*
D03*
X9904925Y7300600D02*
D03*
Y7400600D02*
D03*
Y8050600D02*
D03*
X12029925Y8200600D02*
D03*
Y7650600D02*
D03*
Y8850600D02*
D03*
Y7900600D02*
D03*
X9904925Y8350600D02*
D03*
Y8200600D02*
D03*
X12029925Y7750600D02*
D03*
Y7550600D02*
D03*
X9904925Y7650600D02*
D03*
Y8850600D02*
D03*
Y8750600D02*
D03*
Y8700600D02*
D03*
Y8650600D02*
D03*
Y8550600D02*
D03*
Y8450600D02*
D03*
Y8000600D02*
D03*
Y7950600D02*
D03*
Y7900600D02*
D03*
Y7850600D02*
D03*
Y7800600D02*
D03*
Y7750600D02*
D03*
Y7700600D02*
D03*
Y7600600D02*
D03*
Y7550600D02*
D03*
Y7500600D02*
D03*
Y7450600D02*
D03*
Y7250600D02*
D03*
Y7200600D02*
D03*
Y7150600D02*
D03*
Y7100600D02*
D03*
X12029925D02*
D03*
Y7150600D02*
D03*
Y7200600D02*
D03*
Y7250600D02*
D03*
Y7300600D02*
D03*
Y7350600D02*
D03*
Y7400600D02*
D03*
Y8000600D02*
D03*
Y8050600D02*
D03*
Y8100600D02*
D03*
Y8250600D02*
D03*
Y8350600D02*
D03*
Y8400600D02*
D03*
Y8450600D02*
D03*
Y8500600D02*
D03*
Y8550600D02*
D03*
Y8600600D02*
D03*
Y8650600D02*
D03*
Y8700600D02*
D03*
Y8750600D02*
D03*
X9904925Y8500600D02*
D03*
D12*
X11592425Y9038100D02*
D03*
X10992425Y6913100D02*
D03*
X11242425D02*
D03*
X10742425D02*
D03*
X11542425Y9038100D02*
D03*
X11292425D02*
D03*
X10792425D02*
D03*
X10142425Y6913100D02*
D03*
X11292425D02*
D03*
X10792425D02*
D03*
X11042425D02*
D03*
X11392425Y9038100D02*
D03*
X10192425Y6913100D02*
D03*
X10092425Y9038100D02*
D03*
X10842425Y6913100D02*
D03*
X11342425D02*
D03*
X11842425D02*
D03*
X10742425Y9038100D02*
D03*
X11242425D02*
D03*
X10892425Y6913100D02*
D03*
X11142425D02*
D03*
X11392425D02*
D03*
X11092425D02*
D03*
X10942425D02*
D03*
X11342425Y9038100D02*
D03*
X11192425Y6913100D02*
D03*
X10092425D02*
D03*
X10242425D02*
D03*
X10292425D02*
D03*
X10342425D02*
D03*
X10392425D02*
D03*
X10442425D02*
D03*
X10492425D02*
D03*
X10542425D02*
D03*
X10592425D02*
D03*
X10642425D02*
D03*
X10692425D02*
D03*
X11442425D02*
D03*
X11492425D02*
D03*
X11542425D02*
D03*
X11592425D02*
D03*
X11642425D02*
D03*
X11692425D02*
D03*
X11742425D02*
D03*
X11792425D02*
D03*
X11842425Y9038100D02*
D03*
X11792425D02*
D03*
X11742425D02*
D03*
X11692425D02*
D03*
X11642425D02*
D03*
X11492425D02*
D03*
X11442425D02*
D03*
X11192425D02*
D03*
X11142425D02*
D03*
X11092425D02*
D03*
X11042425D02*
D03*
X10992425D02*
D03*
X10942425D02*
D03*
X10892425D02*
D03*
X10842425D02*
D03*
X10692425D02*
D03*
X10642425D02*
D03*
X10592425D02*
D03*
X10542425D02*
D03*
X10492425D02*
D03*
X10442425D02*
D03*
X10392425D02*
D03*
X10342425D02*
D03*
X10292425D02*
D03*
X10242425D02*
D03*
X10192425D02*
D03*
X10142425D02*
D03*
D13*
X14893539Y9093200D02*
D03*
X9760200Y9601200D02*
D03*
X12115300Y6299200D02*
D03*
X15083540Y9093200D02*
D03*
X9950200Y9601200D02*
D03*
X11925300Y6299200D02*
D03*
D14*
X12700000Y9073900D02*
D03*
X8991600Y9461500D02*
D03*
X9131300Y6597400D02*
D03*
X8991600Y9271500D02*
D03*
X9131300Y6407400D02*
D03*
X12700000Y8883900D02*
D03*
D15*
X12306300Y8877300D02*
D03*
Y7550001D02*
D03*
Y8159601D02*
D03*
X9613900Y7988599D02*
D03*
X9620250Y7416561D02*
D03*
X8724900Y9455400D02*
D03*
X9194800Y7626500D02*
D03*
X8826500Y6572399D02*
D03*
X12306300Y9042699D02*
D03*
Y8324999D02*
D03*
Y7715399D02*
D03*
X8724900Y9290001D02*
D03*
X9613900Y7823200D02*
D03*
X9620250Y7581959D02*
D03*
X9194800Y7461101D02*
D03*
X8826500Y6407001D02*
D03*
D16*
X14912041Y8826500D02*
D03*
X11347599Y9309100D02*
D03*
X10852299D02*
D03*
X9785200Y9347200D02*
D03*
X15068700Y7124700D02*
D03*
X12084199Y6642100D02*
D03*
X11321901D02*
D03*
X10039201D02*
D03*
X10598001D02*
D03*
X11182201Y9309100D02*
D03*
X10686901D02*
D03*
X14903300Y7124700D02*
D03*
X11918801Y6642100D02*
D03*
X11487299D02*
D03*
X10763399D02*
D03*
X9950599Y9347200D02*
D03*
X10204600Y6642100D02*
D03*
X15077440Y8826500D02*
D03*
D17*
X11311800Y9677400D02*
D03*
X11141800D02*
D03*
D18*
X13030200Y6311600D02*
D03*
Y6591600D02*
D03*
D19*
X9652000Y7048500D02*
D03*
Y7148500D02*
D03*
D20*
X9436100Y7016600D02*
D03*
X8940800Y7601100D02*
D03*
X8890000Y7118500D02*
D03*
X8940800Y7461100D02*
D03*
X8890000Y6978500D02*
D03*
X9436100Y7156600D02*
D03*
D21*
X9232900Y8800200D02*
D03*
Y8649600D02*
D03*
Y8571600D02*
D03*
Y8878200D02*
D03*
D23*
X8214047Y9050200D02*
D03*
X8499153Y9200200D02*
D03*
Y9100200D02*
D03*
X8499153Y9050200D02*
D03*
X8499153Y9150200D02*
D03*
X8214047Y9100200D02*
D03*
Y9150200D02*
D03*
D24*
X7113374Y8495900D02*
D03*
X6008475Y8043499D02*
D03*
Y8343500D02*
D03*
X7113374Y8195900D02*
D03*
D25*
X6402174Y8736200D02*
D03*
X6402174Y8611199D02*
D03*
D26*
X6553200Y8739100D02*
D03*
X6553199Y8609100D02*
D03*
D27*
X4663500Y9585677D02*
D03*
X4483500D02*
D03*
D28*
X4725900Y8898503D02*
D03*
X4660900D02*
D03*
X4595900Y9118600D02*
D03*
X4530900D02*
D03*
X4530900Y8898504D02*
D03*
X4595900Y8898503D02*
D03*
X4660900Y9118600D02*
D03*
D29*
X5970049Y8763700D02*
D03*
X6389474Y7656599D02*
D03*
X6173574Y7655500D02*
D03*
X5970049Y8583700D02*
D03*
X6173574Y7835500D02*
D03*
X6389474Y7836600D02*
D03*
D30*
X4573500Y9382477D02*
D03*
X4493500Y9382477D02*
D03*
X4734800Y9382477D02*
D03*
X4814800Y9382478D02*
D03*
D31*
X6261749Y8723700D02*
D03*
Y8623700D02*
D03*
D32*
X6135474Y8718700D02*
D03*
Y8628700D02*
D03*
D33*
X6846674Y8470500D02*
D03*
Y8335500D02*
D03*
D35*
X6526600Y8112694D02*
D03*
X6526600Y8397305D02*
D03*
X6426600Y8397305D02*
D03*
X6376600Y8112694D02*
D03*
X6376600Y8397305D02*
D03*
X6476600Y8112694D02*
D03*
Y8397305D02*
D03*
X6426600Y8112694D02*
D03*
D37*
X7832793Y5969000D02*
D03*
X8597900Y6350000D02*
D03*
Y6223000D02*
D03*
Y5969000D02*
D03*
X7832793Y6223000D02*
D03*
X8597900Y6096000D02*
D03*
X7832794D02*
D03*
D38*
X6309294Y8180000D02*
D03*
Y8280000D02*
D03*
Y8230000D02*
D03*
X6593906D02*
D03*
Y8280000D02*
D03*
Y8329999D02*
D03*
Y8180000D02*
D03*
D39*
X3576600Y8237675D02*
D03*
Y7687675D02*
D03*
D40*
X4225179Y8076726D02*
D03*
X4227139Y7861300D02*
D03*
X4102100Y8076726D02*
D03*
X4104061Y7861300D02*
D03*
D41*
X5479800Y7187000D02*
D03*
X5479800Y7037000D02*
D03*
X5289799Y7137000D02*
D03*
X5289800Y7087000D02*
D03*
X5479800D02*
D03*
X5479800Y7137000D02*
D03*
X5289800Y7037000D02*
D03*
X5289799Y7187000D02*
D03*
D42*
X5377440Y7493000D02*
D03*
X5214361Y7493000D02*
D03*
D44*
X5892800Y6935400D02*
D03*
Y7085400D02*
D03*
D45*
X5383600Y6515100D02*
D03*
X5233600D02*
D03*
D46*
X4009800D02*
D03*
X4219800D02*
D03*
X6719674Y7645000D02*
D03*
X6723075Y7848199D02*
D03*
X6933074D02*
D03*
X6929675Y7645000D02*
D03*
D47*
X15505600Y7124700D02*
D03*
X15685600D02*
D03*
X4763600Y6515100D02*
D03*
X4583600D02*
D03*
D48*
X12649200Y8318500D02*
D03*
Y8155300D02*
D03*
Y8398500D02*
D03*
Y8075300D02*
D03*
D49*
X10793100Y9677400D02*
D03*
X10695300D02*
D03*
X10214600D02*
D03*
X10312400D02*
D03*
X10873100D02*
D03*
X10392400D02*
D03*
X10615300D02*
D03*
X10134600D02*
D03*
D50*
X9169400Y6968635D02*
D03*
Y7153765D02*
D03*
D51*
X4780800Y7493000D02*
D03*
X4845800D02*
D03*
D52*
X4508500Y6947900D02*
D03*
X4508500Y7072900D02*
D03*
D53*
X4927600Y6780900D02*
D03*
Y6985900D02*
D03*
D54*
X16967200Y7834474D02*
D03*
Y8209474D02*
D03*
Y7959474D02*
D03*
Y8084474D02*
D03*
Y7709474D02*
D03*
D55*
X8851900Y8509900D02*
D03*
Y8939900D02*
D03*
D56*
X7832794Y6350000D02*
D03*
D57*
X3576600Y8114675D02*
D03*
Y7810675D02*
D03*
D58*
Y8012675D02*
D03*
Y7912675D02*
D03*
D59*
X4305600Y8305800D02*
D03*
X4025600D02*
D03*
D60*
X6309294Y8330000D02*
D03*
D61*
X5233900Y8959777D02*
D03*
X4979900Y8959778D02*
D03*
X4979900Y9144777D02*
D03*
X5233900Y9144776D02*
D03*
D62*
X5249400Y8696677D02*
D03*
X4964400Y8696676D02*
D03*
D63*
X7157075Y7644999D02*
D03*
Y7848199D02*
D03*
X7082074Y7644999D02*
D03*
Y7848199D02*
D03*
D64*
X4725901Y9118600D02*
D03*
D65*
X17242200Y8464474D02*
D03*
Y7454474D02*
D03*
D66*
X8214047Y9200200D02*
D03*
D106*
X6451600Y8255000D02*
D03*
D107*
X8215347Y6159500D02*
D03*
D108*
X8356600Y9125200D02*
D03*
D109*
X5384803Y7112002D02*
D03*
%TF.MD5,7b143b44f582de80c3d3b0edf904064b*%
M02*
