%TF.GenerationSoftware,Altium Limited,Altium Designer,25.8.1 (18)*%
G04 Layer_Physical_Order=3*
G04 Layer_Color=16440176*
%FSLAX45Y45*%
%MOMM*%
%TF.SameCoordinates,7B3F40D8-49BE-4A82-B445-1243D3C56F15*%
%TF.FilePolarity,Positive*%
%TF.FileFunction,Copper,L3,Inr,Signal*%
%TF.Part,Single*%
G01*
G75*
%TA.AperFunction,ComponentPad*%
%ADD69C,1.00000*%
%ADD70C,1.54060*%
%ADD71R,1.54060X1.54060*%
%ADD72R,1.00000X1.00000*%
G04:AMPARAMS|DCode=73|XSize=1.1mm|YSize=1.7mm|CornerRadius=0.55mm|HoleSize=0mm|Usage=FLASHONLY|Rotation=270.000|XOffset=0mm|YOffset=0mm|HoleType=Round|Shape=RoundedRectangle|*
%AMROUNDEDRECTD73*
21,1,1.10000,0.60000,0,0,270.0*
21,1,0.00000,1.70000,0,0,270.0*
1,1,1.10000,-0.30000,0.00000*
1,1,1.10000,-0.30000,0.00000*
1,1,1.10000,0.30000,0.00000*
1,1,1.10000,0.30000,0.00000*
%
%ADD73ROUNDEDRECTD73*%
%TA.AperFunction,ViaPad*%
%ADD74C,0.60000*%
%ADD75C,0.50000*%
G36*
X17399001Y5702300D02*
X2933700D01*
Y10198100D01*
X17399001D01*
Y5702300D01*
D02*
G37*
%LPC*%
G36*
X11804368Y10127008D02*
X11792232D01*
X11781019Y10122363D01*
X11772437Y10113781D01*
X11767792Y10102568D01*
Y10090432D01*
X11772437Y10079219D01*
X11781019Y10070637D01*
X11792232Y10065992D01*
X11804368D01*
X11815581Y10070637D01*
X11824163Y10079219D01*
X11828808Y10090432D01*
Y10102568D01*
X11824163Y10113781D01*
X11815581Y10122363D01*
X11804368Y10127008D01*
D02*
G37*
G36*
X9404068D02*
X9391932D01*
X9380719Y10122363D01*
X9372137Y10113781D01*
X9367492Y10102568D01*
Y10090432D01*
X9372137Y10079219D01*
X9380719Y10070637D01*
X9391932Y10065992D01*
X9404068D01*
X9415281Y10070637D01*
X9423863Y10079219D01*
X9428508Y10090432D01*
Y10102568D01*
X9423863Y10113781D01*
X9415281Y10122363D01*
X9404068Y10127008D01*
D02*
G37*
G36*
X11702768Y10063508D02*
X11690632D01*
X11679419Y10058863D01*
X11670837Y10050281D01*
X11666192Y10039068D01*
Y10026932D01*
X11670837Y10015719D01*
X11679419Y10007137D01*
X11690632Y10002492D01*
X11702768D01*
X11713981Y10007137D01*
X11722563Y10015719D01*
X11727208Y10026932D01*
Y10039068D01*
X11722563Y10050281D01*
X11713981Y10058863D01*
X11702768Y10063508D01*
D02*
G37*
G36*
X11601168Y10000008D02*
X11589032D01*
X11577819Y9995363D01*
X11569237Y9986781D01*
X11564592Y9975568D01*
Y9963432D01*
X11569237Y9952219D01*
X11577819Y9943637D01*
X11589032Y9938992D01*
X11601168D01*
X11612381Y9943637D01*
X11620963Y9952219D01*
X11625608Y9963432D01*
Y9975568D01*
X11620963Y9986781D01*
X11612381Y9995363D01*
X11601168Y10000008D01*
D02*
G37*
G36*
X9404068Y9974608D02*
X9391932D01*
X9380719Y9969963D01*
X9372137Y9961381D01*
X9367492Y9950168D01*
Y9938032D01*
X9372137Y9926819D01*
X9380719Y9918237D01*
X9391932Y9913592D01*
X9404068D01*
X9415281Y9918237D01*
X9423863Y9926819D01*
X9428508Y9938032D01*
Y9950168D01*
X9423863Y9961381D01*
X9415281Y9969963D01*
X9404068Y9974608D01*
D02*
G37*
G36*
X10458168Y9898408D02*
X10446032D01*
X10434819Y9893763D01*
X10426237Y9885181D01*
X10421592Y9873968D01*
Y9861832D01*
X10426237Y9850619D01*
X10434819Y9842037D01*
X10446032Y9837392D01*
X10458168D01*
X10469381Y9842037D01*
X10477963Y9850619D01*
X10482608Y9861832D01*
Y9873968D01*
X10477963Y9885181D01*
X10469381Y9893763D01*
X10458168Y9898408D01*
D02*
G37*
G36*
X10077168D02*
X10065032D01*
X10053819Y9893763D01*
X10045237Y9885181D01*
X10040592Y9873968D01*
Y9861832D01*
X10045237Y9850619D01*
X10053819Y9842037D01*
X10065032Y9837392D01*
X10077168D01*
X10088381Y9842037D01*
X10096963Y9850619D01*
X10101608Y9861832D01*
Y9873968D01*
X10096963Y9885181D01*
X10088381Y9893763D01*
X10077168Y9898408D01*
D02*
G37*
G36*
X9619968Y9847608D02*
X9607832D01*
X9596619Y9842963D01*
X9588037Y9834381D01*
X9583392Y9823168D01*
Y9811032D01*
X9588037Y9799819D01*
X9596619Y9791237D01*
X9607832Y9786592D01*
X9619968D01*
X9631181Y9791237D01*
X9639763Y9799819D01*
X9644408Y9811032D01*
Y9823168D01*
X9639763Y9834381D01*
X9631181Y9842963D01*
X9619968Y9847608D01*
D02*
G37*
G36*
X10864568Y9822208D02*
X10852432D01*
X10841219Y9817563D01*
X10832637Y9808981D01*
X10827992Y9797768D01*
Y9785632D01*
X10832637Y9774419D01*
X10841219Y9765837D01*
X10852432Y9761192D01*
X10864568D01*
X10875781Y9765837D01*
X10884363Y9774419D01*
X10889008Y9785632D01*
Y9797768D01*
X10884363Y9808981D01*
X10875781Y9817563D01*
X10864568Y9822208D01*
D02*
G37*
G36*
X15207968Y9784108D02*
X15195831D01*
X15184619Y9779463D01*
X15176038Y9770881D01*
X15171391Y9759668D01*
Y9747532D01*
X15176038Y9736319D01*
X15184619Y9727737D01*
X15195831Y9723092D01*
X15207968D01*
X15219180Y9727737D01*
X15227763Y9736319D01*
X15232408Y9747532D01*
Y9759668D01*
X15227763Y9770881D01*
X15219180Y9779463D01*
X15207968Y9784108D01*
D02*
G37*
G36*
X15119067D02*
X15106932D01*
X15095718Y9779463D01*
X15087137Y9770881D01*
X15082492Y9759668D01*
Y9747532D01*
X15087137Y9736319D01*
X15095718Y9727737D01*
X15106932Y9723092D01*
X15119067D01*
X15130281Y9727737D01*
X15138863Y9736319D01*
X15143507Y9747532D01*
Y9759668D01*
X15138863Y9770881D01*
X15130281Y9779463D01*
X15119067Y9784108D01*
D02*
G37*
G36*
X15296867Y9771408D02*
X15284732D01*
X15273518Y9766763D01*
X15264937Y9758181D01*
X15260292Y9746968D01*
Y9734832D01*
X15264937Y9723619D01*
X15273518Y9715037D01*
X15284732Y9710392D01*
X15296867D01*
X15308081Y9715037D01*
X15316663Y9723619D01*
X15321307Y9734832D01*
Y9746968D01*
X15316663Y9758181D01*
X15308081Y9766763D01*
X15296867Y9771408D01*
D02*
G37*
G36*
X9543768D02*
X9531632D01*
X9520419Y9766763D01*
X9511837Y9758181D01*
X9507192Y9746968D01*
Y9734832D01*
X9511837Y9723619D01*
X9520419Y9715037D01*
X9531632Y9710392D01*
X9543768D01*
X9554981Y9715037D01*
X9563563Y9723619D01*
X9568208Y9734832D01*
Y9746968D01*
X9563563Y9758181D01*
X9554981Y9766763D01*
X9543768Y9771408D01*
D02*
G37*
G36*
X10458168Y9758708D02*
X10446032D01*
X10434819Y9754063D01*
X10426237Y9745481D01*
X10421592Y9734268D01*
Y9722132D01*
X10426237Y9710919D01*
X10434819Y9702337D01*
X10446032Y9697692D01*
X10458168D01*
X10469381Y9702337D01*
X10477963Y9710919D01*
X10482608Y9722132D01*
Y9734268D01*
X10477963Y9745481D01*
X10469381Y9754063D01*
X10458168Y9758708D01*
D02*
G37*
G36*
X10077168D02*
X10065032D01*
X10053819Y9754063D01*
X10045237Y9745481D01*
X10040592Y9734268D01*
Y9722132D01*
X10045237Y9710919D01*
X10053819Y9702337D01*
X10065032Y9697692D01*
X10077168D01*
X10088381Y9702337D01*
X10096963Y9710919D01*
X10101608Y9722132D01*
Y9734268D01*
X10096963Y9745481D01*
X10088381Y9754063D01*
X10077168Y9758708D01*
D02*
G37*
G36*
X15360368Y9707908D02*
X15348232D01*
X15337019Y9703263D01*
X15328436Y9694681D01*
X15323792Y9683468D01*
Y9671332D01*
X15328436Y9660119D01*
X15337019Y9651537D01*
X15348232Y9646892D01*
X15360368D01*
X15371581Y9651537D01*
X15380164Y9660119D01*
X15384808Y9671332D01*
Y9683468D01*
X15380164Y9694681D01*
X15371581Y9703263D01*
X15360368Y9707908D01*
D02*
G37*
G36*
X11025768D02*
X11013631D01*
X11002418Y9703263D01*
X10993836Y9694681D01*
X10989192Y9683468D01*
Y9671332D01*
X10993836Y9660119D01*
X11002418Y9651537D01*
X11013631Y9646892D01*
X11025768D01*
X11036981Y9651537D01*
X11045563Y9660119D01*
X11050208Y9671332D01*
Y9683468D01*
X11045563Y9694681D01*
X11036981Y9703263D01*
X11025768Y9707908D01*
D02*
G37*
G36*
X10534368D02*
X10522232D01*
X10511019Y9703263D01*
X10502437Y9694681D01*
X10497792Y9683468D01*
Y9671332D01*
X10502437Y9660119D01*
X10511019Y9651537D01*
X10522232Y9646892D01*
X10534368D01*
X10545581Y9651537D01*
X10554163Y9660119D01*
X10558808Y9671332D01*
Y9683468D01*
X10554163Y9694681D01*
X10545581Y9703263D01*
X10534368Y9707908D01*
D02*
G37*
G36*
X9467568Y9682508D02*
X9455432D01*
X9444219Y9677863D01*
X9435637Y9669281D01*
X9430992Y9658068D01*
Y9645932D01*
X9435637Y9634719D01*
X9444219Y9626137D01*
X9455432Y9621492D01*
X9467568D01*
X9478781Y9626137D01*
X9487363Y9634719D01*
X9492008Y9645932D01*
Y9658068D01*
X9487363Y9669281D01*
X9478781Y9677863D01*
X9467568Y9682508D01*
D02*
G37*
G36*
X15423868Y9644408D02*
X15411732D01*
X15400519Y9639763D01*
X15391937Y9631181D01*
X15387292Y9619968D01*
Y9607832D01*
X15391937Y9596619D01*
X15400519Y9588037D01*
X15411732Y9583392D01*
X15423868D01*
X15435081Y9588037D01*
X15443663Y9596619D01*
X15448308Y9607832D01*
Y9619968D01*
X15443663Y9631181D01*
X15435081Y9639763D01*
X15423868Y9644408D01*
D02*
G37*
G36*
X10502463Y9625202D02*
X10490326D01*
X10479113Y9620558D01*
X10470531Y9611976D01*
X10465887Y9600763D01*
Y9588626D01*
X10470531Y9577413D01*
X10479113Y9568831D01*
X10490326Y9564187D01*
X10502463D01*
X10513676Y9568831D01*
X10522258Y9577413D01*
X10526902Y9588626D01*
Y9600763D01*
X10522258Y9611976D01*
X10513676Y9620558D01*
X10502463Y9625202D01*
D02*
G37*
G36*
X15487367Y9580908D02*
X15475232D01*
X15464018Y9576263D01*
X15455437Y9567681D01*
X15450792Y9556468D01*
Y9544332D01*
X15455437Y9533119D01*
X15464018Y9524537D01*
X15475232Y9519892D01*
X15487367D01*
X15498581Y9524537D01*
X15507162Y9533119D01*
X15511807Y9544332D01*
Y9556468D01*
X15507162Y9567681D01*
X15498581Y9576263D01*
X15487367Y9580908D01*
D02*
G37*
G36*
X12007568Y9504708D02*
X11995432D01*
X11984219Y9500063D01*
X11975637Y9491481D01*
X11970992Y9480268D01*
Y9468132D01*
X11975637Y9456919D01*
X11984219Y9448337D01*
X11995432Y9443692D01*
X12007568D01*
X12018781Y9448337D01*
X12027363Y9456919D01*
X12032008Y9468132D01*
Y9480268D01*
X12027363Y9491481D01*
X12018781Y9500063D01*
X12007568Y9504708D01*
D02*
G37*
G36*
X12439368Y9479308D02*
X12427232D01*
X12416019Y9474663D01*
X12407437Y9466081D01*
X12402792Y9454868D01*
Y9442732D01*
X12407437Y9431519D01*
X12416019Y9422937D01*
X12427232Y9418292D01*
X12439368D01*
X12450581Y9422937D01*
X12459163Y9431519D01*
X12463808Y9442732D01*
Y9454868D01*
X12459163Y9466081D01*
X12450581Y9474663D01*
X12439368Y9479308D01*
D02*
G37*
G36*
X11918620Y9466520D02*
X11906484D01*
X11895271Y9461875D01*
X11886689Y9453293D01*
X11882044Y9442080D01*
Y9429944D01*
X11886689Y9418730D01*
X11895271Y9410149D01*
X11906484Y9405504D01*
X11918620D01*
X11929833Y9410149D01*
X11938415Y9418730D01*
X11943060Y9429944D01*
Y9442080D01*
X11938415Y9453293D01*
X11929833Y9461875D01*
X11918620Y9466520D01*
D02*
G37*
G36*
X11042368Y9453908D02*
X11030232D01*
X11019019Y9449263D01*
X11010437Y9440681D01*
X11005792Y9429468D01*
Y9417332D01*
X11010437Y9406119D01*
X11019019Y9397537D01*
X11030232Y9392892D01*
X11042368D01*
X11053581Y9397537D01*
X11062163Y9406119D01*
X11066808Y9417332D01*
Y9429468D01*
X11062163Y9440681D01*
X11053581Y9449263D01*
X11042368Y9453908D01*
D02*
G37*
G36*
X12921968Y9415808D02*
X12909831D01*
X12898619Y9411163D01*
X12890038Y9402581D01*
X12885393Y9391368D01*
Y9379232D01*
X12890038Y9368019D01*
X12898619Y9359437D01*
X12909831Y9354792D01*
X12921968D01*
X12933182Y9359437D01*
X12941763Y9368019D01*
X12946408Y9379232D01*
Y9391368D01*
X12941763Y9402581D01*
X12933182Y9411163D01*
X12921968Y9415808D01*
D02*
G37*
G36*
X11855168Y9403108D02*
X11843032D01*
X11831819Y9398463D01*
X11823237Y9389881D01*
X11818592Y9378668D01*
Y9366532D01*
X11823237Y9355319D01*
X11831819Y9346737D01*
X11843032Y9342092D01*
X11855168D01*
X11866381Y9346737D01*
X11874963Y9355319D01*
X11879608Y9366532D01*
Y9378668D01*
X11874963Y9389881D01*
X11866381Y9398463D01*
X11855168Y9403108D01*
D02*
G37*
G36*
X10966168D02*
X10954032D01*
X10942819Y9398463D01*
X10934237Y9389881D01*
X10929592Y9378668D01*
Y9366532D01*
X10934237Y9355319D01*
X10942819Y9346737D01*
X10954032Y9342092D01*
X10966168D01*
X10977381Y9346737D01*
X10985963Y9355319D01*
X10990608Y9366532D01*
Y9378668D01*
X10985963Y9389881D01*
X10977381Y9398463D01*
X10966168Y9403108D01*
D02*
G37*
G36*
X12439368Y9377708D02*
X12427232D01*
X12416019Y9373063D01*
X12407437Y9364481D01*
X12402792Y9353268D01*
Y9341132D01*
X12407437Y9329919D01*
X12416019Y9321337D01*
X12427232Y9316692D01*
X12439368D01*
X12450581Y9321337D01*
X12459163Y9329919D01*
X12463808Y9341132D01*
Y9353268D01*
X12459163Y9364481D01*
X12450581Y9373063D01*
X12439368Y9377708D01*
D02*
G37*
G36*
X11791668Y9339608D02*
X11779532D01*
X11768319Y9334963D01*
X11759737Y9326381D01*
X11755092Y9315168D01*
Y9303032D01*
X11759737Y9291819D01*
X11768319Y9283237D01*
X11779532Y9278592D01*
X11791668D01*
X11802881Y9283237D01*
X11811463Y9291819D01*
X11816108Y9303032D01*
Y9315168D01*
X11811463Y9326381D01*
X11802881Y9334963D01*
X11791668Y9339608D01*
D02*
G37*
G36*
X12921968Y9326908D02*
X12909831D01*
X12898619Y9322263D01*
X12890038Y9313681D01*
X12885393Y9302468D01*
Y9290332D01*
X12890038Y9279119D01*
X12898619Y9270537D01*
X12909831Y9265892D01*
X12921968D01*
X12933182Y9270537D01*
X12941763Y9279119D01*
X12946408Y9290332D01*
Y9302468D01*
X12941763Y9313681D01*
X12933182Y9322263D01*
X12921968Y9326908D01*
D02*
G37*
G36*
X11055068Y9314208D02*
X11042932D01*
X11031719Y9309563D01*
X11023137Y9300981D01*
X11018492Y9289768D01*
Y9277632D01*
X11023137Y9266419D01*
X11031719Y9257837D01*
X11042932Y9253192D01*
X11055068D01*
X11066281Y9257837D01*
X11074863Y9266419D01*
X11079508Y9277632D01*
Y9289768D01*
X11074863Y9300981D01*
X11066281Y9309563D01*
X11055068Y9314208D01*
D02*
G37*
G36*
X12921968Y9238008D02*
X12909831D01*
X12898619Y9233363D01*
X12890038Y9224781D01*
X12885393Y9213568D01*
Y9201432D01*
X12890038Y9190219D01*
X12898619Y9181637D01*
X12909831Y9176992D01*
X12921968D01*
X12933182Y9181637D01*
X12941763Y9190219D01*
X12946408Y9201432D01*
Y9213568D01*
X12941763Y9224781D01*
X12933182Y9233363D01*
X12921968Y9238008D01*
D02*
G37*
G36*
X9175468Y9225308D02*
X9163332D01*
X9152119Y9220663D01*
X9143537Y9212081D01*
X9138892Y9200868D01*
Y9188732D01*
X9143537Y9177519D01*
X9152119Y9168937D01*
X9163332Y9164292D01*
X9175468D01*
X9186681Y9168937D01*
X9195263Y9177519D01*
X9199908Y9188732D01*
Y9200868D01*
X9195263Y9212081D01*
X9186681Y9220663D01*
X9175468Y9225308D01*
D02*
G37*
G36*
X14344368Y9212608D02*
X14332233D01*
X14321019Y9207963D01*
X14312437Y9199381D01*
X14307793Y9188168D01*
Y9176032D01*
X14312437Y9164819D01*
X14321019Y9156237D01*
X14332233Y9151592D01*
X14344368D01*
X14355582Y9156237D01*
X14364163Y9164819D01*
X14368808Y9176032D01*
Y9188168D01*
X14364163Y9199381D01*
X14355582Y9207963D01*
X14344368Y9212608D01*
D02*
G37*
G36*
X13506168D02*
X13494032D01*
X13482819Y9207963D01*
X13474237Y9199381D01*
X13469592Y9188168D01*
Y9176032D01*
X13474237Y9164819D01*
X13482819Y9156237D01*
X13494032Y9151592D01*
X13506168D01*
X13517381Y9156237D01*
X13525963Y9164819D01*
X13530608Y9176032D01*
Y9188168D01*
X13525963Y9199381D01*
X13517381Y9207963D01*
X13506168Y9212608D01*
D02*
G37*
G36*
X13404568D02*
X13392432D01*
X13381219Y9207963D01*
X13372636Y9199381D01*
X13367992Y9188168D01*
Y9176032D01*
X13372636Y9164819D01*
X13381219Y9156237D01*
X13392432Y9151592D01*
X13404568D01*
X13415781Y9156237D01*
X13424364Y9164819D01*
X13429008Y9176032D01*
Y9188168D01*
X13424364Y9199381D01*
X13415781Y9207963D01*
X13404568Y9212608D01*
D02*
G37*
G36*
X10559768D02*
X10547632D01*
X10536419Y9207963D01*
X10527837Y9199381D01*
X10523192Y9188168D01*
Y9176032D01*
X10527837Y9164819D01*
X10536419Y9156237D01*
X10547632Y9151592D01*
X10559768D01*
X10570981Y9156237D01*
X10579563Y9164819D01*
X10584208Y9176032D01*
Y9188168D01*
X10579563Y9199381D01*
X10570981Y9207963D01*
X10559768Y9212608D01*
D02*
G37*
G36*
X11093168Y9199908D02*
X11081032D01*
X11069819Y9195263D01*
X11061237Y9186681D01*
X11056592Y9175468D01*
Y9163332D01*
X11061237Y9152119D01*
X11069819Y9143537D01*
X11081032Y9138892D01*
X11093168D01*
X11104381Y9143537D01*
X11112963Y9152119D01*
X11117608Y9163332D01*
Y9175468D01*
X11112963Y9186681D01*
X11104381Y9195263D01*
X11093168Y9199908D01*
D02*
G37*
G36*
X10902668D02*
X10890532D01*
X10879319Y9195263D01*
X10870737Y9186681D01*
X10866092Y9175468D01*
Y9163332D01*
X10870737Y9152119D01*
X10879319Y9143537D01*
X10890532Y9138892D01*
X10902668D01*
X10913881Y9143537D01*
X10922463Y9152119D01*
X10927108Y9163332D01*
Y9175468D01*
X10922463Y9186681D01*
X10913881Y9195263D01*
X10902668Y9199908D01*
D02*
G37*
G36*
X10648668D02*
X10636532D01*
X10625319Y9195263D01*
X10616737Y9186681D01*
X10612092Y9175468D01*
Y9163332D01*
X10616737Y9152119D01*
X10625319Y9143537D01*
X10636532Y9138892D01*
X10648668D01*
X10659881Y9143537D01*
X10668463Y9152119D01*
X10673108Y9163332D01*
Y9175468D01*
X10668463Y9186681D01*
X10659881Y9195263D01*
X10648668Y9199908D01*
D02*
G37*
G36*
X11194768Y9187208D02*
X11182632D01*
X11171419Y9182563D01*
X11162837Y9173981D01*
X11158192Y9162768D01*
Y9150632D01*
X11162837Y9139419D01*
X11171419Y9130837D01*
X11182632Y9126192D01*
X11194768D01*
X11205981Y9130837D01*
X11214563Y9139419D01*
X11219208Y9150632D01*
Y9162768D01*
X11214563Y9173981D01*
X11205981Y9182563D01*
X11194768Y9187208D01*
D02*
G37*
G36*
X12921968Y9149108D02*
X12909831D01*
X12898619Y9144463D01*
X12890038Y9135881D01*
X12885393Y9124668D01*
Y9112532D01*
X12890038Y9101319D01*
X12898619Y9092737D01*
X12909831Y9088092D01*
X12921968D01*
X12933182Y9092737D01*
X12941763Y9101319D01*
X12946408Y9112532D01*
Y9124668D01*
X12941763Y9135881D01*
X12933182Y9144463D01*
X12921968Y9149108D01*
D02*
G37*
G36*
X9188168Y9136408D02*
X9176032D01*
X9164819Y9131763D01*
X9156237Y9123181D01*
X9151592Y9111968D01*
Y9099832D01*
X9156237Y9088619D01*
X9164819Y9080037D01*
X9176032Y9075392D01*
X9188168D01*
X9199381Y9080037D01*
X9207963Y9088619D01*
X9212608Y9099832D01*
Y9111968D01*
X9207963Y9123181D01*
X9199381Y9131763D01*
X9188168Y9136408D01*
D02*
G37*
G36*
X13404568Y9085608D02*
X13392432D01*
X13381219Y9080963D01*
X13372636Y9072381D01*
X13367992Y9061168D01*
Y9049032D01*
X13372636Y9037819D01*
X13381219Y9029237D01*
X13392432Y9024592D01*
X13404568D01*
X13415781Y9029237D01*
X13424364Y9037819D01*
X13429008Y9049032D01*
Y9061168D01*
X13424364Y9072381D01*
X13415781Y9080963D01*
X13404568Y9085608D01*
D02*
G37*
G36*
X12515568Y9034808D02*
X12503432D01*
X12492219Y9030163D01*
X12483637Y9021581D01*
X12478992Y9010368D01*
Y8998232D01*
X12483637Y8987019D01*
X12492219Y8978437D01*
X12503432Y8973792D01*
X12515568D01*
X12526781Y8978437D01*
X12535363Y8987019D01*
X12540008Y8998232D01*
Y9010368D01*
X12535363Y9021581D01*
X12526781Y9030163D01*
X12515568Y9034808D01*
D02*
G37*
G36*
X14344368Y9022108D02*
X14332233D01*
X14321019Y9017463D01*
X14312437Y9008881D01*
X14307793Y8997668D01*
Y8985532D01*
X14312437Y8974319D01*
X14321019Y8965737D01*
X14332233Y8961092D01*
X14344368D01*
X14355582Y8965737D01*
X14364163Y8974319D01*
X14368808Y8985532D01*
Y8997668D01*
X14364163Y9008881D01*
X14355582Y9017463D01*
X14344368Y9022108D01*
D02*
G37*
G36*
X15284167Y8971308D02*
X15272032D01*
X15260818Y8966663D01*
X15252237Y8958081D01*
X15247592Y8946868D01*
Y8934732D01*
X15252237Y8923519D01*
X15260818Y8914937D01*
X15272032Y8910292D01*
X15284167D01*
X15295381Y8914937D01*
X15303963Y8923519D01*
X15308607Y8934732D01*
Y8946868D01*
X15303963Y8958081D01*
X15295381Y8966663D01*
X15284167Y8971308D01*
D02*
G37*
G36*
X15360368Y8895108D02*
X15348232D01*
X15337019Y8890463D01*
X15328436Y8881881D01*
X15323792Y8870668D01*
Y8858532D01*
X15328436Y8847319D01*
X15337019Y8838737D01*
X15348232Y8834092D01*
X15360368D01*
X15371581Y8838737D01*
X15380164Y8847319D01*
X15384808Y8858532D01*
Y8870668D01*
X15380164Y8881881D01*
X15371581Y8890463D01*
X15360368Y8895108D01*
D02*
G37*
G36*
X17269347Y9915108D02*
X17249252D01*
X17230688Y9907419D01*
X17216481Y9893211D01*
X17208792Y9874647D01*
Y9854553D01*
X17216481Y9835989D01*
X17230688Y9821781D01*
X17244724Y9815968D01*
X17249252Y9814092D01*
Y9790108D01*
X17244724Y9788232D01*
X17230688Y9782418D01*
X17216481Y9768210D01*
X17208792Y9749646D01*
Y9729553D01*
X17216481Y9710989D01*
X17230688Y9696781D01*
X17244724Y9690968D01*
X17249252Y9689092D01*
Y9665108D01*
X17244724Y9663232D01*
X17230688Y9657419D01*
X17216481Y9643211D01*
X17208792Y9624647D01*
Y9604553D01*
X17216481Y9585989D01*
X17230688Y9571781D01*
X17244724Y9565968D01*
X17249252Y9564092D01*
Y9540108D01*
X17244724Y9538232D01*
X17230688Y9532419D01*
X17216481Y9518211D01*
X17208792Y9499647D01*
Y9479553D01*
X17216481Y9460989D01*
X17230688Y9446781D01*
X17244724Y9440968D01*
X17249252Y9439092D01*
X17249252Y9415108D01*
X17244724Y9413232D01*
X17230690Y9407419D01*
X17216483Y9393211D01*
X17208792Y9374647D01*
Y9354553D01*
X17216483Y9335989D01*
X17230690Y9321781D01*
X17244724Y9315968D01*
X17249252Y9314092D01*
X17249252Y9290108D01*
X17244724Y9288232D01*
X17230688Y9282419D01*
X17216481Y9268211D01*
X17208792Y9249647D01*
Y9229553D01*
X17216481Y9210989D01*
X17230688Y9196781D01*
X17244724Y9190968D01*
X17249252Y9189092D01*
Y9165108D01*
X17244724Y9163232D01*
X17230688Y9157419D01*
X17216481Y9143211D01*
X17208792Y9124647D01*
Y9104553D01*
X17216481Y9085989D01*
X17230688Y9071781D01*
X17244724Y9065968D01*
X17249252Y9064092D01*
Y9040108D01*
X17244724Y9038232D01*
X17230688Y9032419D01*
X17216481Y9018211D01*
X17208792Y8999647D01*
Y8979554D01*
X17216481Y8960990D01*
X17230688Y8946782D01*
X17245517Y8940640D01*
X17249252Y8939092D01*
X17246471Y8919573D01*
X17246472D01*
X17246471Y8919572D01*
X17222920Y8915108D01*
X17208792D01*
Y8814092D01*
X17309808D01*
Y8915108D01*
X17295680D01*
X17272128Y8919572D01*
X17272128Y8919573D01*
X17272128D01*
X17269347Y8939092D01*
X17273083Y8940640D01*
X17287910Y8946782D01*
X17302119Y8960990D01*
X17309808Y8979554D01*
Y8999647D01*
X17302119Y9018211D01*
X17287910Y9032419D01*
X17273875Y9038232D01*
X17269347Y9040108D01*
Y9064092D01*
X17273875Y9065968D01*
X17287910Y9071781D01*
X17302119Y9085989D01*
X17309808Y9104553D01*
Y9124647D01*
X17302119Y9143211D01*
X17287910Y9157419D01*
X17273875Y9163232D01*
X17269347Y9165108D01*
Y9189092D01*
X17273875Y9190968D01*
X17287910Y9196781D01*
X17302119Y9210989D01*
X17309808Y9229553D01*
Y9249647D01*
X17302119Y9268211D01*
X17287910Y9282419D01*
X17273875Y9288232D01*
X17269347Y9290108D01*
X17269347Y9314092D01*
X17273875Y9315968D01*
X17287910Y9321781D01*
X17302119Y9335989D01*
X17309808Y9354553D01*
Y9374647D01*
X17302119Y9393211D01*
X17287910Y9407419D01*
X17273875Y9413232D01*
X17269347Y9415108D01*
X17269347Y9439092D01*
X17273875Y9440968D01*
X17287910Y9446781D01*
X17302119Y9460989D01*
X17309808Y9479553D01*
Y9499647D01*
X17302119Y9518211D01*
X17287910Y9532419D01*
X17273875Y9538232D01*
X17269347Y9540108D01*
Y9564092D01*
X17273875Y9565968D01*
X17287910Y9571781D01*
X17302119Y9585989D01*
X17309808Y9604553D01*
Y9624647D01*
X17302119Y9643211D01*
X17287910Y9657419D01*
X17273875Y9663232D01*
X17269347Y9665108D01*
Y9689092D01*
X17273875Y9690968D01*
X17287910Y9696781D01*
X17302119Y9710989D01*
X17309808Y9729553D01*
Y9749646D01*
X17302119Y9768210D01*
X17287910Y9782418D01*
X17273875Y9788232D01*
X17269347Y9790108D01*
Y9814092D01*
X17273875Y9815968D01*
X17287910Y9821781D01*
X17302119Y9835989D01*
X17309808Y9854553D01*
Y9874647D01*
X17302119Y9893211D01*
X17287910Y9907419D01*
X17269347Y9915108D01*
D02*
G37*
G36*
X5454368Y8831608D02*
X5442232D01*
X5431019Y8826963D01*
X5422437Y8818381D01*
X5417792Y8807168D01*
Y8795032D01*
X5422437Y8783819D01*
X5431019Y8775237D01*
X5442232Y8770592D01*
X5454368D01*
X5465581Y8775237D01*
X5474163Y8783819D01*
X5478808Y8795032D01*
Y8807168D01*
X5474163Y8818381D01*
X5465581Y8826963D01*
X5454368Y8831608D01*
D02*
G37*
G36*
X3104308Y8850608D02*
X3003292D01*
Y8749592D01*
X3104308D01*
Y8850608D01*
D02*
G37*
G36*
X5619468Y8793508D02*
X5607332D01*
X5596119Y8788863D01*
X5587537Y8780281D01*
X5582892Y8769068D01*
Y8756932D01*
X5587537Y8745719D01*
X5596119Y8737137D01*
X5607332Y8732492D01*
X5619468D01*
X5630681Y8737137D01*
X5639263Y8745719D01*
X5643908Y8756932D01*
Y8769068D01*
X5639263Y8780281D01*
X5630681Y8788863D01*
X5619468Y8793508D01*
D02*
G37*
G36*
X12909268Y8755408D02*
X12897131D01*
X12885919Y8750763D01*
X12877338Y8742181D01*
X12872691Y8730968D01*
Y8718832D01*
X12877338Y8707619D01*
X12885919Y8699037D01*
X12897131Y8694392D01*
X12909268D01*
X12920480Y8699037D01*
X12929063Y8707619D01*
X12933708Y8718832D01*
Y8730968D01*
X12929063Y8742181D01*
X12920480Y8750763D01*
X12909268Y8755408D01*
D02*
G37*
G36*
X12998167Y8691908D02*
X12986032D01*
X12974818Y8687263D01*
X12966237Y8678681D01*
X12961592Y8667468D01*
Y8655332D01*
X12966237Y8644119D01*
X12974818Y8635537D01*
X12986032Y8630892D01*
X12998167D01*
X13009381Y8635537D01*
X13017963Y8644119D01*
X13022607Y8655332D01*
Y8667468D01*
X13017963Y8678681D01*
X13009381Y8687263D01*
X12998167Y8691908D01*
D02*
G37*
G36*
X5619468Y8653808D02*
X5607332D01*
X5596119Y8649163D01*
X5587537Y8640581D01*
X5582892Y8629368D01*
Y8617232D01*
X5587537Y8606019D01*
X5596119Y8597437D01*
X5607332Y8592792D01*
X5619468D01*
X5630681Y8597437D01*
X5639263Y8606019D01*
X5643908Y8617232D01*
Y8629368D01*
X5639263Y8640581D01*
X5630681Y8649163D01*
X5619468Y8653808D01*
D02*
G37*
G36*
X12998167Y8514108D02*
X12986032D01*
X12974818Y8509463D01*
X12966237Y8500881D01*
X12961592Y8489668D01*
Y8477532D01*
X12966237Y8466319D01*
X12974818Y8457737D01*
X12986032Y8453092D01*
X12998167D01*
X13009381Y8457737D01*
X13017963Y8466319D01*
X13022607Y8477532D01*
Y8489668D01*
X13017963Y8500881D01*
X13009381Y8509463D01*
X12998167Y8514108D01*
D02*
G37*
G36*
X10267668Y8488708D02*
X10255532D01*
X10244319Y8484063D01*
X10235737Y8475481D01*
X10231092Y8464268D01*
Y8452132D01*
X10235737Y8440919D01*
X10244319Y8432337D01*
X10255532Y8427692D01*
X10267668D01*
X10278881Y8432337D01*
X10287463Y8440919D01*
X10292108Y8452132D01*
Y8464268D01*
X10287463Y8475481D01*
X10278881Y8484063D01*
X10267668Y8488708D01*
D02*
G37*
G36*
X15677869Y8425208D02*
X15665732D01*
X15654520Y8420563D01*
X15645937Y8411981D01*
X15641292Y8400768D01*
Y8388632D01*
X15645937Y8377419D01*
X15654520Y8368837D01*
X15665732Y8364192D01*
X15677869D01*
X15689081Y8368837D01*
X15697662Y8377419D01*
X15702309Y8388632D01*
Y8400768D01*
X15697662Y8411981D01*
X15689081Y8420563D01*
X15677869Y8425208D01*
D02*
G37*
G36*
X12998167D02*
X12986032D01*
X12974818Y8420563D01*
X12966237Y8411981D01*
X12961592Y8400768D01*
Y8388632D01*
X12966237Y8377419D01*
X12974818Y8368837D01*
X12986032Y8364192D01*
X12998167D01*
X13009381Y8368837D01*
X13017963Y8377419D01*
X13022607Y8388632D01*
Y8400768D01*
X13017963Y8411981D01*
X13009381Y8420563D01*
X12998167Y8425208D01*
D02*
G37*
G36*
X15588968Y8412508D02*
X15576833D01*
X15565619Y8407863D01*
X15557037Y8399281D01*
X15552393Y8388068D01*
Y8375932D01*
X15557037Y8364719D01*
X15565619Y8356137D01*
X15576833Y8351492D01*
X15588968D01*
X15600182Y8356137D01*
X15608763Y8364719D01*
X15613408Y8375932D01*
Y8388068D01*
X15608763Y8399281D01*
X15600182Y8407863D01*
X15588968Y8412508D01*
D02*
G37*
G36*
X12159968D02*
X12147832D01*
X12136619Y8407863D01*
X12128037Y8399281D01*
X12123392Y8388068D01*
Y8375932D01*
X12128037Y8364719D01*
X12136619Y8356137D01*
X12147832Y8351492D01*
X12159968D01*
X12171181Y8356137D01*
X12179763Y8364719D01*
X12184408Y8375932D01*
Y8388068D01*
X12179763Y8399281D01*
X12171181Y8407863D01*
X12159968Y8412508D01*
D02*
G37*
G36*
X15436568Y8399808D02*
X15424432D01*
X15413219Y8395163D01*
X15404637Y8386581D01*
X15399992Y8375368D01*
Y8363232D01*
X15404637Y8352019D01*
X15413219Y8343437D01*
X15424432Y8338792D01*
X15436568D01*
X15447781Y8343437D01*
X15456363Y8352019D01*
X15461008Y8363232D01*
Y8375368D01*
X15456363Y8386581D01*
X15447781Y8395163D01*
X15436568Y8399808D01*
D02*
G37*
G36*
X3606600Y8451270D02*
X3546600D01*
X3524942Y8446962D01*
X3506581Y8434694D01*
X3494313Y8416333D01*
X3490005Y8394675D01*
X3494313Y8373017D01*
X3506581Y8354656D01*
X3524942Y8342387D01*
X3546600Y8338079D01*
X3606600D01*
X3628258Y8342387D01*
X3646619Y8354656D01*
X3658887Y8373017D01*
X3663195Y8394675D01*
X3658887Y8416333D01*
X3646619Y8434694D01*
X3628258Y8446962D01*
X3606600Y8451270D01*
D02*
G37*
G36*
X3226600D02*
X3166600D01*
X3144942Y8446962D01*
X3126581Y8434694D01*
X3114313Y8416333D01*
X3110005Y8394675D01*
X3114313Y8373017D01*
X3126581Y8354656D01*
X3144942Y8342387D01*
X3166600Y8338079D01*
X3226600D01*
X3248258Y8342387D01*
X3266619Y8354656D01*
X3278887Y8373017D01*
X3283195Y8394675D01*
X3278887Y8416333D01*
X3266619Y8434694D01*
X3248258Y8446962D01*
X3226600Y8451270D01*
D02*
G37*
G36*
X15842969Y8374408D02*
X15830832D01*
X15819620Y8369763D01*
X15811037Y8361181D01*
X15806392Y8349968D01*
Y8337832D01*
X15811037Y8326619D01*
X15819620Y8318037D01*
X15830832Y8313392D01*
X15842969D01*
X15854181Y8318037D01*
X15862762Y8326619D01*
X15867409Y8337832D01*
Y8349968D01*
X15862762Y8361181D01*
X15854181Y8369763D01*
X15842969Y8374408D01*
D02*
G37*
G36*
X15754068D02*
X15741933D01*
X15730719Y8369763D01*
X15722137Y8361181D01*
X15717493Y8349968D01*
Y8337832D01*
X15722137Y8326619D01*
X15730719Y8318037D01*
X15741933Y8313392D01*
X15754068D01*
X15765282Y8318037D01*
X15773863Y8326619D01*
X15778508Y8337832D01*
Y8349968D01*
X15773863Y8361181D01*
X15765282Y8369763D01*
X15754068Y8374408D01*
D02*
G37*
G36*
X15512769Y8349008D02*
X15500632D01*
X15489420Y8344363D01*
X15480836Y8335781D01*
X15476192Y8324568D01*
Y8312432D01*
X15480836Y8301219D01*
X15489420Y8292637D01*
X15500632Y8287992D01*
X15512769D01*
X15523981Y8292637D01*
X15532562Y8301219D01*
X15537209Y8312432D01*
Y8324568D01*
X15532562Y8335781D01*
X15523981Y8344363D01*
X15512769Y8349008D01*
D02*
G37*
G36*
X12477468D02*
X12465332D01*
X12454119Y8344363D01*
X12445537Y8335781D01*
X12440892Y8324568D01*
Y8312432D01*
X12445537Y8301219D01*
X12454119Y8292637D01*
X12465332Y8287992D01*
X12477468D01*
X12488681Y8292637D01*
X12497263Y8301219D01*
X12501908Y8312432D01*
Y8324568D01*
X12497263Y8335781D01*
X12488681Y8344363D01*
X12477468Y8349008D01*
D02*
G37*
G36*
X10026368Y8463308D02*
X10014232D01*
X10003019Y8458663D01*
X9994437Y8450081D01*
X9989792Y8438868D01*
Y8426732D01*
X9994437Y8415519D01*
X10003019Y8406937D01*
X10014232Y8402292D01*
X10022652Y8402292D01*
X10029023Y8392828D01*
X10033754Y8375963D01*
X10032536Y8373882D01*
X10031810Y8372126D01*
X10027892Y8362668D01*
Y8350532D01*
X10032537Y8339319D01*
X10041119Y8330737D01*
X10052332Y8326092D01*
X10060752Y8326092D01*
X10067123Y8316628D01*
X10071854Y8299763D01*
X10070636Y8297682D01*
X10069910Y8295926D01*
X10065992Y8286468D01*
Y8274332D01*
X10070637Y8263119D01*
X10079219Y8254537D01*
X10090432Y8249892D01*
X10102568D01*
X10113781Y8254537D01*
X10122363Y8263119D01*
X10127008Y8274332D01*
Y8286468D01*
X10122363Y8297681D01*
X10113781Y8306263D01*
X10102568Y8310908D01*
X10094148Y8310908D01*
X10087777Y8320372D01*
X10083046Y8337237D01*
X10084264Y8339318D01*
X10084990Y8341074D01*
X10088908Y8350532D01*
Y8362668D01*
X10084263Y8373881D01*
X10075681Y8382463D01*
X10064468Y8387108D01*
X10056048Y8387108D01*
X10049677Y8396572D01*
X10044946Y8413437D01*
X10046164Y8415518D01*
X10046890Y8417274D01*
X10050808Y8426732D01*
Y8438868D01*
X10046163Y8450081D01*
X10037581Y8458663D01*
X10026368Y8463308D01*
D02*
G37*
G36*
X16338268Y8298208D02*
X16326132D01*
X16314919Y8293563D01*
X16306337Y8284981D01*
X16301692Y8273768D01*
Y8261632D01*
X16306337Y8250419D01*
X16314919Y8241837D01*
X16326132Y8237192D01*
X16338268D01*
X16349481Y8241837D01*
X16358063Y8250419D01*
X16362708Y8261632D01*
Y8273768D01*
X16358063Y8284981D01*
X16349481Y8293563D01*
X16338268Y8298208D01*
D02*
G37*
G36*
X12756868Y8272808D02*
X12744732D01*
X12733519Y8268163D01*
X12724937Y8259581D01*
X12720292Y8248368D01*
Y8236232D01*
X12724937Y8225019D01*
X12733519Y8216437D01*
X12744732Y8211792D01*
X12756868D01*
X12768081Y8216437D01*
X12776663Y8225019D01*
X12781308Y8236232D01*
Y8248368D01*
X12776663Y8259581D01*
X12768081Y8268163D01*
X12756868Y8272808D01*
D02*
G37*
G36*
X10026368Y8260108D02*
X10014232D01*
X10003019Y8255463D01*
X9994437Y8246881D01*
X9989792Y8235668D01*
Y8223532D01*
X9994437Y8212319D01*
X10003019Y8203737D01*
X10014232Y8199092D01*
X10026368D01*
X10037581Y8203737D01*
X10046163Y8212319D01*
X10050808Y8223532D01*
Y8235668D01*
X10046163Y8246881D01*
X10037581Y8255463D01*
X10026368Y8260108D01*
D02*
G37*
G36*
Y8171208D02*
X10014232D01*
X10003019Y8166563D01*
X9994437Y8157981D01*
X9989792Y8146768D01*
Y8134632D01*
X9994437Y8123419D01*
X10003019Y8114837D01*
X10014232Y8110192D01*
X10026368D01*
X10037581Y8114837D01*
X10046163Y8123419D01*
X10050808Y8134632D01*
Y8146768D01*
X10046163Y8157981D01*
X10037581Y8166563D01*
X10026368Y8171208D01*
D02*
G37*
G36*
X9404068Y8145808D02*
X9391932D01*
X9380719Y8141163D01*
X9372137Y8132581D01*
X9367492Y8121368D01*
Y8109232D01*
X9372137Y8098019D01*
X9380719Y8089437D01*
X9391932Y8084792D01*
X9404068D01*
X9415281Y8089437D01*
X9423863Y8098019D01*
X9428508Y8109232D01*
Y8121368D01*
X9423863Y8132581D01*
X9415281Y8141163D01*
X9404068Y8145808D01*
D02*
G37*
G36*
X13899867Y8120408D02*
X13887732D01*
X13876518Y8115763D01*
X13867937Y8107181D01*
X13863292Y8095968D01*
Y8083832D01*
X13867937Y8072619D01*
X13876518Y8064037D01*
X13887732Y8059392D01*
X13899867D01*
X13911081Y8064037D01*
X13919662Y8072619D01*
X13924307Y8083832D01*
Y8095968D01*
X13919662Y8107181D01*
X13911081Y8115763D01*
X13899867Y8120408D01*
D02*
G37*
G36*
X16394495Y8114982D02*
X16382356D01*
X16371144Y8110338D01*
X16362563Y8101756D01*
X16357918Y8090543D01*
Y8078406D01*
X16362563Y8067193D01*
X16371144Y8058611D01*
X16382356Y8053966D01*
X16394495D01*
X16405707Y8058611D01*
X16414288Y8067193D01*
X16418935Y8078406D01*
Y8090543D01*
X16414288Y8101756D01*
X16405707Y8110338D01*
X16394495Y8114982D01*
D02*
G37*
G36*
X13798268Y8107708D02*
X13786131D01*
X13774919Y8103063D01*
X13766338Y8094481D01*
X13761691Y8083268D01*
Y8071132D01*
X13766338Y8059919D01*
X13774919Y8051337D01*
X13786131Y8046692D01*
X13798268D01*
X13809480Y8051337D01*
X13818063Y8059919D01*
X13822708Y8071132D01*
Y8083268D01*
X13818063Y8094481D01*
X13809480Y8103063D01*
X13798268Y8107708D01*
D02*
G37*
G36*
X13709367D02*
X13697232D01*
X13686018Y8103063D01*
X13677437Y8094481D01*
X13672792Y8083268D01*
Y8071132D01*
X13677437Y8059919D01*
X13686018Y8051337D01*
X13697232Y8046692D01*
X13709367D01*
X13720581Y8051337D01*
X13729163Y8059919D01*
X13733807Y8071132D01*
Y8083268D01*
X13729163Y8094481D01*
X13720581Y8103063D01*
X13709367Y8107708D01*
D02*
G37*
G36*
X13620468D02*
X13608331D01*
X13597119Y8103063D01*
X13588538Y8094481D01*
X13583891Y8083268D01*
Y8071132D01*
X13588538Y8059919D01*
X13597119Y8051337D01*
X13608331Y8046692D01*
X13620468D01*
X13631680Y8051337D01*
X13640263Y8059919D01*
X13644908Y8071132D01*
Y8083268D01*
X13640263Y8094481D01*
X13631680Y8103063D01*
X13620468Y8107708D01*
D02*
G37*
G36*
X12998167D02*
X12986032D01*
X12974818Y8103063D01*
X12966237Y8094481D01*
X12961592Y8083268D01*
Y8071132D01*
X12966237Y8059919D01*
X12974818Y8051337D01*
X12986032Y8046692D01*
X12998167D01*
X13009381Y8051337D01*
X13017963Y8059919D01*
X13022607Y8071132D01*
Y8083268D01*
X13017963Y8094481D01*
X13009381Y8103063D01*
X12998167Y8107708D01*
D02*
G37*
G36*
X10064468Y7993408D02*
X10052332D01*
X10041119Y7988763D01*
X10032537Y7980181D01*
X10027892Y7968968D01*
Y7956832D01*
X10032537Y7945619D01*
X10041119Y7937037D01*
X10052332Y7932392D01*
X10064468D01*
X10075681Y7937037D01*
X10084263Y7945619D01*
X10088908Y7956832D01*
Y7968968D01*
X10084263Y7980181D01*
X10075681Y7988763D01*
X10064468Y7993408D01*
D02*
G37*
G36*
X16392494Y7989982D02*
X16380357D01*
X16369144Y7985338D01*
X16360562Y7976756D01*
X16355917Y7965543D01*
Y7953406D01*
X16360562Y7942193D01*
X16369144Y7933611D01*
X16380357Y7928966D01*
X16392494D01*
X16403706Y7933611D01*
X16412289Y7942193D01*
X16416934Y7953406D01*
Y7965543D01*
X16412289Y7976756D01*
X16403706Y7985338D01*
X16392494Y7989982D01*
D02*
G37*
G36*
X10064468Y7866408D02*
X10052332D01*
X10041119Y7861763D01*
X10032537Y7853181D01*
X10027892Y7841968D01*
Y7829832D01*
X10032537Y7818619D01*
X10041119Y7810037D01*
X10052332Y7805392D01*
X10064468D01*
X10075681Y7810037D01*
X10084263Y7818619D01*
X10088908Y7829832D01*
Y7841968D01*
X10084263Y7853181D01*
X10075681Y7861763D01*
X10064468Y7866408D01*
D02*
G37*
G36*
X16390494Y7864982D02*
X16378357D01*
X16367143Y7860338D01*
X16358562Y7851756D01*
X16353918Y7840543D01*
Y7828406D01*
X16358562Y7817193D01*
X16367143Y7808611D01*
X16378357Y7803966D01*
X16390494D01*
X16401707Y7808611D01*
X16410289Y7817193D01*
X16414934Y7828406D01*
Y7840543D01*
X16410289Y7851756D01*
X16401707Y7860338D01*
X16390494Y7864982D01*
D02*
G37*
G36*
X13836368Y7853708D02*
X13824232D01*
X13813019Y7849063D01*
X13804437Y7840481D01*
X13799792Y7829268D01*
Y7817132D01*
X13804437Y7805919D01*
X13813019Y7797337D01*
X13824232Y7792692D01*
X13836368D01*
X13847581Y7797337D01*
X13856163Y7805919D01*
X13860808Y7817132D01*
Y7829268D01*
X13856163Y7840481D01*
X13847581Y7849063D01*
X13836368Y7853708D01*
D02*
G37*
G36*
X13493468D02*
X13481332D01*
X13470119Y7849063D01*
X13461537Y7840481D01*
X13456892Y7829268D01*
Y7817132D01*
X13461537Y7805919D01*
X13470119Y7797337D01*
X13481332Y7792692D01*
X13493468D01*
X13504681Y7797337D01*
X13513263Y7805919D01*
X13517908Y7817132D01*
Y7829268D01*
X13513263Y7840481D01*
X13504681Y7849063D01*
X13493468Y7853708D01*
D02*
G37*
G36*
X13772868Y7790208D02*
X13760732D01*
X13749519Y7785563D01*
X13740936Y7776981D01*
X13736292Y7765768D01*
Y7753632D01*
X13740936Y7742419D01*
X13749519Y7733837D01*
X13760732Y7729192D01*
X13772868D01*
X13784081Y7733837D01*
X13792664Y7742419D01*
X13797308Y7753632D01*
Y7765768D01*
X13792664Y7776981D01*
X13784081Y7785563D01*
X13772868Y7790208D01*
D02*
G37*
G36*
X13556969D02*
X13544832D01*
X13533620Y7785563D01*
X13525037Y7776981D01*
X13520392Y7765768D01*
Y7753632D01*
X13525037Y7742419D01*
X13533620Y7733837D01*
X13544832Y7729192D01*
X13556969D01*
X13568181Y7733837D01*
X13576762Y7742419D01*
X13581409Y7753632D01*
Y7765768D01*
X13576762Y7776981D01*
X13568181Y7785563D01*
X13556969Y7790208D01*
D02*
G37*
G36*
X12502868Y7752108D02*
X12490732D01*
X12479519Y7747463D01*
X12470937Y7738881D01*
X12466292Y7727668D01*
Y7715532D01*
X12470937Y7704319D01*
X12479519Y7695737D01*
X12490732Y7691092D01*
X12502868D01*
X12514081Y7695737D01*
X12522663Y7704319D01*
X12527308Y7715532D01*
Y7727668D01*
X12522663Y7738881D01*
X12514081Y7747463D01*
X12502868Y7752108D01*
D02*
G37*
G36*
X13709367Y7726708D02*
X13697232D01*
X13686018Y7722063D01*
X13677437Y7713481D01*
X13672792Y7702268D01*
Y7690132D01*
X13677437Y7678919D01*
X13686018Y7670337D01*
X13697232Y7665692D01*
X13709367D01*
X13720581Y7670337D01*
X13729163Y7678919D01*
X13733807Y7690132D01*
Y7702268D01*
X13729163Y7713481D01*
X13720581Y7722063D01*
X13709367Y7726708D01*
D02*
G37*
G36*
X13379169D02*
X13367032D01*
X13355820Y7722063D01*
X13347237Y7713481D01*
X13342592Y7702268D01*
Y7690132D01*
X13347237Y7678919D01*
X13355820Y7670337D01*
X13367032Y7665692D01*
X13379169D01*
X13390381Y7670337D01*
X13398962Y7678919D01*
X13403609Y7690132D01*
Y7702268D01*
X13398962Y7713481D01*
X13390381Y7722063D01*
X13379169Y7726708D01*
D02*
G37*
G36*
X16325568Y7675908D02*
X16313432D01*
X16302219Y7671263D01*
X16293637Y7662681D01*
X16288992Y7651468D01*
Y7639332D01*
X16293637Y7628119D01*
X16302219Y7619537D01*
X16313432Y7614892D01*
X16325568D01*
X16336781Y7619537D01*
X16345363Y7628119D01*
X16350008Y7639332D01*
Y7651468D01*
X16345363Y7662681D01*
X16336781Y7671263D01*
X16325568Y7675908D01*
D02*
G37*
G36*
X10026368D02*
X10014232D01*
X10003019Y7671263D01*
X9994437Y7662681D01*
X9989792Y7651468D01*
Y7639332D01*
X9994437Y7628119D01*
X10003019Y7619537D01*
X10014232Y7614892D01*
X10026368D01*
X10037581Y7619537D01*
X10046163Y7628119D01*
X10050808Y7639332D01*
Y7651468D01*
X10046163Y7662681D01*
X10037581Y7671263D01*
X10026368Y7675908D01*
D02*
G37*
G36*
X3606600Y7587270D02*
X3546600D01*
X3524942Y7582962D01*
X3506581Y7570694D01*
X3494313Y7552333D01*
X3490005Y7530675D01*
X3494313Y7509017D01*
X3506581Y7490656D01*
X3524942Y7478388D01*
X3546600Y7474080D01*
X3606600D01*
X3628258Y7478388D01*
X3646619Y7490656D01*
X3658887Y7509017D01*
X3663195Y7530675D01*
X3658887Y7552333D01*
X3646619Y7570694D01*
X3628258Y7582962D01*
X3606600Y7587270D01*
D02*
G37*
G36*
X3226600D02*
X3166600D01*
X3144942Y7582962D01*
X3126581Y7570694D01*
X3114313Y7552333D01*
X3110005Y7530675D01*
X3114313Y7509017D01*
X3126581Y7490656D01*
X3144942Y7478388D01*
X3166600Y7474080D01*
X3226600D01*
X3248258Y7478388D01*
X3266619Y7490656D01*
X3278887Y7509017D01*
X3283195Y7530675D01*
X3278887Y7552333D01*
X3266619Y7570694D01*
X3248258Y7582962D01*
X3226600Y7587270D01*
D02*
G37*
G36*
X4692368Y7523508D02*
X4680232D01*
X4669019Y7518863D01*
X4660437Y7510281D01*
X4655792Y7499068D01*
Y7486932D01*
X4660437Y7475719D01*
X4669019Y7467137D01*
X4680232Y7462492D01*
X4692368D01*
X4703581Y7467137D01*
X4712163Y7475719D01*
X4716808Y7486932D01*
Y7499068D01*
X4712163Y7510281D01*
X4703581Y7518863D01*
X4692368Y7523508D01*
D02*
G37*
G36*
X13379169Y7498108D02*
X13367032D01*
X13355820Y7493463D01*
X13347237Y7484881D01*
X13342592Y7473668D01*
Y7461532D01*
X13347237Y7450319D01*
X13355820Y7441737D01*
X13367032Y7437092D01*
X13379169D01*
X13390381Y7441737D01*
X13398962Y7450319D01*
X13403609Y7461532D01*
Y7473668D01*
X13398962Y7484881D01*
X13390381Y7493463D01*
X13379169Y7498108D01*
D02*
G37*
G36*
X8311868Y7460008D02*
X8299732D01*
X8288519Y7455363D01*
X8279937Y7446781D01*
X8275292Y7435568D01*
Y7423432D01*
X8279937Y7412219D01*
X8288519Y7403637D01*
X8299732Y7398992D01*
X8311868D01*
X8323081Y7403637D01*
X8331663Y7412219D01*
X8336308Y7423432D01*
Y7435568D01*
X8331663Y7446781D01*
X8323081Y7455363D01*
X8311868Y7460008D01*
D02*
G37*
G36*
X6317968Y7396508D02*
X6305832D01*
X6294619Y7391863D01*
X6286037Y7383281D01*
X6281392Y7372068D01*
Y7359932D01*
X6286037Y7348719D01*
X6294619Y7340137D01*
X6305832Y7335492D01*
X6317968D01*
X6329181Y7340137D01*
X6337763Y7348719D01*
X6342408Y7359932D01*
Y7372068D01*
X6337763Y7383281D01*
X6329181Y7391863D01*
X6317968Y7396508D01*
D02*
G37*
G36*
X8489668Y7333008D02*
X8477532D01*
X8466319Y7328363D01*
X8457737Y7319781D01*
X8453092Y7308568D01*
Y7296432D01*
X8457737Y7285219D01*
X8466319Y7276637D01*
X8477532Y7271992D01*
X8489668D01*
X8500881Y7276637D01*
X8509463Y7285219D01*
X8514108Y7296432D01*
Y7308568D01*
X8509463Y7319781D01*
X8500881Y7328363D01*
X8489668Y7333008D01*
D02*
G37*
G36*
X8400768D02*
X8388632D01*
X8377419Y7328363D01*
X8368837Y7319781D01*
X8364192Y7308568D01*
Y7296432D01*
X8368837Y7285219D01*
X8377419Y7276637D01*
X8388632Y7271992D01*
X8400768D01*
X8411981Y7276637D01*
X8420563Y7285219D01*
X8425208Y7296432D01*
Y7308568D01*
X8420563Y7319781D01*
X8411981Y7328363D01*
X8400768Y7333008D01*
D02*
G37*
G36*
X8311868D02*
X8299732D01*
X8288519Y7328363D01*
X8279937Y7319781D01*
X8275292Y7308568D01*
Y7296432D01*
X8279937Y7285219D01*
X8288519Y7276637D01*
X8299732Y7271992D01*
X8311868D01*
X8323081Y7276637D01*
X8331663Y7285219D01*
X8336308Y7296432D01*
Y7308568D01*
X8331663Y7319781D01*
X8323081Y7328363D01*
X8311868Y7333008D01*
D02*
G37*
G36*
X13620468Y7269508D02*
X13608331D01*
X13597119Y7264863D01*
X13588538Y7256281D01*
X13583891Y7245068D01*
Y7232932D01*
X13588538Y7221719D01*
X13597119Y7213137D01*
X13608331Y7208492D01*
X13620468D01*
X13631680Y7213137D01*
X13640263Y7221719D01*
X13644908Y7232932D01*
Y7245068D01*
X13640263Y7256281D01*
X13631680Y7264863D01*
X13620468Y7269508D01*
D02*
G37*
G36*
X13379169Y7218708D02*
X13367032D01*
X13355820Y7214063D01*
X13347237Y7205481D01*
X13342592Y7194268D01*
Y7182132D01*
X13347237Y7170919D01*
X13355820Y7162337D01*
X13367032Y7157692D01*
X13379169D01*
X13390381Y7162337D01*
X13398962Y7170919D01*
X13403609Y7182132D01*
Y7194268D01*
X13398962Y7205481D01*
X13390381Y7214063D01*
X13379169Y7218708D01*
D02*
G37*
G36*
X5111468D02*
X5099332D01*
X5088119Y7214063D01*
X5079537Y7205481D01*
X5074892Y7194268D01*
Y7182132D01*
X5079537Y7170919D01*
X5088119Y7162337D01*
X5099332Y7157692D01*
X5111468D01*
X5122681Y7162337D01*
X5131263Y7170919D01*
X5135908Y7182132D01*
Y7194268D01*
X5131263Y7205481D01*
X5122681Y7214063D01*
X5111468Y7218708D01*
D02*
G37*
G36*
X16465268Y7155208D02*
X16453133D01*
X16441919Y7150563D01*
X16433337Y7141981D01*
X16428693Y7130768D01*
Y7118632D01*
X16433337Y7107419D01*
X16441919Y7098837D01*
X16453133Y7094192D01*
X16465268D01*
X16476482Y7098837D01*
X16485063Y7107419D01*
X16489708Y7118632D01*
Y7130768D01*
X16485063Y7141981D01*
X16476482Y7150563D01*
X16465268Y7155208D01*
D02*
G37*
G36*
X15804868Y7053608D02*
X15792732D01*
X15781519Y7048963D01*
X15772937Y7040381D01*
X15768292Y7029168D01*
Y7017032D01*
X15772937Y7005819D01*
X15781519Y6997237D01*
X15792732Y6992592D01*
X15804868D01*
X15816081Y6997237D01*
X15824663Y7005819D01*
X15829308Y7017032D01*
Y7029168D01*
X15824663Y7040381D01*
X15816081Y7048963D01*
X15804868Y7053608D01*
D02*
G37*
G36*
X15690569Y7002808D02*
X15678432D01*
X15667220Y6998163D01*
X15658636Y6989581D01*
X15653992Y6978368D01*
Y6966232D01*
X15658636Y6955019D01*
X15667220Y6946437D01*
X15678432Y6941792D01*
X15690569D01*
X15701781Y6946437D01*
X15710362Y6955019D01*
X15715009Y6966232D01*
Y6978368D01*
X15710362Y6989581D01*
X15701781Y6998163D01*
X15690569Y7002808D01*
D02*
G37*
G36*
X16530768Y6966708D02*
X16518631D01*
X16507417Y6962063D01*
X16498836Y6953481D01*
X16494193Y6942268D01*
Y6930131D01*
X16498836Y6918918D01*
X16507417Y6910336D01*
X16518631Y6905692D01*
X16530768D01*
X16541982Y6910336D01*
X16550563Y6918918D01*
X16555208Y6930131D01*
Y6942268D01*
X16550563Y6953481D01*
X16541982Y6962063D01*
X16530768Y6966708D01*
D02*
G37*
G36*
X14915868Y6964708D02*
X14903732D01*
X14892519Y6960063D01*
X14883937Y6951481D01*
X14879292Y6940268D01*
Y6928132D01*
X14883937Y6916919D01*
X14892519Y6908337D01*
X14903732Y6903692D01*
X14915868D01*
X14927081Y6908337D01*
X14935663Y6916919D01*
X14940308Y6928132D01*
Y6940268D01*
X14935663Y6951481D01*
X14927081Y6960063D01*
X14915868Y6964708D01*
D02*
G37*
G36*
X15804868Y6926608D02*
X15792732D01*
X15781519Y6921963D01*
X15772937Y6913381D01*
X15768292Y6902168D01*
Y6890032D01*
X15772937Y6878819D01*
X15781519Y6870237D01*
X15792732Y6865592D01*
X15804868D01*
X15816081Y6870237D01*
X15824663Y6878819D01*
X15829308Y6890032D01*
Y6902168D01*
X15824663Y6913381D01*
X15816081Y6921963D01*
X15804868Y6926608D01*
D02*
G37*
G36*
X9823168D02*
X9811032D01*
X9799819Y6921963D01*
X9791237Y6913381D01*
X9786592Y6902168D01*
Y6890032D01*
X9791237Y6878819D01*
X9799819Y6870237D01*
X9811032Y6865592D01*
X9823168D01*
X9834381Y6870237D01*
X9842963Y6878819D01*
X9847608Y6890032D01*
Y6902168D01*
X9842963Y6913381D01*
X9834381Y6921963D01*
X9823168Y6926608D01*
D02*
G37*
G36*
X9746968Y6863108D02*
X9734832D01*
X9723619Y6858463D01*
X9715037Y6849881D01*
X9710392Y6838668D01*
Y6826532D01*
X9715037Y6815319D01*
X9723619Y6806737D01*
X9734832Y6802092D01*
X9746968D01*
X9758181Y6806737D01*
X9766763Y6815319D01*
X9771408Y6826532D01*
Y6838668D01*
X9766763Y6849881D01*
X9758181Y6858463D01*
X9746968Y6863108D01*
D02*
G37*
G36*
X9632668D02*
X9620532D01*
X9609319Y6858463D01*
X9600737Y6849881D01*
X9596092Y6838668D01*
Y6826532D01*
X9600737Y6815319D01*
X9609319Y6806737D01*
X9620532Y6802092D01*
X9632668D01*
X9643881Y6806737D01*
X9652463Y6815319D01*
X9657108Y6826532D01*
Y6838668D01*
X9652463Y6849881D01*
X9643881Y6858463D01*
X9632668Y6863108D01*
D02*
G37*
G36*
X12261568Y6850408D02*
X12249432D01*
X12238219Y6845763D01*
X12229637Y6837181D01*
X12224992Y6825968D01*
Y6813832D01*
X12229637Y6802619D01*
X12238219Y6794037D01*
X12249432Y6789392D01*
X12261568D01*
X12272781Y6794037D01*
X12281363Y6802619D01*
X12286008Y6813832D01*
Y6825968D01*
X12281363Y6837181D01*
X12272781Y6845763D01*
X12261568Y6850408D01*
D02*
G37*
G36*
X16532768Y6841708D02*
X16520631D01*
X16509419Y6837063D01*
X16500838Y6828481D01*
X16496191Y6817268D01*
Y6805132D01*
X16500838Y6793919D01*
X16509419Y6785337D01*
X16520631Y6780692D01*
X16532768D01*
X16543980Y6785337D01*
X16552563Y6793919D01*
X16557208Y6805132D01*
Y6817268D01*
X16552563Y6828481D01*
X16543980Y6837063D01*
X16532768Y6841708D01*
D02*
G37*
G36*
X15957268Y6761508D02*
X15945132D01*
X15933919Y6756863D01*
X15925337Y6748281D01*
X15920692Y6737068D01*
Y6724932D01*
X15925337Y6713719D01*
X15933919Y6705137D01*
X15945132Y6700492D01*
X15957268D01*
X15968481Y6705137D01*
X15977063Y6713719D01*
X15981708Y6724932D01*
Y6737068D01*
X15977063Y6748281D01*
X15968481Y6756863D01*
X15957268Y6761508D01*
D02*
G37*
G36*
X12261568Y6748808D02*
X12249432D01*
X12238219Y6744163D01*
X12229637Y6735581D01*
X12224992Y6724368D01*
Y6712232D01*
X12229637Y6701019D01*
X12238219Y6692437D01*
X12249432Y6687792D01*
X12261568D01*
X12272781Y6692437D01*
X12281363Y6701019D01*
X12286008Y6712232D01*
Y6724368D01*
X12281363Y6735581D01*
X12272781Y6744163D01*
X12261568Y6748808D01*
D02*
G37*
G36*
X15690569Y6723408D02*
X15678432D01*
X15667220Y6718763D01*
X15658636Y6710181D01*
X15653992Y6698968D01*
Y6686832D01*
X15658636Y6675619D01*
X15667220Y6667037D01*
X15678432Y6662392D01*
X15690569D01*
X15701781Y6667037D01*
X15710362Y6675619D01*
X15715009Y6686832D01*
Y6698968D01*
X15710362Y6710181D01*
X15701781Y6718763D01*
X15690569Y6723408D01*
D02*
G37*
G36*
X9746968D02*
X9734832D01*
X9723619Y6718763D01*
X9715037Y6710181D01*
X9710392Y6698968D01*
Y6686832D01*
X9715037Y6675619D01*
X9723619Y6667037D01*
X9734832Y6662392D01*
X9746968D01*
X9758181Y6667037D01*
X9766763Y6675619D01*
X9771408Y6686832D01*
Y6698968D01*
X9766763Y6710181D01*
X9758181Y6718763D01*
X9746968Y6723408D01*
D02*
G37*
G36*
X9632668D02*
X9620532D01*
X9609319Y6718763D01*
X9600737Y6710181D01*
X9596092Y6698968D01*
Y6686832D01*
X9600737Y6675619D01*
X9609319Y6667037D01*
X9620532Y6662392D01*
X9632668D01*
X9643881Y6667037D01*
X9652463Y6675619D01*
X9657108Y6686832D01*
Y6698968D01*
X9652463Y6710181D01*
X9643881Y6718763D01*
X9632668Y6723408D01*
D02*
G37*
G36*
X9518368D02*
X9506232D01*
X9495019Y6718763D01*
X9486437Y6710181D01*
X9481792Y6698968D01*
Y6686832D01*
X9486437Y6675619D01*
X9495019Y6667037D01*
X9506232Y6662392D01*
X9518368D01*
X9529581Y6667037D01*
X9538163Y6675619D01*
X9542808Y6686832D01*
Y6698968D01*
X9538163Y6710181D01*
X9529581Y6718763D01*
X9518368Y6723408D01*
D02*
G37*
G36*
X17269347Y7111708D02*
X17249252D01*
X17230688Y7104019D01*
X17216481Y7089811D01*
X17208792Y7071247D01*
Y7051153D01*
X17216481Y7032589D01*
X17230688Y7018381D01*
X17244724Y7012568D01*
X17249252Y7010692D01*
Y6986708D01*
X17244724Y6984832D01*
X17230688Y6979018D01*
X17216481Y6964810D01*
X17208792Y6946246D01*
Y6926153D01*
X17216481Y6907589D01*
X17230688Y6893381D01*
X17244724Y6887568D01*
X17249252Y6885692D01*
Y6861708D01*
X17244724Y6859832D01*
X17230688Y6854019D01*
X17216481Y6839811D01*
X17208792Y6821247D01*
Y6801153D01*
X17216481Y6782589D01*
X17230688Y6768381D01*
X17244724Y6762568D01*
X17249252Y6760692D01*
Y6736708D01*
X17244724Y6734832D01*
X17230688Y6729018D01*
X17216481Y6714810D01*
X17208792Y6696246D01*
Y6676153D01*
X17216481Y6657589D01*
X17230688Y6643381D01*
X17249252Y6635692D01*
X17269347D01*
X17287910Y6643381D01*
X17302119Y6657589D01*
X17309808Y6676153D01*
Y6696246D01*
X17302119Y6714810D01*
X17287910Y6729018D01*
X17273875Y6734832D01*
X17269347Y6736708D01*
Y6760692D01*
X17273875Y6762568D01*
X17287910Y6768381D01*
X17302119Y6782589D01*
X17309808Y6801153D01*
Y6821247D01*
X17302119Y6839811D01*
X17287910Y6854019D01*
X17273875Y6859832D01*
X17269347Y6861708D01*
Y6885692D01*
X17273875Y6887568D01*
X17287910Y6893381D01*
X17302119Y6907589D01*
X17309808Y6926153D01*
Y6946246D01*
X17302119Y6964810D01*
X17287910Y6979018D01*
X17273875Y6984832D01*
X17269347Y6986708D01*
Y7010692D01*
X17273875Y7012568D01*
X17287910Y7018381D01*
X17302119Y7032589D01*
X17309808Y7051153D01*
Y7071247D01*
X17302119Y7089811D01*
X17287910Y7104019D01*
X17269347Y7111708D01*
D02*
G37*
G36*
X16477968Y6659908D02*
X16465833D01*
X16454619Y6655263D01*
X16446037Y6646681D01*
X16441393Y6635468D01*
Y6623332D01*
X16446037Y6612119D01*
X16454619Y6603537D01*
X16465833Y6598892D01*
X16477968D01*
X16489182Y6603537D01*
X16497763Y6612119D01*
X16502408Y6623332D01*
Y6635468D01*
X16497763Y6646681D01*
X16489182Y6655263D01*
X16477968Y6659908D01*
D02*
G37*
G36*
X8672876Y6609108D02*
X8660740D01*
X8649527Y6604463D01*
X8640945Y6595881D01*
X8636300Y6584668D01*
Y6572532D01*
X8640945Y6561319D01*
X8649527Y6552737D01*
X8660740Y6548092D01*
X8672876D01*
X8684089Y6552737D01*
X8692671Y6561319D01*
X8697316Y6572532D01*
Y6584668D01*
X8692671Y6595881D01*
X8684089Y6604463D01*
X8672876Y6609108D01*
D02*
G37*
G36*
X15868369Y6583708D02*
X15856232D01*
X15845020Y6579063D01*
X15836436Y6570481D01*
X15831792Y6559268D01*
Y6547132D01*
X15836436Y6535919D01*
X15845020Y6527337D01*
X15856232Y6522692D01*
X15868369D01*
X15879581Y6527337D01*
X15888164Y6535919D01*
X15892809Y6547132D01*
Y6559268D01*
X15888164Y6570481D01*
X15879581Y6579063D01*
X15868369Y6583708D01*
D02*
G37*
G36*
X13457173Y6661241D02*
X13302097D01*
Y6506166D01*
X13457173D01*
Y6661241D01*
D02*
G37*
G36*
X5111468Y6532908D02*
X5099332D01*
X5088119Y6528263D01*
X5079537Y6519681D01*
X5074892Y6508468D01*
Y6496332D01*
X5079537Y6485119D01*
X5088119Y6476537D01*
X5099332Y6471892D01*
X5111468D01*
X5122681Y6476537D01*
X5131263Y6485119D01*
X5135908Y6496332D01*
Y6508468D01*
X5131263Y6519681D01*
X5122681Y6528263D01*
X5111468Y6532908D01*
D02*
G37*
G36*
X11918668Y6507508D02*
X11906532D01*
X11895319Y6502863D01*
X11886737Y6494281D01*
X11882092Y6483068D01*
Y6470932D01*
X11886737Y6459719D01*
X11895319Y6451137D01*
X11906532Y6446492D01*
X11918668D01*
X11929881Y6451137D01*
X11938463Y6459719D01*
X11943108Y6470932D01*
Y6483068D01*
X11938463Y6494281D01*
X11929881Y6502863D01*
X11918668Y6507508D01*
D02*
G37*
G36*
X14992068Y6431308D02*
X14979932D01*
X14968719Y6426663D01*
X14960136Y6418081D01*
X14955492Y6406868D01*
Y6394732D01*
X14960136Y6383519D01*
X14968719Y6374937D01*
X14979932Y6370292D01*
X14992068D01*
X15003281Y6374937D01*
X15011864Y6383519D01*
X15016508Y6394732D01*
Y6406868D01*
X15011864Y6418081D01*
X15003281Y6426663D01*
X14992068Y6431308D01*
D02*
G37*
G36*
X14369768D02*
X14357632D01*
X14346419Y6426663D01*
X14337837Y6418081D01*
X14333192Y6406868D01*
Y6394732D01*
X14337837Y6383519D01*
X14346419Y6374937D01*
X14357632Y6370292D01*
X14369768D01*
X14380981Y6374937D01*
X14389563Y6383519D01*
X14394208Y6394732D01*
Y6406868D01*
X14389563Y6418081D01*
X14380981Y6426663D01*
X14369768Y6431308D01*
D02*
G37*
G36*
X11651968Y6393208D02*
X11639832D01*
X11628619Y6388563D01*
X11620037Y6379981D01*
X11615392Y6368768D01*
Y6356632D01*
X11620037Y6345419D01*
X11628619Y6336837D01*
X11639832Y6332192D01*
X11651968D01*
X11663181Y6336837D01*
X11671763Y6345419D01*
X11676408Y6356632D01*
Y6368768D01*
X11671763Y6379981D01*
X11663181Y6388563D01*
X11651968Y6393208D01*
D02*
G37*
G36*
X10445468Y6367808D02*
X10433332D01*
X10422119Y6363163D01*
X10413537Y6354581D01*
X10408892Y6343368D01*
Y6331232D01*
X10413537Y6320019D01*
X10422119Y6311437D01*
X10433332Y6306792D01*
X10445468D01*
X10456681Y6311437D01*
X10465263Y6320019D01*
X10469908Y6331232D01*
Y6343368D01*
X10465263Y6354581D01*
X10456681Y6363163D01*
X10445468Y6367808D01*
D02*
G37*
G36*
X14928568Y6342408D02*
X14916432D01*
X14905219Y6337763D01*
X14896637Y6329181D01*
X14891992Y6317968D01*
Y6305832D01*
X14896637Y6294619D01*
X14905219Y6286037D01*
X14916432Y6281392D01*
X14928568D01*
X14939781Y6286037D01*
X14948363Y6294619D01*
X14953008Y6305832D01*
Y6317968D01*
X14948363Y6329181D01*
X14939781Y6337763D01*
X14928568Y6342408D01*
D02*
G37*
G36*
X14293568Y6304308D02*
X14281432D01*
X14270219Y6299663D01*
X14261636Y6291081D01*
X14256992Y6279868D01*
Y6267732D01*
X14261636Y6256519D01*
X14270219Y6247937D01*
X14281432Y6243292D01*
X14293568D01*
X14304781Y6247937D01*
X14313364Y6256519D01*
X14318008Y6267732D01*
Y6279868D01*
X14313364Y6291081D01*
X14304781Y6299663D01*
X14293568Y6304308D01*
D02*
G37*
G36*
X11524968D02*
X11512832D01*
X11501619Y6299663D01*
X11493037Y6291081D01*
X11488392Y6279868D01*
Y6267732D01*
X11493037Y6256519D01*
X11501619Y6247937D01*
X11512832Y6243292D01*
X11524968D01*
X11536181Y6247937D01*
X11544763Y6256519D01*
X11549408Y6267732D01*
Y6279868D01*
X11544763Y6291081D01*
X11536181Y6299663D01*
X11524968Y6304308D01*
D02*
G37*
G36*
X11296368D02*
X11284232D01*
X11273019Y6299663D01*
X11264437Y6291081D01*
X11259792Y6279868D01*
Y6267732D01*
X11264437Y6256519D01*
X11273019Y6247937D01*
X11284232Y6243292D01*
X11296368D01*
X11307581Y6247937D01*
X11316163Y6256519D01*
X11320808Y6267732D01*
Y6279868D01*
X11316163Y6291081D01*
X11307581Y6299663D01*
X11296368Y6304308D01*
D02*
G37*
G36*
X10801068D02*
X10788932D01*
X10777719Y6299663D01*
X10769137Y6291081D01*
X10764492Y6279868D01*
Y6267732D01*
X10769137Y6256519D01*
X10777719Y6247937D01*
X10788932Y6243292D01*
X10801068D01*
X10812281Y6247937D01*
X10820863Y6256519D01*
X10825508Y6267732D01*
Y6279868D01*
X10820863Y6291081D01*
X10812281Y6299663D01*
X10801068Y6304308D01*
D02*
G37*
G36*
X14382468Y6266208D02*
X14370332D01*
X14359119Y6261563D01*
X14350537Y6252981D01*
X14345892Y6241768D01*
Y6229632D01*
X14350537Y6218419D01*
X14359119Y6209837D01*
X14370332Y6205192D01*
X14382468D01*
X14393681Y6209837D01*
X14402263Y6218419D01*
X14406908Y6229632D01*
Y6241768D01*
X14402263Y6252981D01*
X14393681Y6261563D01*
X14382468Y6266208D01*
D02*
G37*
G36*
X14611069Y6253508D02*
X14598932D01*
X14587720Y6248863D01*
X14579137Y6240281D01*
X14574492Y6229068D01*
Y6216932D01*
X14579137Y6205719D01*
X14587720Y6197137D01*
X14598932Y6192492D01*
X14611069D01*
X14622281Y6197137D01*
X14630862Y6205719D01*
X14635509Y6216932D01*
Y6229068D01*
X14630862Y6240281D01*
X14622281Y6248863D01*
X14611069Y6253508D01*
D02*
G37*
G36*
X10445468Y6240808D02*
X10433332D01*
X10422119Y6236163D01*
X10413537Y6227581D01*
X10408892Y6216368D01*
Y6204232D01*
X10413537Y6193019D01*
X10422119Y6184437D01*
X10433332Y6179792D01*
X10445468D01*
X10456681Y6184437D01*
X10465263Y6193019D01*
X10469908Y6204232D01*
Y6216368D01*
X10465263Y6227581D01*
X10456681Y6236163D01*
X10445468Y6240808D01*
D02*
G37*
G36*
X11651968Y6228108D02*
X11639832D01*
X11628619Y6223463D01*
X11620037Y6214881D01*
X11615392Y6203668D01*
Y6191532D01*
X11620037Y6180319D01*
X11628619Y6171737D01*
X11639832Y6167092D01*
X11651968D01*
X11663181Y6171737D01*
X11671763Y6180319D01*
X11676408Y6191532D01*
Y6203668D01*
X11671763Y6214881D01*
X11663181Y6223463D01*
X11651968Y6228108D01*
D02*
G37*
G36*
X10864568D02*
X10852432D01*
X10841219Y6223463D01*
X10832637Y6214881D01*
X10827992Y6203668D01*
Y6191532D01*
X10832637Y6180319D01*
X10841219Y6171737D01*
X10852432Y6167092D01*
X10864568D01*
X10875781Y6171737D01*
X10884363Y6180319D01*
X10889008Y6191532D01*
Y6203668D01*
X10884363Y6214881D01*
X10875781Y6223463D01*
X10864568Y6228108D01*
D02*
G37*
G36*
X14268169Y6215408D02*
X14256032D01*
X14244820Y6210763D01*
X14236237Y6202181D01*
X14231592Y6190968D01*
Y6178832D01*
X14236237Y6167619D01*
X14244820Y6159037D01*
X14256032Y6154392D01*
X14268169D01*
X14279381Y6159037D01*
X14287962Y6167619D01*
X14292609Y6178832D01*
Y6190968D01*
X14287962Y6202181D01*
X14279381Y6210763D01*
X14268169Y6215408D01*
D02*
G37*
G36*
X14674568Y6190008D02*
X14662431D01*
X14651219Y6185363D01*
X14642638Y6176781D01*
X14637991Y6165568D01*
Y6153432D01*
X14642638Y6142219D01*
X14651219Y6133637D01*
X14662431Y6128992D01*
X14674568D01*
X14685780Y6133637D01*
X14694363Y6142219D01*
X14699008Y6153432D01*
Y6165568D01*
X14694363Y6176781D01*
X14685780Y6185363D01*
X14674568Y6190008D01*
D02*
G37*
G36*
X14153868Y6177308D02*
X14141731D01*
X14130519Y6172663D01*
X14121938Y6164081D01*
X14117291Y6152868D01*
Y6140732D01*
X14121938Y6129519D01*
X14130519Y6120937D01*
X14141731Y6116292D01*
X14153868D01*
X14165080Y6120937D01*
X14173663Y6129519D01*
X14178308Y6140732D01*
Y6152868D01*
X14173663Y6164081D01*
X14165080Y6172663D01*
X14153868Y6177308D01*
D02*
G37*
G36*
X14039568Y6164608D02*
X14027432D01*
X14016219Y6159963D01*
X14007637Y6151381D01*
X14002992Y6140168D01*
Y6128032D01*
X14007637Y6116819D01*
X14016219Y6108237D01*
X14027432Y6103592D01*
X14039568D01*
X14050781Y6108237D01*
X14059363Y6116819D01*
X14064008Y6128032D01*
Y6140168D01*
X14059363Y6151381D01*
X14050781Y6159963D01*
X14039568Y6164608D01*
D02*
G37*
G36*
X14572968Y6126508D02*
X14560832D01*
X14549619Y6121863D01*
X14541037Y6113281D01*
X14536392Y6102068D01*
Y6089932D01*
X14541037Y6078719D01*
X14549619Y6070137D01*
X14560832Y6065492D01*
X14572968D01*
X14584181Y6070137D01*
X14592763Y6078719D01*
X14597408Y6089932D01*
Y6102068D01*
X14592763Y6113281D01*
X14584181Y6121863D01*
X14572968Y6126508D01*
D02*
G37*
G36*
X17269347Y6236708D02*
X17249252D01*
X17230688Y6229019D01*
X17216481Y6214811D01*
X17208792Y6196247D01*
Y6176154D01*
X17216481Y6157590D01*
X17230688Y6143382D01*
X17245517Y6137240D01*
X17249252Y6135692D01*
X17246471Y6116170D01*
X17246472D01*
X17246471Y6116169D01*
X17222919Y6111708D01*
X17208792D01*
Y6010692D01*
X17309808D01*
Y6111708D01*
X17295682D01*
X17272128Y6116169D01*
Y6116170D01*
X17272128D01*
X17269347Y6135692D01*
X17273083Y6137240D01*
X17287910Y6143382D01*
X17302119Y6157590D01*
X17309808Y6176154D01*
Y6196247D01*
X17302119Y6214811D01*
X17287910Y6229019D01*
X17269347Y6236708D01*
D02*
G37*
G36*
X14496768Y6050308D02*
X14484631D01*
X14473419Y6045663D01*
X14464838Y6037081D01*
X14460191Y6025868D01*
Y6013732D01*
X14464838Y6002519D01*
X14473419Y5993937D01*
X14484631Y5989292D01*
X14496768D01*
X14507980Y5993937D01*
X14516563Y6002519D01*
X14521208Y6013732D01*
Y6025868D01*
X14516563Y6037081D01*
X14507980Y6045663D01*
X14496768Y6050308D01*
D02*
G37*
G36*
X10851868Y6037608D02*
X10839732D01*
X10828519Y6032963D01*
X10819937Y6024381D01*
X10815292Y6013168D01*
Y6001032D01*
X10819937Y5989819D01*
X10828519Y5981237D01*
X10839732Y5976592D01*
X10851868D01*
X10863081Y5981237D01*
X10871663Y5989819D01*
X10876308Y6001032D01*
Y6013168D01*
X10871663Y6024381D01*
X10863081Y6032963D01*
X10851868Y6037608D01*
D02*
G37*
G36*
X14445969Y5910608D02*
X14433832D01*
X14422620Y5905963D01*
X14414037Y5897381D01*
X14409392Y5886168D01*
Y5874032D01*
X14414037Y5862819D01*
X14422620Y5854237D01*
X14433832Y5849592D01*
X14445969D01*
X14457181Y5854237D01*
X14465762Y5862819D01*
X14470409Y5874032D01*
Y5886168D01*
X14465762Y5897381D01*
X14457181Y5905963D01*
X14445969Y5910608D01*
D02*
G37*
G36*
X14572968Y5809008D02*
X14560832D01*
X14549619Y5804363D01*
X14541037Y5795781D01*
X14536392Y5784568D01*
Y5772432D01*
X14541037Y5761219D01*
X14549619Y5752637D01*
X14560832Y5747992D01*
X14572968D01*
X14584181Y5752637D01*
X14592763Y5761219D01*
X14597408Y5772432D01*
Y5784568D01*
X14592763Y5795781D01*
X14584181Y5804363D01*
X14572968Y5809008D01*
D02*
G37*
%LPD*%
D69*
X17259300Y6561200D02*
D03*
X17259300Y6311200D02*
D03*
Y6436200D02*
D03*
X3053800Y8675100D02*
D03*
X17259300Y6186200D02*
D03*
Y9114600D02*
D03*
Y7061200D02*
D03*
Y6811200D02*
D03*
Y9864600D02*
D03*
Y9239600D02*
D03*
Y9614600D02*
D03*
X17259300Y9364600D02*
D03*
X17259300Y8989600D02*
D03*
Y6936200D02*
D03*
Y6686200D02*
D03*
Y9489600D02*
D03*
Y9739600D02*
D03*
D70*
X13880016Y6583703D02*
D03*
D71*
X13379636D02*
D03*
D72*
X17259300Y8864600D02*
D03*
Y6061200D02*
D03*
X3053800Y8800100D02*
D03*
D73*
X3576600Y8394675D02*
D03*
Y7530675D02*
D03*
X3196600Y8394675D02*
D03*
Y7530675D02*
D03*
D74*
X3683000Y8674100D02*
D03*
X16713200Y6565900D02*
D03*
Y6438900D02*
D03*
Y6311900D02*
D03*
X14566901Y5778500D02*
D03*
X10960100Y9372600D02*
D03*
X11036300Y9423400D02*
D03*
X9182100Y9105900D02*
D03*
X9169400Y9194800D02*
D03*
X13373100Y7188200D02*
D03*
Y7467600D02*
D03*
Y7696200D02*
D03*
X13500101Y9182100D02*
D03*
X8666808Y6578600D02*
D03*
X15836900Y8343900D02*
D03*
X9398000Y8115300D02*
D03*
X15951199Y6731000D02*
D03*
X15862300Y6553200D02*
D03*
X12915900Y9118600D02*
D03*
X11785600Y9309100D02*
D03*
X12255500Y6819900D02*
D03*
X10261600Y8458200D02*
D03*
X13614400Y7239000D02*
D03*
Y8077200D02*
D03*
X15671800Y8394700D02*
D03*
X10096500Y8280400D02*
D03*
X15430499Y8369300D02*
D03*
X12153900Y8382000D02*
D03*
X13830299Y7823200D02*
D03*
X13893800Y8089900D02*
D03*
X14566901Y6096000D02*
D03*
X14147800Y6146800D02*
D03*
X10845800Y6007100D02*
D03*
X14439900Y5880100D02*
D03*
X10439400Y6210300D02*
D03*
Y6337300D02*
D03*
X13398500Y9182100D02*
D03*
Y9055100D02*
D03*
X12915900Y9207500D02*
D03*
X11849100Y9372600D02*
D03*
X15748000Y8343900D02*
D03*
X10020300Y8229600D02*
D03*
X14719299Y9093200D02*
D03*
X12700000Y9271000D02*
D03*
X12496800Y8877300D02*
D03*
X11451500Y9677400D02*
D03*
X11493500Y9296400D02*
D03*
X12496800Y7543800D02*
D03*
X12471400Y8166100D02*
D03*
X9766300Y9804400D02*
D03*
X10782300Y9436100D02*
D03*
X9740900Y8572500D02*
D03*
X9461500Y8013700D02*
D03*
X15074899Y6946900D02*
D03*
X12306300Y6642100D02*
D03*
X14071600Y6578600D02*
D03*
X13195300Y6311900D02*
D03*
X12319000Y6299200D02*
D03*
X9448800Y7416800D02*
D03*
X9436100Y6883400D02*
D03*
X11315700Y6451600D02*
D03*
X9334500Y6591300D02*
D03*
X10591800Y6451600D02*
D03*
X10033000D02*
D03*
X9182100Y9461500D02*
D03*
X9144000Y8801100D02*
D03*
Y8648700D02*
D03*
X7315200Y8496300D02*
D03*
X4660900Y9740900D02*
D03*
X5778500Y8763000D02*
D03*
X4724400Y8712200D02*
D03*
X6642100Y7975600D02*
D03*
X8788400Y7607300D02*
D03*
X8724900Y7124700D02*
D03*
X7696200Y5969000D02*
D03*
X3759200Y8280400D02*
D03*
X4368800Y8077200D02*
D03*
X6007100Y7899400D02*
D03*
X4368800Y7861300D02*
D03*
X3759200Y7620000D02*
D03*
X4013200Y6375400D02*
D03*
X15506700Y8318500D02*
D03*
X10020300Y8432800D02*
D03*
X15354300Y8864600D02*
D03*
X13550900Y7759700D02*
D03*
X11912552Y9436012D02*
D03*
X15798801Y6896100D02*
D03*
X12915900Y9296400D02*
D03*
X15798801Y7023100D02*
D03*
X14986000Y6400800D02*
D03*
X14363699D02*
D03*
X13766800Y7759700D02*
D03*
X13792200Y8077200D02*
D03*
X15684500Y6692900D02*
D03*
X12509500Y9004300D02*
D03*
X12750800Y8242300D02*
D03*
X12471400Y8318500D02*
D03*
X15684500Y6972300D02*
D03*
X14909801Y6934200D02*
D03*
X12496800Y7721600D02*
D03*
X11912600Y6477000D02*
D03*
X11518900Y6273800D02*
D03*
X10795000D02*
D03*
X11290300D02*
D03*
X5448300Y8801100D02*
D03*
X6311900Y7366000D02*
D03*
X4686300Y7493000D02*
D03*
X5105400Y7188200D02*
D03*
Y6502400D02*
D03*
X14922501Y6311900D02*
D03*
X14287500Y6273800D02*
D03*
X11645900Y6197600D02*
D03*
X10858500D02*
D03*
X14376401Y6235700D02*
D03*
X14605000Y6223000D02*
D03*
X15582899Y8382000D02*
D03*
X10058400Y8356600D02*
D03*
X14033501Y6134100D02*
D03*
X14490700Y6019800D02*
D03*
X10020300Y8140700D02*
D03*
X15278101Y8940800D02*
D03*
X13487399Y7823200D02*
D03*
X13703300Y7696200D02*
D03*
Y8077200D02*
D03*
X12001500Y9474200D02*
D03*
X12915900Y9385300D02*
D03*
X14338300Y8991600D02*
D03*
Y9182100D02*
D03*
X14668500Y6159500D02*
D03*
X14262100Y6184900D02*
D03*
X16332201Y8267700D02*
D03*
X11049000Y9283700D02*
D03*
X15354300Y9677400D02*
D03*
X12433300Y9347200D02*
D03*
X16384425Y7834474D02*
D03*
X16459200Y7124700D02*
D03*
X12992101Y8661400D02*
D03*
X9512300Y6692900D02*
D03*
X9817100Y6896100D02*
D03*
X10553700Y9182100D02*
D03*
X16526700Y6811200D02*
D03*
X12992101Y8394700D02*
D03*
X9740900Y6692900D02*
D03*
Y6832600D02*
D03*
X9461500Y9652000D02*
D03*
X11798300Y10096500D02*
D03*
X10858500Y9791700D02*
D03*
X12433300Y9448800D02*
D03*
X16386426Y7959474D02*
D03*
X11645900Y6362700D02*
D03*
X9398000Y10096500D02*
D03*
Y9944100D02*
D03*
X10452100Y9867900D02*
D03*
Y9728200D02*
D03*
X15290800Y9740900D02*
D03*
X8483600Y7302500D02*
D03*
X10058400Y7835900D02*
D03*
X10496395Y9594695D02*
D03*
X11019700Y9677400D02*
D03*
X10528300D02*
D03*
X9613900Y9817100D02*
D03*
X11595100Y9969500D02*
D03*
X12255500Y6718300D02*
D03*
X10020300Y7645400D02*
D03*
X10642600Y9169400D02*
D03*
X16388426Y8084474D02*
D03*
X15201900Y9753600D02*
D03*
X9626600Y6692900D02*
D03*
Y6832600D02*
D03*
X8394700Y7302500D02*
D03*
X10058400Y7962900D02*
D03*
X10071100Y9867900D02*
D03*
Y9728200D02*
D03*
X11087100Y9169400D02*
D03*
X15417799Y9613900D02*
D03*
X11188700Y9156700D02*
D03*
X15481300Y9550400D02*
D03*
X16524699Y6936200D02*
D03*
X12992101Y8483600D02*
D03*
X16471899Y6629400D02*
D03*
X12992101Y8077200D02*
D03*
X10896600Y9169400D02*
D03*
X15113000Y9753600D02*
D03*
X16319501Y7645400D02*
D03*
X12903200Y8724900D02*
D03*
X9537700Y9740900D02*
D03*
X11696700Y10033000D02*
D03*
X8305800Y7302500D02*
D03*
Y7429500D02*
D03*
X5613400Y8623300D02*
D03*
Y8763000D02*
D03*
D75*
X5384800Y7072000D02*
D03*
X5384800Y7152000D02*
D03*
%TF.MD5,d6475c23c4c6fd0b0c0f8f77d9bc7046*%
M02*
