%TF.GenerationSoftware,Altium Limited,Altium Designer,25.8.1 (18)*%
G04 Layer_Physical_Order=1*
G04 Layer_Color=255*
%FSLAX45Y45*%
%MOMM*%
%TF.SameCoordinates,7B3F40D8-49BE-4A82-B445-1243D3C56F15*%
%TF.FilePolarity,Positive*%
%TF.FileFunction,Copper,L1,Top,Signal*%
%TF.Part,Single*%
G01*
G75*
%TA.AperFunction,SMDPad,CuDef*%
G04:AMPARAMS|DCode=10|XSize=0.55mm|YSize=1.35mm|CornerRadius=0.275mm|HoleSize=0mm|Usage=FLASHONLY|Rotation=0.000|XOffset=0mm|YOffset=0mm|HoleType=Round|Shape=RoundedRectangle|*
%AMROUNDEDRECTD10*
21,1,0.55000,0.80000,0,0,0.0*
21,1,0.00000,1.35000,0,0,0.0*
1,1,0.55000,0.00000,-0.40000*
1,1,0.55000,0.00000,-0.40000*
1,1,0.55000,0.00000,0.40000*
1,1,0.55000,0.00000,0.40000*
%
%ADD10ROUNDEDRECTD10*%
%ADD11R,1.35000X0.35000*%
%ADD12R,0.35000X1.35000*%
%ADD13R,1.40000X1.50000*%
%ADD14R,1.50000X1.40000*%
%ADD15R,1.01213X1.15814*%
%ADD16R,1.15814X1.01213*%
%ADD17R,0.90000X0.80000*%
%ADD18R,1.70000X0.95000*%
%ADD19R,0.50000X0.50000*%
%ADD20R,1.35000X1.10000*%
%ADD21R,0.52000X0.56000*%
%ADD22R,1.40000X1.60000*%
G04:AMPARAMS|DCode=23|XSize=0.86107mm|YSize=0.23928mm|CornerRadius=0.11964mm|HoleSize=0mm|Usage=FLASHONLY|Rotation=0.000|XOffset=0mm|YOffset=0mm|HoleType=Round|Shape=RoundedRectangle|*
%AMROUNDEDRECTD23*
21,1,0.86107,0.00000,0,0,0.0*
21,1,0.62178,0.23928,0,0,0.0*
1,1,0.23928,0.31089,0.00000*
1,1,0.23928,-0.31089,0.00000*
1,1,0.23928,-0.31089,0.00000*
1,1,0.23928,0.31089,0.00000*
%
%ADD23ROUNDEDRECTD23*%
%ADD24R,1.80000X1.00000*%
%ADD25R,0.85000X0.70000*%
%ADD26R,0.90000X0.85000*%
%ADD27R,0.60000X1.25000*%
G04:AMPARAMS|DCode=28|XSize=1.50524mm|YSize=0.45493mm|CornerRadius=0.22746mm|HoleSize=0mm|Usage=FLASHONLY|Rotation=270.000|XOffset=0mm|YOffset=0mm|HoleType=Round|Shape=RoundedRectangle|*
%AMROUNDEDRECTD28*
21,1,1.50524,0.00000,0,0,270.0*
21,1,1.05031,0.45493,0,0,270.0*
1,1,0.45493,0.00000,-0.52516*
1,1,0.45493,0.00000,0.52516*
1,1,0.45493,0.00000,0.52516*
1,1,0.45493,0.00000,-0.52516*
%
%ADD28ROUNDEDRECTD28*%
%ADD29R,1.35000X1.00000*%
%ADD30R,0.52000X0.52000*%
%ADD31R,0.65000X0.65000*%
%ADD32R,0.55000X0.55000*%
%ADD33R,1.05000X0.90000*%
%ADD34R,1.68000X1.68000*%
G04:AMPARAMS|DCode=35|XSize=0.23928mm|YSize=0.86602mm|CornerRadius=0.11964mm|HoleSize=0mm|Usage=FLASHONLY|Rotation=0.000|XOffset=0mm|YOffset=0mm|HoleType=Round|Shape=RoundedRectangle|*
%AMROUNDEDRECTD35*
21,1,0.23928,0.62673,0,0,0.0*
21,1,0.00000,0.86602,0,0,0.0*
1,1,0.23928,0.00000,-0.31337*
1,1,0.23928,0.00000,-0.31337*
1,1,0.23928,0.00000,0.31337*
1,1,0.23928,0.00000,0.31337*
%
%ADD35ROUNDEDRECTD35*%
%ADD36R,3.50000X4.40000*%
G04:AMPARAMS|DCode=37|XSize=0.86107mm|YSize=0.39247mm|CornerRadius=0.19624mm|HoleSize=0mm|Usage=FLASHONLY|Rotation=0.000|XOffset=0mm|YOffset=0mm|HoleType=Round|Shape=RoundedRectangle|*
%AMROUNDEDRECTD37*
21,1,0.86107,0.00000,0,0,0.0*
21,1,0.46860,0.39247,0,0,0.0*
1,1,0.39247,0.23430,0.00000*
1,1,0.39247,-0.23430,0.00000*
1,1,0.39247,-0.23430,0.00000*
1,1,0.39247,0.23430,0.00000*
%
%ADD37ROUNDEDRECTD37*%
G04:AMPARAMS|DCode=38|XSize=0.86602mm|YSize=0.23928mm|CornerRadius=0.11964mm|HoleSize=0mm|Usage=FLASHONLY|Rotation=0.000|XOffset=0mm|YOffset=0mm|HoleType=Round|Shape=RoundedRectangle|*
%AMROUNDEDRECTD38*
21,1,0.86602,0.00000,0,0,0.0*
21,1,0.62673,0.23928,0,0,0.0*
1,1,0.23928,0.31337,0.00000*
1,1,0.23928,-0.31337,0.00000*
1,1,0.23928,-0.31337,0.00000*
1,1,0.23928,0.31337,0.00000*
%
%ADD38ROUNDEDRECTD38*%
%ADD39R,1.20000X0.80000*%
%ADD40R,0.73504X0.86213*%
G04:AMPARAMS|DCode=41|XSize=0.25mm|YSize=0.5mm|CornerRadius=0.05mm|HoleSize=0mm|Usage=FLASHONLY|Rotation=270.000|XOffset=0mm|YOffset=0mm|HoleType=Round|Shape=RoundedRectangle|*
%AMROUNDEDRECTD41*
21,1,0.25000,0.40000,0,0,270.0*
21,1,0.15000,0.50000,0,0,270.0*
1,1,0.10000,-0.20000,-0.07500*
1,1,0.10000,-0.20000,0.07500*
1,1,0.10000,0.20000,0.07500*
1,1,0.10000,0.20000,-0.07500*
%
%ADD41ROUNDEDRECTD41*%
%ADD42R,1.13504X1.06213*%
G04:AMPARAMS|DCode=43|XSize=0.9mm|YSize=1.6mm|CornerRadius=0.0495mm|HoleSize=0mm|Usage=FLASHONLY|Rotation=180.000|XOffset=0mm|YOffset=0mm|HoleType=Round|Shape=RoundedRectangle|*
%AMROUNDEDRECTD43*
21,1,0.90000,1.50100,0,0,180.0*
21,1,0.80100,1.60000,0,0,180.0*
1,1,0.09900,-0.40050,0.75050*
1,1,0.09900,0.40050,0.75050*
1,1,0.09900,0.40050,-0.75050*
1,1,0.09900,-0.40050,-0.75050*
%
%ADD43ROUNDEDRECTD43*%
%ADD44R,1.35000X0.95000*%
%ADD45R,0.95000X1.35000*%
%ADD46R,1.20000X1.20000*%
%ADD47R,1.00000X1.35000*%
%ADD48R,0.45000X0.45000*%
%ADD49R,0.45000X0.45000*%
%ADD50R,1.55620X1.45490*%
%ADD51R,0.45000X0.35000*%
%ADD52R,1.00000X0.55000*%
%ADD53R,1.55000X1.25000*%
%ADD54R,1.30000X0.80000*%
%ADD55R,2.60000X1.90000*%
%ADD56R,0.86107X0.39247*%
%ADD57R,1.20000X0.76000*%
%ADD58R,1.20000X0.70000*%
%ADD59R,1.00000X1.80000*%
%ADD60R,0.86602X0.23928*%
%ADD61R,1.45000X1.05000*%
%ADD62R,1.25000X2.70000*%
%ADD63R,0.55000X0.50000*%
%ADD64R,0.45493X1.50524*%
%ADD65R,3.00000X2.10000*%
%ADD66R,0.86107X0.23928*%
%TA.AperFunction,Conductor*%
%ADD67C,0.26000*%
%ADD68C,0.20000*%
%TA.AperFunction,ComponentPad*%
%ADD69C,1.00000*%
%ADD70C,1.54060*%
%ADD71R,1.54060X1.54060*%
%ADD72R,1.00000X1.00000*%
G04:AMPARAMS|DCode=73|XSize=1.1mm|YSize=1.7mm|CornerRadius=0.55mm|HoleSize=0mm|Usage=FLASHONLY|Rotation=270.000|XOffset=0mm|YOffset=0mm|HoleType=Round|Shape=RoundedRectangle|*
%AMROUNDEDRECTD73*
21,1,1.10000,0.60000,0,0,270.0*
21,1,0.00000,1.70000,0,0,270.0*
1,1,1.10000,-0.30000,0.00000*
1,1,1.10000,-0.30000,0.00000*
1,1,1.10000,0.30000,0.00000*
1,1,1.10000,0.30000,0.00000*
%
%ADD73ROUNDEDRECTD73*%
%TA.AperFunction,ViaPad*%
%ADD74C,0.60000*%
%ADD75C,0.50000*%
G36*
X4572000Y6972300D02*
Y6896100D01*
X4584700Y6883400D01*
X5016500D01*
X5041900Y6858000D01*
Y6616700D01*
X5054600Y6604000D01*
X5283200D01*
X5295900Y6591300D01*
Y6438900D01*
X5283200Y6426200D01*
X4699000D01*
X4686300Y6438900D01*
Y6578600D01*
X4699000Y6591300D01*
X4800600D01*
X4813300Y6604000D01*
Y6832600D01*
X4800600Y6845300D01*
X4495800D01*
X4445000Y6896100D01*
Y6972300D01*
X4457700Y6985000D01*
X4559300D01*
X4572000Y6972300D01*
D02*
G37*
G36*
X7146736Y7634661D02*
X7157075Y7630378D01*
X7167413Y7634661D01*
X7168200Y7636560D01*
X7188200Y7632582D01*
Y7518400D01*
X7137400Y7467600D01*
X6311900D01*
X5994400Y7150100D01*
Y7073900D01*
X5943600Y7023100D01*
X5842000D01*
X5816600Y7048500D01*
X5537200D01*
X5524500Y7061200D01*
X5461000D01*
X5448300Y7073900D01*
Y7099300D01*
X5461000Y7112000D01*
X5448300Y7124700D01*
Y7150100D01*
X5461000Y7162800D01*
X5930900D01*
X6286500Y7518400D01*
X7048500D01*
X7124700Y7594600D01*
Y7635598D01*
X7144700Y7639576D01*
X7146736Y7634661D01*
D02*
G37*
G36*
X5435600Y7543800D02*
Y7213600D01*
X5511800D01*
X5524500Y7200900D01*
Y7188200D01*
X5511800Y7175500D01*
X5448300D01*
X5435600Y7162800D01*
Y7061200D01*
X5448300Y7048500D01*
X5511800D01*
X5524500Y7035800D01*
Y6997700D01*
X5956300D01*
X5969000Y6985000D01*
Y6883400D01*
X5956300Y6870700D01*
X5486400D01*
X5448300Y6832600D01*
Y6438900D01*
X5435600Y6426200D01*
X5334000D01*
Y7340600D01*
X5308600Y7366000D01*
Y7543800D01*
X5321300Y7556500D01*
X5422900D01*
X5435600Y7543800D01*
D02*
G37*
D10*
X14868539Y8543100D02*
D03*
X15828540Y7408100D02*
D03*
X14148540Y8543100D02*
D03*
X14548540Y7408100D02*
D03*
X15428540Y8543100D02*
D03*
X15668539D02*
D03*
X14468539D02*
D03*
X14308540Y7408100D02*
D03*
X15748540D02*
D03*
X15108540D02*
D03*
X14228540Y8543100D02*
D03*
X14948540D02*
D03*
X15028540Y7408100D02*
D03*
X14228540D02*
D03*
X15748540Y8543100D02*
D03*
X14788541D02*
D03*
X14308540D02*
D03*
X15588541Y7408100D02*
D03*
X14468539D02*
D03*
X15188541Y8543100D02*
D03*
X15508540D02*
D03*
X14148540Y7408100D02*
D03*
X14788541D02*
D03*
X15668539D02*
D03*
X15028540Y8543100D02*
D03*
X14948540Y7408100D02*
D03*
X14388541D02*
D03*
X15108540Y8543100D02*
D03*
X15828540D02*
D03*
X15188541Y7408100D02*
D03*
X15588541Y8543100D02*
D03*
X14868539Y7408100D02*
D03*
X14548540Y8543100D02*
D03*
X15428540Y7408100D02*
D03*
X14388541Y8543100D02*
D03*
X14628540Y7408100D02*
D03*
X14708540D02*
D03*
X15268539D02*
D03*
X15348540D02*
D03*
X15508540D02*
D03*
X14628540Y8543100D02*
D03*
X14708540D02*
D03*
X15268539D02*
D03*
X15348540D02*
D03*
D11*
X12029925Y7950600D02*
D03*
X9904925Y8150600D02*
D03*
X12029925Y7800600D02*
D03*
X9904925Y8800600D02*
D03*
Y8300600D02*
D03*
X12029925D02*
D03*
Y7450600D02*
D03*
X9904925Y8250600D02*
D03*
X12029925Y7850600D02*
D03*
Y8800600D02*
D03*
Y8150600D02*
D03*
Y7600600D02*
D03*
X9904925Y8600600D02*
D03*
Y8100600D02*
D03*
Y7350600D02*
D03*
Y8400600D02*
D03*
X12029925Y7700600D02*
D03*
Y7500600D02*
D03*
X9904925Y7300600D02*
D03*
Y7400600D02*
D03*
Y8050600D02*
D03*
X12029925Y8200600D02*
D03*
Y7650600D02*
D03*
Y8850600D02*
D03*
Y7900600D02*
D03*
X9904925Y8350600D02*
D03*
Y8200600D02*
D03*
X12029925Y7750600D02*
D03*
Y7550600D02*
D03*
X9904925Y7650600D02*
D03*
Y8850600D02*
D03*
Y8750600D02*
D03*
Y8700600D02*
D03*
Y8650600D02*
D03*
Y8550600D02*
D03*
Y8450600D02*
D03*
Y8000600D02*
D03*
Y7950600D02*
D03*
Y7900600D02*
D03*
Y7850600D02*
D03*
Y7800600D02*
D03*
Y7750600D02*
D03*
Y7700600D02*
D03*
Y7600600D02*
D03*
Y7550600D02*
D03*
Y7500600D02*
D03*
Y7450600D02*
D03*
Y7250600D02*
D03*
Y7200600D02*
D03*
Y7150600D02*
D03*
Y7100600D02*
D03*
X12029925D02*
D03*
Y7150600D02*
D03*
Y7200600D02*
D03*
Y7250600D02*
D03*
Y7300600D02*
D03*
Y7350600D02*
D03*
Y7400600D02*
D03*
Y8000600D02*
D03*
Y8050600D02*
D03*
Y8100600D02*
D03*
Y8250600D02*
D03*
Y8350600D02*
D03*
Y8400600D02*
D03*
Y8450600D02*
D03*
Y8500600D02*
D03*
Y8550600D02*
D03*
Y8600600D02*
D03*
Y8650600D02*
D03*
Y8700600D02*
D03*
Y8750600D02*
D03*
X9904925Y8500600D02*
D03*
D12*
X11592425Y9038100D02*
D03*
X10992425Y6913100D02*
D03*
X11242425D02*
D03*
X10742425D02*
D03*
X11542425Y9038100D02*
D03*
X11292425D02*
D03*
X10792425D02*
D03*
X10142425Y6913100D02*
D03*
X11292425D02*
D03*
X10792425D02*
D03*
X11042425D02*
D03*
X11392425Y9038100D02*
D03*
X10192425Y6913100D02*
D03*
X10092425Y9038100D02*
D03*
X10842425Y6913100D02*
D03*
X11342425D02*
D03*
X11842425D02*
D03*
X10742425Y9038100D02*
D03*
X11242425D02*
D03*
X10892425Y6913100D02*
D03*
X11142425D02*
D03*
X11392425D02*
D03*
X11092425D02*
D03*
X10942425D02*
D03*
X11342425Y9038100D02*
D03*
X11192425Y6913100D02*
D03*
X10092425D02*
D03*
X10242425D02*
D03*
X10292425D02*
D03*
X10342425D02*
D03*
X10392425D02*
D03*
X10442425D02*
D03*
X10492425D02*
D03*
X10542425D02*
D03*
X10592425D02*
D03*
X10642425D02*
D03*
X10692425D02*
D03*
X11442425D02*
D03*
X11492425D02*
D03*
X11542425D02*
D03*
X11592425D02*
D03*
X11642425D02*
D03*
X11692425D02*
D03*
X11742425D02*
D03*
X11792425D02*
D03*
X11842425Y9038100D02*
D03*
X11792425D02*
D03*
X11742425D02*
D03*
X11692425D02*
D03*
X11642425D02*
D03*
X11492425D02*
D03*
X11442425D02*
D03*
X11192425D02*
D03*
X11142425D02*
D03*
X11092425D02*
D03*
X11042425D02*
D03*
X10992425D02*
D03*
X10942425D02*
D03*
X10892425D02*
D03*
X10842425D02*
D03*
X10692425D02*
D03*
X10642425D02*
D03*
X10592425D02*
D03*
X10542425D02*
D03*
X10492425D02*
D03*
X10442425D02*
D03*
X10392425D02*
D03*
X10342425D02*
D03*
X10292425D02*
D03*
X10242425D02*
D03*
X10192425D02*
D03*
X10142425D02*
D03*
D13*
X14893539Y9093200D02*
D03*
X9760200Y9601200D02*
D03*
X12115300Y6299200D02*
D03*
X15083540Y9093200D02*
D03*
X9950200Y9601200D02*
D03*
X11925300Y6299200D02*
D03*
D14*
X12700000Y9073900D02*
D03*
X8991600Y9461500D02*
D03*
X9131300Y6597400D02*
D03*
X8991600Y9271500D02*
D03*
X9131300Y6407400D02*
D03*
X12700000Y8883900D02*
D03*
D15*
X12306300Y8877300D02*
D03*
Y7550001D02*
D03*
Y8159601D02*
D03*
X9613900Y7988599D02*
D03*
X9620250Y7416561D02*
D03*
X8724900Y9455400D02*
D03*
X9194800Y7626500D02*
D03*
X8826500Y6572399D02*
D03*
X12306300Y9042699D02*
D03*
Y8324999D02*
D03*
Y7715399D02*
D03*
X8724900Y9290001D02*
D03*
X9613900Y7823200D02*
D03*
X9620250Y7581959D02*
D03*
X9194800Y7461101D02*
D03*
X8826500Y6407001D02*
D03*
D16*
X14912041Y8826500D02*
D03*
X11347599Y9309100D02*
D03*
X10852299D02*
D03*
X9785200Y9347200D02*
D03*
X15068700Y7124700D02*
D03*
X12084199Y6642100D02*
D03*
X11321901D02*
D03*
X10039201D02*
D03*
X10598001D02*
D03*
X11182201Y9309100D02*
D03*
X10686901D02*
D03*
X14903300Y7124700D02*
D03*
X11918801Y6642100D02*
D03*
X11487299D02*
D03*
X10763399D02*
D03*
X9950599Y9347200D02*
D03*
X10204600Y6642100D02*
D03*
X15077440Y8826500D02*
D03*
D17*
X11311800Y9677400D02*
D03*
X11141800D02*
D03*
D18*
X13030200Y6311600D02*
D03*
Y6591600D02*
D03*
D19*
X9652000Y7048500D02*
D03*
Y7148500D02*
D03*
D20*
X9436100Y7016600D02*
D03*
X8940800Y7601100D02*
D03*
X8890000Y7118500D02*
D03*
X8940800Y7461100D02*
D03*
X8890000Y6978500D02*
D03*
X9436100Y7156600D02*
D03*
D21*
X9232900Y8800200D02*
D03*
Y8649600D02*
D03*
Y8571600D02*
D03*
Y8878200D02*
D03*
D22*
X8356600Y9125200D02*
D03*
D23*
X8214047Y9050200D02*
D03*
X8499153Y9200200D02*
D03*
Y9100200D02*
D03*
X8499153Y9050200D02*
D03*
X8499153Y9150200D02*
D03*
X8214047Y9100200D02*
D03*
Y9150200D02*
D03*
D24*
X7113374Y8495900D02*
D03*
X6008475Y8043499D02*
D03*
Y8343500D02*
D03*
X7113374Y8195900D02*
D03*
D25*
X6402174Y8736200D02*
D03*
X6402174Y8611199D02*
D03*
D26*
X6553200Y8739100D02*
D03*
X6553199Y8609100D02*
D03*
D27*
X4663500Y9585677D02*
D03*
X4483500D02*
D03*
D28*
X4725900Y8898503D02*
D03*
X4660900D02*
D03*
X4595900Y9118600D02*
D03*
X4530900D02*
D03*
X4530900Y8898504D02*
D03*
X4595900Y8898503D02*
D03*
X4660900Y9118600D02*
D03*
D29*
X5970049Y8763700D02*
D03*
X6389474Y7656599D02*
D03*
X6173574Y7655500D02*
D03*
X5970049Y8583700D02*
D03*
X6173574Y7835500D02*
D03*
X6389474Y7836600D02*
D03*
D30*
X4573500Y9382477D02*
D03*
X4493500Y9382477D02*
D03*
X4734800Y9382477D02*
D03*
X4814800Y9382478D02*
D03*
D31*
X6261749Y8723700D02*
D03*
Y8623700D02*
D03*
D32*
X6135474Y8718700D02*
D03*
Y8628700D02*
D03*
D33*
X6846674Y8470500D02*
D03*
Y8335500D02*
D03*
D34*
X6451600Y8255000D02*
D03*
D35*
X6526600Y8112694D02*
D03*
X6526600Y8397305D02*
D03*
X6426600Y8397305D02*
D03*
X6376600Y8112694D02*
D03*
X6376600Y8397305D02*
D03*
X6476600Y8112694D02*
D03*
Y8397305D02*
D03*
X6426600Y8112694D02*
D03*
D36*
X8215347Y6159500D02*
D03*
D37*
X7832793Y5969000D02*
D03*
X8597900Y6350000D02*
D03*
Y6223000D02*
D03*
Y5969000D02*
D03*
X7832793Y6223000D02*
D03*
X8597900Y6096000D02*
D03*
X7832794D02*
D03*
D38*
X6309294Y8180000D02*
D03*
Y8280000D02*
D03*
Y8230000D02*
D03*
X6593906D02*
D03*
Y8280000D02*
D03*
Y8329999D02*
D03*
Y8180000D02*
D03*
D39*
X3576600Y8237675D02*
D03*
Y7687675D02*
D03*
D40*
X4225179Y8076726D02*
D03*
X4227139Y7861300D02*
D03*
X4102100Y8076726D02*
D03*
X4104061Y7861300D02*
D03*
D41*
X5479800Y7187000D02*
D03*
X5479800Y7037000D02*
D03*
X5289799Y7137000D02*
D03*
X5289800Y7087000D02*
D03*
X5479800D02*
D03*
X5479800Y7137000D02*
D03*
X5289800Y7037000D02*
D03*
X5289799Y7187000D02*
D03*
D42*
X5377440Y7493000D02*
D03*
X5214361Y7493000D02*
D03*
D43*
X5384800Y7112000D02*
D03*
D44*
X5892800Y6935400D02*
D03*
Y7085400D02*
D03*
D45*
X5383600Y6515100D02*
D03*
X5233600D02*
D03*
D46*
X4009800D02*
D03*
X4219800D02*
D03*
X6719674Y7645000D02*
D03*
X6723075Y7848199D02*
D03*
X6933074D02*
D03*
X6929675Y7645000D02*
D03*
D47*
X15505600Y7124700D02*
D03*
X15685600D02*
D03*
X4763600Y6515100D02*
D03*
X4583600D02*
D03*
D48*
X12649200Y8318500D02*
D03*
Y8155300D02*
D03*
Y8398500D02*
D03*
Y8075300D02*
D03*
D49*
X10793100Y9677400D02*
D03*
X10695300D02*
D03*
X10214600D02*
D03*
X10312400D02*
D03*
X10873100D02*
D03*
X10392400D02*
D03*
X10615300D02*
D03*
X10134600D02*
D03*
D50*
X9169400Y6968635D02*
D03*
Y7153765D02*
D03*
D51*
X4780800Y7493000D02*
D03*
X4845800D02*
D03*
D52*
X4508500Y6947900D02*
D03*
X4508500Y7072900D02*
D03*
D53*
X4927600Y6780900D02*
D03*
Y6985900D02*
D03*
D54*
X16967200Y7834474D02*
D03*
Y8209474D02*
D03*
Y7959474D02*
D03*
Y8084474D02*
D03*
Y7709474D02*
D03*
D55*
X8851900Y8509900D02*
D03*
Y8939900D02*
D03*
D56*
X7832794Y6350000D02*
D03*
D57*
X3576600Y8114675D02*
D03*
Y7810675D02*
D03*
D58*
Y8012675D02*
D03*
Y7912675D02*
D03*
D59*
X4305600Y8305800D02*
D03*
X4025600D02*
D03*
D60*
X6309294Y8330000D02*
D03*
D61*
X5233900Y8959777D02*
D03*
X4979900Y8959778D02*
D03*
X4979900Y9144777D02*
D03*
X5233900Y9144776D02*
D03*
D62*
X5249400Y8696677D02*
D03*
X4964400Y8696676D02*
D03*
D63*
X7157075Y7644999D02*
D03*
Y7848199D02*
D03*
X7082074Y7644999D02*
D03*
Y7848199D02*
D03*
D64*
X4725901Y9118600D02*
D03*
D65*
X17242200Y8464474D02*
D03*
Y7454474D02*
D03*
D66*
X8214047Y9200200D02*
D03*
D67*
X13576300Y7188200D02*
X13690601Y7073900D01*
X14348470D01*
X13373100Y7188200D02*
X13576300D01*
X14363699Y6400800D02*
Y7058669D01*
X14348470Y7073900D02*
X14363699Y7058669D01*
X3054300Y8674600D02*
X3682500D01*
X3683000Y8674100D01*
X16713200Y6565900D02*
X16715550Y6563550D01*
X17256950D01*
X16713200Y6438900D02*
X16714549Y6437550D01*
X17257950D01*
X16713550Y6311550D02*
X17258949D01*
X16713200Y6311900D02*
X16713550Y6311550D01*
X14566901Y5778500D02*
X14782800D01*
X15024100Y6019800D01*
X10960100Y9169400D02*
Y9372600D01*
X11049000Y9274500D02*
Y9283700D01*
X11037925Y9042600D02*
X11042425Y9038100D01*
X10992425Y9316025D02*
X11030800Y9354400D01*
X11023600Y9144000D02*
Y9249100D01*
Y9144000D02*
X11037925Y9129675D01*
X10942425Y9151725D02*
X10960100Y9169400D01*
X11037925Y9042600D02*
Y9129675D01*
X11023600Y9249100D02*
X11049000Y9274500D01*
X10992425Y9038100D02*
Y9316025D01*
X11030800Y9417900D02*
X11036300Y9423400D01*
X11030800Y9354400D02*
Y9417900D01*
X8499153Y9050200D02*
X8580300D01*
X8636000Y9105900D01*
X9182100D01*
X8968731Y8369300D02*
X9093200D01*
X8953500Y8384531D02*
Y8427900D01*
Y8384531D02*
X8968731Y8369300D01*
X9093200D02*
X9118600Y8394700D01*
X8851900Y8509900D02*
X8871500D01*
X8953500Y8427900D01*
X8851900Y8939900D02*
X8885384D01*
X8967384Y9021900D01*
Y9052569D01*
X9118600Y8915400D02*
Y9052569D01*
X8982615Y9067800D02*
X9103369D01*
X8967384Y9052569D02*
X8982615Y9067800D01*
X9103369D02*
X9118600Y9052569D01*
X8499153Y9100200D02*
X8579500D01*
X8623547Y9144247D02*
X9118847D01*
X8579500Y9100200D02*
X8623547Y9144247D01*
X9118847D02*
X9169400Y9194800D01*
X9271000Y9347200D02*
Y9550400D01*
X8991600Y9271500D02*
X9195300D01*
X10210800Y6299200D02*
Y6794500D01*
X10185400Y6273800D02*
X10731500D01*
X12446000Y9042400D02*
X12509500Y9105900D01*
X9195300Y9271500D02*
X9271000Y9347200D01*
X14289326Y7124700D02*
X14308540Y7143914D01*
X13918018Y7124700D02*
X14289326D01*
X13893800Y7148917D02*
X13918018Y7124700D01*
X13893800Y7148917D02*
Y7848600D01*
X14308540Y7143914D02*
Y7408100D01*
X14228540Y7190731D02*
Y7408100D01*
X14213309Y7175500D02*
X14228540Y7190731D01*
X13968817Y7175500D02*
X14213309D01*
X13944600Y7199717D02*
X13968817Y7175500D01*
X13944600Y7199717D02*
Y7861300D01*
X13373100Y7467600D02*
Y7696200D01*
X13493594Y9188605D02*
Y9214005D01*
Y9188605D02*
X13500101Y9182100D01*
X13411200Y9296400D02*
X13493594Y9214005D01*
X12915900Y9296400D02*
X13411200D01*
X7721600Y6578600D02*
X8666808D01*
X15828540Y8543100D02*
X15832719Y8538920D01*
Y8348080D02*
Y8538920D01*
Y8348080D02*
X15836900Y8343900D01*
X14148540Y8543100D02*
Y8709669D01*
X14133310Y8724900D02*
X14148540Y8709669D01*
X13995399Y8700665D02*
X14019635Y8724900D01*
X14133310D01*
X12029925Y7950600D02*
X12034426Y7955100D01*
X12120700D01*
X12192000Y8026400D01*
X12534900D01*
X12560300Y8001000D01*
X13893800D02*
X13995399Y8102600D01*
Y8700665D01*
X12560300Y8001000D02*
X13893800D01*
X9442500Y8150600D02*
X9904925D01*
X9407200Y8115300D02*
X9442500Y8150600D01*
X9398000Y8115300D02*
X9407200D01*
X15963901Y6763231D02*
Y7180304D01*
X15957706Y6757036D02*
X15963901Y6763231D01*
X15834090Y7310115D02*
X15963901Y7180304D01*
X15957706Y6737505D02*
Y6757036D01*
X15951199Y6731000D02*
X15957706Y6737505D01*
X15828540Y7408100D02*
X15834090Y7402551D01*
Y7310115D02*
Y7402551D01*
X15417799Y6553200D02*
X15862300D01*
X15166331Y6451600D02*
X15316200D01*
X15417799Y6553200D01*
X15151100Y6436369D02*
X15166331Y6451600D01*
X15151100Y6286500D02*
Y6436369D01*
X15024100Y6159500D02*
X15151100Y6286500D01*
X15024100Y6019800D02*
Y6159500D01*
X12915900Y9118600D02*
X14554201D01*
X14693900Y8714731D02*
Y8978900D01*
X14554201Y9118600D02*
X14693900Y8978900D01*
Y8714731D02*
X14709131Y8699500D01*
X14808200D01*
X11712159Y9235659D02*
X11785600Y9309100D01*
X11592425Y9038100D02*
Y9141325D01*
X11686759Y9235659D01*
X11712159D01*
X14868539Y8543100D02*
Y8639160D01*
X14808200Y8699500D02*
X14868539Y8639160D01*
X12484100Y7886700D02*
X13855701D01*
X13893800Y7848600D01*
X12458700Y7912100D02*
X12484100Y7886700D01*
X12034426Y7805100D02*
X12123100D01*
X12029925Y7800600D02*
X12034426Y7805100D01*
X12230100Y7912100D02*
X12458700D01*
X12123100Y7805100D02*
X12230100Y7912100D01*
X12270731Y7251700D02*
X13592500D01*
X12255500Y7236469D02*
X12270731Y7251700D01*
X12255500Y6819900D02*
Y7236469D01*
X13592500Y7251700D02*
X13605200Y7239000D01*
X13614400D01*
X10236200Y8490431D02*
Y8623300D01*
X10058900Y8800600D02*
X10236200Y8623300D01*
X10261600Y8458200D02*
Y8465031D01*
X10236200Y8490431D02*
X10261600Y8465031D01*
X9904925Y8800600D02*
X10058900D01*
X13614400Y8077200D02*
X13792200Y8255000D01*
X13826605Y8928100D02*
X14452600D01*
X14468539Y8912160D01*
X13792200Y8893695D02*
X13826605Y8928100D01*
X14468539Y8543100D02*
Y8912160D01*
X13792200Y8255000D02*
Y8893695D01*
X15670171Y8396330D02*
Y8541470D01*
Y8396330D02*
X15671800Y8394700D01*
X15668539Y8543100D02*
X15670171Y8541470D01*
X10068094Y8286905D02*
X10089995D01*
X10054399Y8300600D02*
X10068094Y8286905D01*
X9904925Y8300600D02*
X10054399D01*
X10089995Y8286905D02*
X10096500Y8280400D01*
X15429520Y8370280D02*
X15430499Y8369300D01*
X15429520Y8370280D02*
Y8542120D01*
X15428540Y8543100D02*
X15429520Y8542120D01*
X12153900Y8331200D02*
Y8382000D01*
X12123300Y8300600D02*
X12153900Y8331200D01*
X12029925Y8300600D02*
X12123300D01*
X14198599Y5816600D02*
X14548540Y6166540D01*
Y7408100D01*
X11163300Y5816600D02*
X14198599D01*
X10972800Y6007100D02*
Y6769100D01*
Y6007100D02*
X11163300Y5816600D01*
X10992425Y6788725D02*
Y6913100D01*
X10972800Y6769100D02*
X10992425Y6788725D01*
X13830299Y7327900D02*
Y7823200D01*
X13893800Y8089900D02*
X13944600Y8140700D01*
Y8751465D01*
X13968835Y8775700D01*
X14213309D01*
X14228540Y8760469D01*
Y8543100D02*
Y8760469D01*
X12029925Y7450600D02*
X12034426Y7446100D01*
X12099200D01*
X12242800Y7302500D02*
X13804900D01*
X12099200Y7446100D02*
X12242800Y7302500D01*
X13804900D02*
X13830299Y7327900D01*
X15108540Y7294260D02*
Y7408100D01*
X11242425Y6772025D02*
Y6913100D01*
X11226800Y6756400D02*
X11242425Y6772025D01*
X11226800Y6134100D02*
Y6756400D01*
Y6134100D02*
X11290300Y6070600D01*
X14566901Y6096000D02*
X14719299D01*
X14732001Y6108700D01*
Y6832600D01*
X11290300Y6070600D02*
X14071600D01*
X14147800Y6146800D01*
X14732001Y6832600D02*
X14770100Y6870700D01*
X15224770Y7226300D02*
X15239999Y7211069D01*
X15201900Y6870700D02*
X15239999Y6908800D01*
X15108540Y7294260D02*
X15176500Y7226300D01*
X14770100Y6870700D02*
X15201900D01*
X15176500Y7226300D02*
X15224770D01*
X15239999Y6908800D02*
Y7211069D01*
X10505431Y6007100D02*
X10845800D01*
X10439400Y6073131D02*
Y6210300D01*
Y6073131D02*
X10505431Y6007100D01*
X14439900Y5880100D02*
X14516100D01*
X10439400Y6337300D02*
Y6781800D01*
X10464800Y6807200D01*
X10718800D01*
X10737925Y6826325D01*
Y6908600D02*
X10742425Y6913100D01*
X10737925Y6826325D02*
Y6908600D01*
X14516100Y5880100D02*
X14528799Y5892800D01*
X14744701D01*
X14922501Y6070600D01*
Y6197600D01*
X15754089Y7334511D02*
Y7402551D01*
X15748540Y7408100D02*
X15754089Y7402551D01*
Y7334511D02*
X15913100Y7175500D01*
X15265401Y6553200D02*
X15468600Y6756400D01*
X14922501Y6197600D02*
X15049500Y6324600D01*
X15064731Y6553200D02*
X15265401D01*
X15049500Y6537969D02*
X15064731Y6553200D01*
X15049500Y6324600D02*
Y6537969D01*
X15468600Y6756400D02*
X15897868D01*
X15913100Y6771631D02*
Y7175500D01*
X15897868Y6756400D02*
X15913100Y6771631D01*
X13398500Y9055100D02*
X14541499D01*
X14617700Y8686800D02*
Y8978900D01*
X14541499Y9055100D02*
X14617700Y8978900D01*
Y8686800D02*
X14643100Y8661400D01*
X14770100D01*
X12915900Y9207500D02*
X12925101D01*
X12950500Y9182100D01*
X13398500D01*
X11785600Y9423400D02*
X11823700D01*
X11842595Y9379105D02*
X11849100Y9372600D01*
X11645900Y9283700D02*
X11785600Y9423400D01*
X11842595Y9379105D02*
Y9404505D01*
X11823700Y9423400D02*
X11842595Y9404505D01*
X11542425Y9142125D02*
X11645900Y9245600D01*
Y9283700D01*
X11542425Y9038100D02*
Y9142125D01*
X14788541Y8543100D02*
Y8642960D01*
X14770100Y8661400D02*
X14788541Y8642960D01*
X15748270Y8542830D02*
X15748540Y8543100D01*
X15748270Y8344170D02*
Y8542830D01*
X15748000Y8343900D02*
X15748270Y8344170D01*
X9904925Y8250600D02*
X9909425Y8246100D01*
X9994600D01*
X10011100Y8229600D02*
X10020300D01*
X9994600Y8246100D02*
X10011100Y8229600D01*
X13881100Y7924800D02*
X13944600Y7861300D01*
X12484100Y7950200D02*
X12509500Y7924800D01*
X13881100D01*
X12034426Y7855100D02*
X12122300D01*
X12029925Y7850600D02*
X12034426Y7855100D01*
X12217400Y7950200D02*
X12484100D01*
X12122300Y7855100D02*
X12217400Y7950200D01*
X14719299Y9093200D02*
X14893539D01*
X12700000Y9073900D02*
Y9271000D01*
X14884399Y8966200D02*
X14912041Y8938559D01*
X14884399Y8966200D02*
Y9084060D01*
X14912041Y8826500D02*
Y8938559D01*
X11468100Y9436100D02*
X11486995Y9417205D01*
Y9302905D02*
Y9417205D01*
X11311800Y9677400D02*
X11451500D01*
X11362830Y9436100D02*
X11468100D01*
X12217400Y8877300D02*
X12496800D01*
X11486995Y9302905D02*
X11493500Y9296400D01*
X12140700Y8800600D02*
X12217400Y8877300D01*
X14948540Y8543100D02*
Y8648060D01*
X14912041Y8684559D02*
Y8826500D01*
Y8684559D02*
X14948540Y8648060D01*
X12312501Y7543800D02*
X12496800D01*
X12312799Y8166100D02*
X12471400D01*
X12306300Y7550001D02*
X12312501Y7543800D01*
X12306300Y8159601D02*
X12312799Y8166100D01*
X12297299Y8150600D02*
X12306300Y8159601D01*
X12029925Y8150600D02*
X12297299D01*
X12029925Y8800600D02*
X12140700D01*
X12185799Y7550001D02*
X12306300D01*
X12029925Y7600600D02*
X12135200D01*
X12185799Y7550001D01*
X11347599Y9420869D02*
X11362830Y9436100D01*
X11347599Y9309100D02*
Y9420869D01*
X10852299Y9309100D02*
Y9429899D01*
X11347599Y9188599D02*
Y9309100D01*
X11292425Y9133425D02*
X11347599Y9188599D01*
X11292425Y9038100D02*
Y9133425D01*
X10852299Y9201299D02*
Y9309100D01*
X10792425Y9141425D02*
X10852299Y9201299D01*
X10792425Y9038100D02*
Y9141425D01*
X9766300Y9607300D02*
Y9804400D01*
X9760200Y9601200D02*
X9766300Y9607300D01*
X9760200Y9601200D02*
X9785200Y9576200D01*
X10782300Y9436100D02*
X10788805Y9442605D01*
X10788501Y9429899D02*
X10852299D01*
X10782300Y9436100D02*
X10788501Y9429899D01*
X9785200Y9347200D02*
Y9576200D01*
X9778200Y8600600D02*
X9904925D01*
X9740900Y8572500D02*
X9750100D01*
X9764300Y8100600D02*
X9904925D01*
X9750100Y8572500D02*
X9778200Y8600600D01*
X9740900Y8077200D02*
X9764300Y8100600D01*
X9740900Y8051800D02*
Y8077200D01*
X9722606Y8033506D02*
X9740900Y8051800D01*
X9651507Y8033506D02*
X9722606D01*
X9613900Y7995899D02*
X9651507Y8033506D01*
X9232450Y8800650D02*
X9232900Y8800200D01*
X9461500Y8013700D02*
X9588799D01*
X9613900Y7988599D01*
X9620250Y7423150D02*
X9709150D01*
X15068700Y7124700D02*
Y7245201D01*
Y7124700D02*
X15074899Y7118499D01*
X15028540Y7285360D02*
Y7408100D01*
Y7285360D02*
X15068700Y7245201D01*
X15074899Y6946900D02*
Y7118499D01*
X12084199Y6642100D02*
X12306300D01*
X13882567Y6581152D02*
X14069048D01*
X14071600Y6578600D01*
X13880016Y6583703D02*
X13882567Y6581152D01*
X17256950Y6563550D02*
X17259300Y6561200D01*
X17257950Y6437550D02*
X17259300Y6436200D01*
X17258949Y6311550D02*
X17259300Y6311200D01*
X13030499Y6311900D02*
X13195300D01*
X13030200Y6311600D02*
X13030499Y6311900D01*
X12115300Y6299200D02*
X12319000D01*
X10787925Y6908600D02*
X10792425Y6913100D01*
X9781700Y7350600D02*
X9904925D01*
X9709150Y7423150D02*
X9781700Y7350600D01*
X11292425Y6805075D02*
Y6913100D01*
X10787925Y6825525D02*
Y6908600D01*
X10137925Y6823225D02*
Y6908600D01*
X10731500Y6769100D02*
X10787925Y6825525D01*
X9613900Y7416800D02*
X9620250Y7423150D01*
X9563100Y7048500D02*
X9652000D01*
X9448800Y7416800D02*
X9613900D01*
X9436100Y7016600D02*
X9531200D01*
X9563100Y7048500D01*
X9436100Y6883400D02*
Y7016600D01*
X11315700Y6648301D02*
Y6781800D01*
X11292425Y6805075D02*
X11315700Y6781800D01*
Y6648301D02*
X11321901Y6642100D01*
X10613232Y6769100D02*
X10731500D01*
X10598001Y6753869D02*
X10613232Y6769100D01*
X10598001Y6642100D02*
Y6753869D01*
X11315700Y6451600D02*
Y6635899D01*
X11321901Y6642100D01*
X10591800Y6451600D02*
Y6635899D01*
X10598001Y6642100D01*
X10039201Y6724501D02*
X10137925Y6823225D01*
X10039201Y6642100D02*
Y6724501D01*
X10033000Y6635899D02*
X10039201Y6642100D01*
X10033000Y6451600D02*
Y6635899D01*
X8991600Y9461500D02*
X9182100D01*
X8985500Y9455400D02*
X8991600Y9461500D01*
X8579100Y9455400D02*
X8724900D01*
X8985500D01*
X8547100Y9337031D02*
Y9423400D01*
X8579100Y9455400D01*
X8531869Y9321800D02*
X8547100Y9337031D01*
X8115300Y9321800D02*
X8531869D01*
X8089900Y9067800D02*
Y9296400D01*
X8115300Y9321800D01*
X8356600Y9115200D02*
Y9125200D01*
X8291600Y9050200D02*
X8356600Y9115200D01*
X8214047Y9050200D02*
X8291600D01*
X8107500D02*
X8214047D01*
X8089900Y9067800D02*
X8107500Y9050200D01*
X9232450Y8649150D02*
X9232900Y8649600D01*
X9144450Y8800650D02*
X9232450D01*
X9144450Y8649150D02*
X9232450D01*
X9144000Y8801100D02*
X9144450Y8800650D01*
X9144000Y8648700D02*
X9144450Y8649150D01*
X7113374Y8495900D02*
X7113775Y8496300D01*
X7315200D01*
X6550300Y8736200D02*
X6553200Y8739100D01*
X6402174Y8736200D02*
X6550300D01*
X6335900D02*
X6402174D01*
X6323400Y8723700D02*
X6335900Y8736200D01*
X6261749Y8723700D02*
X6323400D01*
X6971900Y8495900D02*
X7113374D01*
X6946500Y8470500D02*
X6971900Y8495900D01*
X6846674Y8470500D02*
X6946500D01*
X4662200Y9586977D02*
X4663500Y9585677D01*
X4660900Y9583077D02*
X4663500Y9585677D01*
X4662200Y9586977D02*
Y9739600D01*
X4660900Y9740900D02*
X4662200Y9739600D01*
X4660900Y9502131D02*
Y9583077D01*
X4725150Y8897754D02*
X4725900Y8898503D01*
X4660900Y8778231D02*
Y8898503D01*
X4725150Y8763000D02*
Y8897754D01*
X4645669Y9486900D02*
X4660900Y9502131D01*
X4622800Y9486900D02*
X4645669D01*
X4573500Y9382477D02*
Y9437600D01*
X4622800Y9486900D01*
X4572000Y9380977D02*
X4573500Y9382477D01*
X4595900Y9118600D02*
Y9272500D01*
X4572000Y9296400D02*
Y9380977D01*
Y9296400D02*
X4595900Y9272500D01*
X5996149Y8737600D02*
X6057900D01*
X5970049Y8763700D02*
X5996149Y8737600D01*
X6137974Y8721200D02*
X6259249D01*
X5969348Y8763000D02*
X5970049Y8763700D01*
X5778500Y8763000D02*
X5969348D01*
X6259249Y8721200D02*
X6261749Y8723700D01*
X6135474Y8718700D02*
X6137974Y8721200D01*
X6057900Y8737600D02*
X6076800Y8718700D01*
X6135474D01*
X4724400Y8712200D02*
X4725150Y8712950D01*
X4676131Y8763000D02*
X4725150D01*
X4660900Y8778231D02*
X4676131Y8763000D01*
X4725150Y8712950D02*
Y8763000D01*
X3053800Y8675100D02*
X3054300Y8674600D01*
X6588294Y7982105D02*
X6635595D01*
X6569400Y8001000D02*
X6588294Y7982105D01*
X6635595D02*
X6642100Y7975600D01*
X9169401Y7601100D02*
X9194800Y7626500D01*
X8788400Y7607300D02*
X8934600D01*
X6451600Y8255000D02*
X6522600Y8184000D01*
Y8145959D02*
Y8184000D01*
X6380600D02*
X6451600Y8255000D01*
X6342559Y8184000D02*
X6380600D01*
X6526600Y8040300D02*
X6565900Y8001000D01*
X6526600Y8040300D02*
Y8112694D01*
X6565900Y8001000D02*
X6569400D01*
X6522600Y8145959D02*
X6526600Y8141959D01*
Y8112694D02*
Y8141959D01*
X8940800Y7601100D02*
X9169401D01*
X8934600Y7607300D02*
X8940800Y7601100D01*
X8883800Y7124700D02*
X8890000Y7118500D01*
X9131300Y6597400D02*
X9137400Y6591300D01*
X9334500D01*
X8826500Y6572399D02*
X8851501Y6597400D01*
X9131300D01*
X8724900Y7124700D02*
X8883800D01*
X8215347Y6131000D02*
Y6159500D01*
X7696200Y5969000D02*
X7832793D01*
X7832793Y5969000D01*
X8053347D02*
X8215347Y6131000D01*
X7832793Y5969000D02*
X8053347D01*
X6338559Y8180000D02*
X6342559Y8184000D01*
X6309294Y8180000D02*
X6338559D01*
X6172200Y8128000D02*
X6224200Y8180000D01*
X6309294D01*
X6172200Y8058730D02*
Y8128000D01*
X6156969Y8043499D02*
X6172200Y8058730D01*
X6008475Y8043499D02*
X6156969D01*
X6007100Y8042125D02*
X6008475Y8043499D01*
X3707274Y8237675D02*
X3750000Y8280400D01*
X3759200D01*
X3576600Y8237675D02*
X3707274D01*
X4225653Y8077200D02*
X4368800D01*
X4225179Y8076726D02*
X4225653Y8077200D01*
X6007100Y7899400D02*
Y8042125D01*
X4227139Y7861300D02*
X4368800D01*
X3576600Y7687675D02*
X3691525D01*
X3759200Y7620000D01*
X4013200Y6375400D02*
Y6511700D01*
X4009800Y6515100D02*
X4013200Y6511700D01*
X15505600Y7124700D02*
X15508540Y7127640D01*
Y7408100D01*
X15506700Y8318500D02*
X15507620Y8319420D01*
Y8542180D01*
X15508540Y8543100D01*
X10011100Y8432800D02*
X10020300D01*
X9983400Y8405100D02*
X10011100Y8432800D01*
X9904925Y8400600D02*
X9909425Y8405100D01*
X9983400D01*
X12433300Y7835900D02*
X12458700Y7810500D01*
X12255500Y7835900D02*
X12433300D01*
X12124700Y7705100D02*
X12255500Y7835900D01*
X12029925Y7700600D02*
X12034426Y7705100D01*
X12124700D01*
X15188541Y8543100D02*
Y8635340D01*
X15214600Y8661400D01*
X15339069D01*
X15354300Y8676631D01*
Y8864600D01*
X12458700Y7810500D02*
X12687300D01*
X12738100Y7759700D02*
X13550900D01*
X12687300Y7810500D02*
X12738100Y7759700D01*
X14490700Y6184900D02*
Y7338369D01*
X14468539Y7360529D02*
X14490700Y7338369D01*
X14468539Y7360529D02*
Y7408100D01*
X14173199Y5867400D02*
X14490700Y6184900D01*
X11188700Y5867400D02*
X14173199D01*
X11023600Y6032500D02*
X11188700Y5867400D01*
X11023600Y6032500D02*
Y6769100D01*
X11042425Y6787925D02*
Y6913100D01*
X11023600Y6769100D02*
X11042425Y6787925D01*
X11392425Y9038100D02*
X11396925Y9042600D01*
Y9123625D02*
X11417300Y9144000D01*
X11396925Y9042600D02*
Y9123625D01*
X11417300Y9144000D02*
X11493500D01*
X11607800Y9258300D01*
Y9309100D01*
X11785600Y9486900D01*
X11861664D02*
X11912552Y9436012D01*
X11785600Y9486900D02*
X11861664D01*
X15001231Y6616700D02*
X15252699D01*
X15455901Y6819900D01*
X15798801D01*
Y6896100D01*
X15588541Y7266931D02*
X15603770Y7251700D01*
X15588541Y7266931D02*
Y7408100D01*
X15798801Y7023100D02*
X15804012Y7028311D01*
X15811501D01*
X15603770Y7251700D02*
X15709900D01*
X15811501Y7028311D02*
Y7150100D01*
X15709900Y7251700D02*
X15811501Y7150100D01*
X14986000Y6400800D02*
Y6601469D01*
X15001231Y6616700D01*
X13766800Y7368531D02*
Y7759700D01*
X13792200Y8077200D02*
X13893800Y8178800D01*
Y8802265D01*
X13918034Y8826500D01*
X14293309D01*
X14308540Y8543100D02*
Y8811269D01*
X14293309Y8826500D02*
X14308540Y8811269D01*
X12029925Y7500600D02*
X12034426Y7496100D01*
X12112700D01*
X12255500Y7353300D01*
X13751569D02*
X13766800Y7368531D01*
X12255500Y7353300D02*
X13751569D01*
X8102600Y8928100D02*
X8509000D01*
X8572500Y7823200D02*
X9448800D01*
X8509000Y8928100D02*
X8572500Y8864600D01*
Y7823200D02*
Y8864600D01*
Y7461100D02*
Y7823200D01*
X15684500Y6692900D02*
X15900400D01*
X16027400Y6565900D01*
X16306799D01*
X16687801Y6184900D01*
X16916400D01*
X15083540Y9093200D02*
Y9554460D01*
X15100301Y8966200D02*
Y9076440D01*
X14846300Y9791700D02*
X15083540Y9554460D01*
X12509500Y9105900D02*
Y9652000D01*
X15077440Y8943340D02*
X15100301Y8966200D01*
X15062199Y8811260D02*
X15077440Y8826500D01*
Y8943340D01*
X15062199Y8674100D02*
Y8811260D01*
X12369800Y9791700D02*
X14846300D01*
X12369800D02*
X12509500Y9652000D01*
X12306599Y9042400D02*
X12446000D01*
X12192299Y9042699D02*
X12306300D01*
X10919469Y9791700D02*
X12369800D01*
X12306300Y9042699D02*
X12306599Y9042400D01*
X12500300Y9004300D02*
X12509500D01*
X12446000Y9042400D02*
X12462200D01*
X12500300Y9004300D01*
X15028540Y8543100D02*
Y8640440D01*
X15062199Y8674100D01*
X12725400Y8318500D02*
X12744295Y8299605D01*
X12649200Y8318500D02*
X12725400D01*
X12744295Y8248805D02*
Y8299605D01*
X12750800Y8168631D02*
Y8242300D01*
X12735569Y8153400D02*
X12750800Y8168631D01*
X12744295Y8248805D02*
X12750800Y8242300D01*
X12649200Y8155300D02*
X12651100Y8153400D01*
X12735569D01*
X12306300Y8324999D02*
X12312799Y8318500D01*
X12194531Y8324999D02*
X12306300D01*
X12312799Y8318500D02*
X12471400D01*
X10896600Y9855200D02*
X10919469Y9832331D01*
X10807700Y9855200D02*
X10896600D01*
X10919469Y9791700D02*
Y9832331D01*
X10777869Y9791700D02*
Y9825369D01*
X10807700Y9855200D01*
X10777869Y9791700D02*
X10793100Y9776469D01*
X10934700Y9550400D02*
X11061700D01*
X10874375Y9490075D02*
X10934700Y9550400D01*
X11061700D02*
X11182201Y9429899D01*
X10919469Y9791700D02*
X10934700Y9776469D01*
X10793100Y9677400D02*
Y9776469D01*
X10934700Y9550400D02*
Y9776469D01*
X10680069Y9791700D02*
X10777869D01*
X10680069D02*
X10695300Y9776469D01*
Y9677400D02*
Y9776469D01*
X10312400Y9791700D02*
X10680069D01*
X10312400Y9791700D02*
X10312400Y9791700D01*
X10312400Y9677400D02*
Y9791700D01*
X10702131Y9490075D02*
X10874375D01*
X10686901Y9474844D02*
X10702131Y9490075D01*
X10686901Y9309100D02*
Y9474844D01*
X12153900Y8877300D02*
Y9004300D01*
X12192299Y9042699D01*
X12127200Y8850600D02*
X12153900Y8877300D01*
X11279531Y9171331D02*
Y9219070D01*
X11242425Y9038100D02*
Y9134225D01*
X12029925Y8850600D02*
X12127200D01*
X12179300Y8229600D02*
Y8309768D01*
X12194531Y8324999D01*
X12150300Y8200600D02*
X12179300Y8229600D01*
X12029925Y8200600D02*
X12150300D01*
X11182201Y9309100D02*
X11189501D01*
X11279531Y9219070D01*
X11182201Y9309100D02*
Y9429899D01*
X10686901Y9201299D02*
Y9309100D01*
X11242425Y9134225D02*
X11279531Y9171331D01*
X10686901Y9201299D02*
X10742425Y9145775D01*
Y9038100D02*
Y9145775D01*
X14922501Y7264400D02*
X14948540Y7290440D01*
X15684500Y7123600D02*
X15685600Y7124700D01*
X14948540Y7290440D02*
Y7408100D01*
X14922501Y7143899D02*
Y7264400D01*
X14909801Y7131199D02*
X14922501Y7143899D01*
X15684500Y6972300D02*
Y7123600D01*
X14909801Y6934200D02*
Y7131199D01*
X12312501Y7721600D02*
X12496800D01*
X12306300Y7715399D02*
X12312501Y7721600D01*
X12133700Y7650600D02*
X12198499Y7715399D01*
X12306300D01*
X12029925Y7650600D02*
X12133700D01*
X11842425Y6813875D02*
X11918801Y6737499D01*
X11842425Y6813875D02*
Y6913100D01*
X11472068Y6743700D02*
X11487299Y6728469D01*
X11918801Y6642100D02*
Y6737499D01*
X11912600Y6635899D02*
X11918801Y6642100D01*
X11487299D02*
Y6728469D01*
X11468100Y6622901D02*
X11487299Y6642100D01*
X11342425Y6805875D02*
Y6913100D01*
X10840286Y6827086D02*
Y6910960D01*
X10842425Y6913100D01*
X10763399Y6750199D02*
X10840286Y6827086D01*
X11404600Y6743700D02*
X11472068D01*
X11342425Y6805875D02*
X11404600Y6743700D01*
X10763399Y6642100D02*
Y6750199D01*
Y6394599D02*
Y6642100D01*
X11912600Y6477000D02*
Y6635899D01*
X11468100Y6289031D02*
Y6622901D01*
X10731500Y6273800D02*
X10795000D01*
X10718800Y6286500D02*
Y6350000D01*
X10763399Y6394599D01*
X10718800Y6286500D02*
X10731500Y6273800D01*
X11452869D02*
X11468100Y6289031D01*
X11290300Y6273800D02*
X11452869D01*
X11518900D01*
X10214600Y9677400D02*
Y9787900D01*
X10210800Y9791700D02*
X10312400D01*
X9956300D02*
X10210800D01*
X9950200Y9785600D02*
X9956300Y9791700D01*
X10210800D02*
X10214600Y9787900D01*
X9950599Y9347200D02*
Y9600801D01*
X9944100Y9340701D02*
X9950599Y9347200D01*
X9950200Y9601200D02*
X9950599Y9600801D01*
X9950200Y9601200D02*
Y9785600D01*
X9944100Y9220200D02*
Y9340701D01*
X9537700Y9880600D02*
X9855200D01*
X9283700Y9626600D02*
X9537700Y9880600D01*
X9855200D02*
X9950200Y9785600D01*
X9194800Y9626600D02*
X9271000Y9550400D01*
X8580162Y9626600D02*
X9194800D01*
X9283700D01*
X10092425Y9038100D02*
Y9135375D01*
X10058400Y9169400D02*
X10092425Y9135375D01*
X9994900Y9169400D02*
X10058400D01*
X9944100Y9220200D02*
X9994900Y9169400D01*
X9803200Y8050600D02*
X9904925D01*
X9766300Y8013700D02*
X9803200Y8050600D01*
X9763769Y7581900D02*
X9779000Y7566669D01*
X9766300Y7886700D02*
Y8013700D01*
X9702800Y7823200D02*
X9766300Y7886700D01*
X9626898Y7581900D02*
X9763769D01*
X9448800Y7823200D02*
X9613900D01*
X9702800D01*
X8973098Y9290001D02*
X8991600Y9271500D01*
X8724900Y9290001D02*
X8973098D01*
X9623545Y7585254D02*
X9626898Y7581900D01*
X9486841Y7581959D02*
X9620250D01*
X9448800Y7620000D02*
Y7823200D01*
Y7620000D02*
X9486841Y7581959D01*
X8470900Y9413231D02*
Y9517338D01*
X8580162Y9626600D01*
X8455669Y9398000D02*
X8470900Y9413231D01*
X5321300Y9626600D02*
X5448300Y9499600D01*
X4914900Y9626600D02*
X5321300D01*
X8077200Y9398000D02*
X8455669D01*
X8625831Y9290001D02*
X8724900D01*
X8610600Y9274771D02*
X8625831Y9290001D01*
X8610600Y9232900D02*
Y9274771D01*
X8027931Y9348731D02*
X8077200Y9398000D01*
X5448300Y8801100D02*
Y9499600D01*
X8027931Y9002769D02*
Y9348731D01*
X4572000Y9817100D02*
X4724400D01*
X4483500Y9728600D02*
X4572000Y9817100D01*
X4724400D02*
X4914900Y9626600D01*
X4483500Y9585677D02*
Y9728600D01*
X4488500Y9387477D02*
Y9580677D01*
X4493500Y9286000D02*
X4530900Y9248600D01*
Y9118600D02*
Y9248600D01*
X4488500Y9387477D02*
X4493500Y9382477D01*
Y9286000D02*
Y9382477D01*
X8577900Y9200200D02*
X8610600Y9232900D01*
X8499153Y9200200D02*
X8577900D01*
X8027931Y9002769D02*
X8102600Y8928100D01*
X6389474Y7571731D02*
Y7656599D01*
X6173574Y7557874D02*
Y7655500D01*
X6172200Y7556500D02*
X6374244D01*
X6029969Y7670800D02*
X6045200Y7655569D01*
X4533900Y7670800D02*
X6029969D01*
X6045200Y7571731D02*
Y7655569D01*
X4495800Y7632700D02*
X4533900Y7670800D01*
X9807900Y7400600D02*
X9904925D01*
X9779000Y7429500D02*
Y7566669D01*
Y7429500D02*
X9807900Y7400600D01*
X9753600Y7264400D02*
X9789800Y7300600D01*
X9904925D01*
X9372600Y7289800D02*
X9398000Y7264400D01*
X9372600Y7289800D02*
Y7439669D01*
X9398000Y7264400D02*
X9753600D01*
X9201001Y7454900D02*
X9357369D01*
X9372600Y7439669D01*
X9194800Y7461101D02*
X9201001Y7454900D01*
X8572500Y7461100D02*
X8940800D01*
X9194799D01*
X8890000Y6978500D02*
X9159535D01*
X8572500D02*
X8890000D01*
X10192425Y6812875D02*
X10210800Y6794500D01*
X10192425Y6812875D02*
Y6913100D01*
X9791700Y6769100D02*
X9842500Y6718300D01*
X9423400Y6515100D02*
Y6753869D01*
X10185400Y6273800D02*
X10210800Y6299200D01*
X9842500D02*
X9867900Y6273800D01*
X9842500Y6299200D02*
Y6718300D01*
X9867900Y6273800D02*
X10185400D01*
X9315700Y6407400D02*
X9423400Y6515100D01*
X8623300Y6769100D02*
X9791700D01*
X9131300Y6407400D02*
X9315700D01*
X9159535Y6978500D02*
X9169400Y6968635D01*
X8826899Y6407400D02*
X9131300D01*
X8731101Y6407001D02*
X8826500D01*
X8826899Y6407400D01*
X8674100Y6350000D02*
X8731101Y6407001D01*
X8597900Y6350000D02*
X8674100D01*
X6374244Y7556500D02*
X6389474Y7571731D01*
X6172200Y7556500D02*
X6173574Y7557874D01*
X6060431Y7556500D02*
X6172200D01*
X6045200Y7571731D02*
X6060431Y7556500D01*
X4780800Y7493000D02*
X4780800Y7493000D01*
X8572500Y7381231D02*
Y7461100D01*
X8557269Y7366000D02*
X8572500Y7381231D01*
X4521200Y7493000D02*
X4686300D01*
X4780800D01*
X4495800Y7518400D02*
Y7632700D01*
Y7518400D02*
X4521200Y7493000D01*
X6311900Y7366000D02*
X8557269D01*
X8572500Y7350769D01*
X5162705Y7181695D02*
X5207400Y7137000D01*
X5289799D01*
X8572500Y6819900D02*
X8623300Y6769100D01*
X8572500Y6819900D02*
Y6978500D01*
Y7350769D01*
X5127300Y6515100D02*
X5233600D01*
X5105400Y7188200D02*
X5111905Y7181695D01*
X5162705D01*
X5114600Y6502400D02*
X5127300Y6515100D01*
X5105400Y6502400D02*
X5114600D01*
X16917050Y6185550D02*
X17258650D01*
X15722600Y7302500D02*
X15862300Y7162800D01*
X15683771Y7302500D02*
X15722600D01*
X15668539Y7317731D02*
X15683771Y7302500D01*
X15668539Y7317731D02*
Y7408100D01*
X14922501Y6664969D02*
X14937730Y6680200D01*
X14922501Y6311900D02*
Y6664969D01*
X14278300Y6273800D02*
X14287500D01*
X14252901Y6248400D02*
X14278300Y6273800D01*
X14236700Y6248400D02*
X14252901D01*
X14198599Y6210300D02*
X14236700Y6248400D01*
X14109700Y6210300D02*
X14198599D01*
X14097000Y6197600D02*
X14109700Y6210300D01*
X13995399Y6197600D02*
X14097000D01*
X13970000Y6172200D02*
X13995399Y6197600D01*
X11680500Y6172200D02*
X13970000D01*
X11655100Y6197600D02*
X11680500Y6172200D01*
X11645900Y6197600D02*
X11655100D01*
X10858500D02*
Y6756400D01*
X10892425Y6790325D01*
Y6913100D01*
X15862300Y6985000D02*
Y7162800D01*
X15836900Y6959600D02*
X15862300Y6985000D01*
X15760699Y6959600D02*
X15836900D01*
X14937730Y6680200D02*
X15239999D01*
X15443201Y6883400D01*
X15684500D01*
X15760699Y6959600D01*
X14359959Y6210059D02*
X14376401Y6226500D01*
Y6235700D01*
X14359959Y6206560D02*
Y6210059D01*
X14122400Y5969000D02*
X14359959Y6206560D01*
X11239500Y5969000D02*
X14122400D01*
X14605000Y6223000D02*
Y7251700D01*
X14617700Y7264400D01*
X14744701D01*
X11125200Y6083300D02*
X11239500Y5969000D01*
X11125200Y6756400D02*
X11142425Y6773625D01*
Y6913100D01*
X11125200Y6083300D02*
Y6756400D01*
X14788541Y7308240D02*
Y7408100D01*
X14744701Y7264400D02*
X14788541Y7308240D01*
X12522200Y7962900D02*
X13893800D01*
X13995399Y7250517D02*
Y7861300D01*
X12496800Y7988300D02*
X12522200Y7962900D01*
X13893800D02*
X13995399Y7861300D01*
X12121500Y7905100D02*
X12204700Y7988300D01*
X12496800D01*
X13995399Y7250517D02*
X14019617Y7226300D01*
X14133310D01*
X14148540Y7241531D01*
Y7408100D01*
X12029925Y7900600D02*
X12034426Y7905100D01*
X12121500D01*
X15585719Y8384820D02*
Y8540280D01*
X15582899Y8382000D02*
X15585719Y8384820D01*
Y8540280D02*
X15588541Y8543100D01*
X10055400Y8353600D02*
X10058400Y8356600D01*
X9907925Y8353600D02*
X10055400D01*
X9904925Y8350600D02*
X9907925Y8353600D01*
X15188541Y7305031D02*
X15203770Y7289800D01*
X15188541Y7305031D02*
Y7408100D01*
X11605269Y6794500D02*
X11620500Y6779269D01*
X11417300Y6794500D02*
X11605269D01*
X11392425Y6819375D02*
X11417300Y6794500D01*
X11392425Y6819375D02*
Y6913100D01*
X11620500Y6515100D02*
Y6779269D01*
X11582400Y6477000D02*
X11620500Y6515100D01*
X11582400Y6136631D02*
X11597631Y6121400D01*
X14001270D01*
X14007465Y6127595D02*
X14026994D01*
X14033501Y6134100D01*
X14001270Y6121400D02*
X14007465Y6127595D01*
X14719299Y6019800D02*
X14795500Y6096000D01*
X14490700Y6019800D02*
X14719299D01*
X14795500Y6096000D02*
Y6781800D01*
X14820900Y6807200D01*
X15214600D01*
X15203770Y7289800D02*
X15288269D01*
X15303500Y7274569D01*
X15214600Y6807200D02*
X15303500Y6896100D01*
Y7274569D01*
X11582400Y6136631D02*
Y6477000D01*
X9904925Y8200600D02*
X9954925D01*
X9966035Y8189490D02*
X9971510D01*
X9954925Y8200600D02*
X9966035Y8189490D01*
X9971510D02*
X10020300Y8140700D01*
X12029925Y7750600D02*
X12034426Y7755100D01*
X12123900D01*
X12242800Y7874000D01*
X12446000D02*
X12471400Y7848600D01*
X12242800Y7874000D02*
X12446000D01*
X15114088Y8548649D02*
Y8637089D01*
X15108540Y8543100D02*
X15114088Y8548649D01*
Y8637089D02*
X15201900Y8724900D01*
X15252699D01*
X15278101Y8750300D01*
Y8940800D01*
X12471400Y7848600D02*
X12700000D01*
X12750800Y7797800D01*
X13455170D01*
X13480569Y7823200D01*
X13487399D01*
X14147800Y5918200D02*
X14427200Y6197600D01*
X14388541Y7364329D02*
X14427200Y7325669D01*
Y6197600D02*
Y7325669D01*
X14388541Y7364329D02*
Y7408100D01*
X11214100Y5918200D02*
X14147800D01*
X11074400Y6057900D02*
X11214100Y5918200D01*
X11074400Y6057900D02*
Y6756400D01*
X11092425Y6774425D01*
Y6913100D01*
X13703300Y7429500D02*
Y7696200D01*
X12121700Y7550600D02*
X12268200Y7404100D01*
X12029925Y7550600D02*
X12121700D01*
X12268200Y7404100D02*
X13677901D01*
X13703300Y7429500D01*
X13842999Y8216900D02*
Y8853065D01*
X13703300Y8077200D02*
X13842999Y8216900D01*
X13867235Y8877300D02*
X14373309D01*
X14388541Y8862069D01*
X13842999Y8853065D02*
X13867235Y8877300D01*
X14388541Y8543100D02*
Y8862069D01*
X14884399Y6743700D02*
X15227299D01*
X15367000Y6883400D02*
Y7239000D01*
X15227299Y6743700D02*
X15367000Y6883400D01*
Y7239000D02*
X15428540Y7300540D01*
Y7408100D01*
X10922000Y6769100D02*
X10942425Y6789525D01*
Y6913100D01*
X10922000Y5981700D02*
Y6769100D01*
Y5981700D02*
X11137900Y5765800D01*
X14224001D01*
X14414500Y5956300D01*
X14732001D01*
X14859000Y6083300D01*
Y6718300D02*
X14884399Y6743700D01*
X14859000Y6083300D02*
Y6718300D01*
X11342425Y9038100D02*
X11346925Y9042600D01*
Y9124425D01*
X11404600Y9182100D01*
X11480800D01*
X11569700Y9271000D01*
Y9334500D01*
X11785600Y9550400D01*
X11925300D01*
X12001500Y9474200D01*
X14548540Y8543100D02*
Y8971860D01*
X14528799Y8991600D02*
X14548540Y8971860D01*
X14338300Y8991600D02*
X14528799D01*
X13525500Y9385300D02*
X13563600Y9347200D01*
X12915900Y9385300D02*
X13525500D01*
X14338300Y9182100D02*
Y9331969D01*
X14323068Y9347200D02*
X14338300Y9331969D01*
X13563600Y9347200D02*
X14323068D01*
X11176000Y6756400D02*
X11192425Y6772825D01*
Y6913100D01*
X11176000Y6108700D02*
Y6756400D01*
Y6108700D02*
X11264900Y6019800D01*
X14097000D01*
X14668500Y7198369D02*
X14683731Y7213600D01*
X14668500Y6159500D02*
Y7198369D01*
X14097000Y6019800D02*
X14262100Y6184900D01*
X14868539Y7273940D02*
Y7408100D01*
X14808200Y7213600D02*
X14868539Y7273940D01*
X14683731Y7213600D02*
X14808200D01*
X16389940Y8209474D02*
X16967200D01*
X16332201Y8267214D02*
X16389940Y8209474D01*
X16332201Y8267214D02*
Y8267700D01*
X16272701Y9114600D02*
X17259300D01*
X15354300Y9677400D02*
X15361131D01*
X15671800Y9715500D02*
X16272701Y9114600D01*
X15399231Y9715500D02*
X15671800D01*
X15361131Y9677400D02*
X15399231Y9715500D01*
X11842425Y9213525D02*
X11976100Y9347200D01*
X12433300D01*
X16384425Y7834474D02*
X16967200D01*
X11842425Y9038100D02*
Y9213525D01*
X12029925Y8650600D02*
X12126600D01*
X12179300Y8597900D01*
X16522701Y7061200D02*
X17259300D01*
X16459200Y7124700D02*
X16522701Y7061200D01*
X12776200Y8661400D02*
X12992101D01*
X12179300Y8597900D02*
X12712700D01*
X12776200Y8661400D01*
X8597900Y6223000D02*
X9334500D01*
X9512300Y6400800D01*
Y6692900D01*
X9900945Y6896100D02*
X9901153Y6895892D01*
X9817100Y6896100D02*
X9900945D01*
X9901153Y6895892D02*
X9969292D01*
X9904925Y8000600D02*
X9909425Y8005100D01*
X9999000D02*
X10020300Y8026400D01*
X9909425Y8005100D02*
X9999000D01*
X9969292Y6895892D02*
X10160000Y7086600D01*
Y8011169D01*
X10020300Y8026400D02*
X10144769D01*
X10160000Y8011169D01*
X10566400Y9156700D02*
X10591064Y9132036D01*
Y9038100D02*
Y9132036D01*
X10566400Y9156700D02*
Y9160200D01*
X10553700Y9172900D02*
X10566400Y9160200D01*
X10553700Y9172900D02*
Y9182100D01*
X12166600Y8509000D02*
X12560300D01*
X12158200Y8500600D02*
X12166600Y8509000D01*
X12560300D02*
X12585700Y8483600D01*
X12029925Y8500600D02*
X12158200D01*
X12600931Y8398500D02*
X12649200D01*
X12585700Y8413731D02*
X12600931Y8398500D01*
X12585700Y8413731D02*
Y8483600D01*
X16526700Y6811200D02*
X17259300D01*
X12649200Y8398500D02*
X12651100Y8396600D01*
X12990199D02*
X12992101Y8394700D01*
X12651100Y8396600D02*
X12990199D01*
X8597900Y5969000D02*
X9410700D01*
X9740900Y6299200D01*
Y6832600D02*
Y6934200D01*
X9804400Y6997700D01*
X9740900Y6299200D02*
Y6692900D01*
X9804400Y6997700D02*
X10007600D01*
X10106669Y7900600D02*
X10121900Y7885369D01*
Y7112000D02*
Y7885369D01*
X10007600Y6997700D02*
X10121900Y7112000D01*
X9904925Y7900600D02*
X10106669D01*
X9344631Y8450600D02*
X9904925D01*
X9321800Y8473431D02*
Y8547100D01*
Y8473431D02*
X9344631Y8450600D01*
X9297300Y8571600D02*
X9321800Y8547100D01*
X9232900Y8571600D02*
X9297300D01*
X9155800D02*
X9232900D01*
X9118600Y8394700D02*
Y8534400D01*
X9155800Y8571600D01*
X9461500Y8813800D02*
X9624700Y8650600D01*
X9904925D01*
X9461500Y8813800D02*
Y9652000D01*
X17256000Y9867900D02*
X17259300Y9864600D01*
X16230600Y9867900D02*
X17256000D01*
X16002000Y10096500D02*
X16230600Y9867900D01*
X11798300Y10096500D02*
X16002000D01*
X10492425Y9038100D02*
Y9425625D01*
X10872150Y9686900D02*
X10873100Y9685950D01*
Y9554831D02*
Y9685950D01*
X10858500Y9782500D02*
X10872150Y9768850D01*
Y9686900D02*
Y9768850D01*
X10858500Y9782500D02*
Y9791700D01*
X10492425Y9425625D02*
X10591800Y9525000D01*
X10843269D01*
X10873100Y9554831D01*
X11963400Y9398000D02*
X12382500D01*
X11791064Y9225664D02*
X11963400Y9398000D01*
X12382500D02*
X12433300Y9448800D01*
X11791064Y9038100D02*
Y9225664D01*
X16386426Y7959474D02*
X16967200D01*
X7721600Y6350000D02*
X7832794D01*
X7696200Y6375400D02*
Y6553200D01*
Y6375400D02*
X7721600Y6350000D01*
X7696200Y6553200D02*
X7721600Y6578600D01*
X11639550Y6369050D02*
Y6470650D01*
Y6369050D02*
X11645900Y6362700D01*
X11639550Y6470650D02*
X11671300Y6502400D01*
Y6781800D01*
X11692425Y6802925D01*
Y6913100D01*
X10223500Y10096500D02*
X10452100Y9867900D01*
X9398000Y10096500D02*
X10223500D01*
X10392400Y9569430D02*
Y9677400D01*
X10373369Y9550400D02*
X10392400Y9569430D01*
X10236200Y9550400D02*
X10373369D01*
X10198100Y9271000D02*
Y9512300D01*
X10342425Y9038100D02*
Y9190175D01*
X10223500Y9245600D02*
X10287000D01*
X10342425Y9190175D01*
X10198100Y9271000D02*
X10223500Y9245600D01*
X10198100Y9512300D02*
X10236200Y9550400D01*
X4530900Y8772700D02*
Y8898504D01*
X4508500Y8750300D02*
X4530900Y8772700D01*
X4406900Y8750300D02*
X4508500D01*
X4356100Y8801100D02*
Y9817100D01*
Y8801100D02*
X4406900Y8750300D01*
X10392400Y9677400D02*
X10443200Y9728200D01*
X10452100D01*
X4356100Y9817100D02*
X4483100Y9944100D01*
X9398000D01*
X16274699Y9239600D02*
X17259300D01*
X15290800Y9740900D02*
X15297630D01*
X15735300Y9779000D02*
X16274699Y9239600D01*
X15297630Y9740900D02*
X15335732Y9779000D01*
X15735300D01*
X11760200Y6314431D02*
X11775431Y6299200D01*
X11925300D01*
X11760200Y6314431D02*
Y6781800D01*
X11792425Y6814025D02*
Y6913100D01*
X11760200Y6781800D02*
X11792425Y6814025D01*
X9652000Y7148500D02*
X9701200D01*
X9803300Y7250600D01*
X9904925D01*
X9169400Y7153765D02*
X9433265D01*
X9436100Y7156600D01*
X9444200Y7148500D01*
X9652000D01*
X7581900Y6324600D02*
Y6578600D01*
X7658100Y6654800D01*
X7683500Y6223000D02*
X7832793D01*
X7581900Y6324600D02*
X7683500Y6223000D01*
X7658100Y6654800D02*
X8468369D01*
X8483600Y6670031D02*
Y7302500D01*
X8468369Y6654800D02*
X8483600Y6670031D01*
X9904925Y7850600D02*
X10034500D01*
X10049200Y7835900D02*
X10058400D01*
X10034500Y7850600D02*
X10049200Y7835900D01*
X10392425Y9038100D02*
Y9490725D01*
X10496395Y9594695D01*
X11019700Y9677400D02*
X11141800D01*
X10442425Y9038100D02*
Y9451825D01*
X10528300Y9677400D02*
X10615300D01*
X10591800Y9575800D02*
X10615300Y9599300D01*
X10566400Y9575800D02*
X10591800D01*
X10615300Y9599300D02*
Y9677400D01*
X10442425Y9451825D02*
X10566400Y9575800D01*
X9666000Y8850600D02*
X9904925D01*
X9613900Y8902700D02*
X9666000Y8850600D01*
X9613900Y8902700D02*
Y9817100D01*
X16267999Y9614600D02*
X17259300D01*
X15913100Y9969500D02*
X16267999Y9614600D01*
X11595100Y9969500D02*
X15913100D01*
X12255500Y6718300D02*
X12369800D01*
X13030200Y6591600D02*
X13371738D01*
X13379636Y6583703D01*
X12369800Y6718300D02*
X12496500Y6591600D01*
X13030200D01*
X10017700Y7648000D02*
X10020300Y7645400D01*
X9904925Y7650600D02*
X9907525Y7648000D01*
X10017700D01*
X16388426Y8084474D02*
X16967200D01*
X10641064Y9167864D02*
X10642600Y9169400D01*
X10641064Y9038100D02*
Y9167864D01*
X10942425Y9038100D02*
Y9151725D01*
X16276700Y9364600D02*
X17259300D01*
X15798801Y9842500D02*
X16276700Y9364600D01*
X15217131Y9842500D02*
X15798801D01*
X15201900Y9827269D02*
X15217131Y9842500D01*
X15201900Y9753600D02*
Y9827269D01*
X12166300Y8750600D02*
X12217400Y8699500D01*
X12674600D02*
X12700000Y8724900D01*
X12217400Y8699500D02*
X12674600D01*
X12028564Y8750600D02*
X12166300D01*
X12700000Y8724900D02*
Y8883900D01*
X8597900Y6096000D02*
X9372600D01*
X9626600Y6350000D01*
Y6692900D01*
Y6957069D02*
X9641831Y6972300D01*
X9626600Y6832600D02*
Y6957069D01*
X9641831Y6972300D02*
X9702800D01*
X9779000Y7048500D01*
X10005069D01*
X10083800Y7127231D01*
Y7747000D01*
X9909425Y7796100D02*
X10005069D01*
X9904925Y7800600D02*
X9909425Y7796100D01*
X10049931Y7780869D02*
X10083800Y7747000D01*
X10005069Y7796100D02*
X10020300Y7780869D01*
X10049931D01*
X7467600Y6261100D02*
X7632700Y6096000D01*
X7467600Y6604000D02*
X7594600Y6731000D01*
X7467600Y6261100D02*
Y6604000D01*
X7632700Y6096000D02*
X7832794D01*
X8379469Y6731000D02*
X8394700Y6746231D01*
X7594600Y6731000D02*
X8379469D01*
X8394700Y6746231D02*
Y7302500D01*
X9904925Y7950600D02*
X10036900D01*
X10049200Y7962900D01*
X10058400D01*
X9425931Y8500600D02*
X9904925D01*
X9410700Y8515831D02*
Y8862069D01*
Y8515831D02*
X9425931Y8500600D01*
X9319269Y8878200D02*
X9320169Y8877300D01*
X9395469D01*
X9410700Y8862069D01*
X9232900Y8878200D02*
X9319269D01*
X9155800D02*
X9232900D01*
X9118600Y8915400D02*
X9155800Y8878200D01*
X4533900Y10020300D02*
X9956800D01*
X10064595Y9912505D01*
Y9874405D02*
Y9912505D01*
Y9874405D02*
X10071100Y9867900D01*
X10261600Y9182100D02*
X10292425Y9151275D01*
X10185400Y9182100D02*
X10261600D01*
X10134600Y9232900D02*
Y9677400D01*
Y9232900D02*
X10185400Y9182100D01*
X10292425Y9038100D02*
Y9151275D01*
X4279900Y8775700D02*
Y9842500D01*
Y8775700D02*
X4356100Y8699500D01*
X4559300D01*
X4595900Y8736100D01*
Y8898503D01*
X10090305Y9721695D02*
X10134600Y9677400D01*
X10077605Y9721695D02*
X10090305D01*
X10071100Y9728200D02*
X10077605Y9721695D01*
X4457700Y10020300D02*
X4533900D01*
X4279900Y9842500D02*
X4457700Y10020300D01*
X11087925Y9042600D02*
X11092425Y9038100D01*
X11087925Y9042600D02*
Y9101600D01*
X11087100Y9102426D02*
X11087925Y9101600D01*
X11087100Y9102426D02*
Y9169400D01*
X16283400Y8989600D02*
X17259300D01*
X15417799Y9613900D02*
X15417966D01*
X15456065Y9652000D02*
X15621001D01*
X16283400Y8989600D01*
X15417966Y9613900D02*
X15456065Y9652000D01*
X11158625Y9135825D02*
X11179500Y9156700D01*
X11188700D01*
X11142425Y9038100D02*
Y9135825D01*
X11158625D01*
X16271231Y8864600D02*
X17259300D01*
X15547331Y9588500D02*
X16271231Y8864600D01*
X15513531Y9588500D02*
X15547331D01*
X15481300Y9550400D02*
Y9556269D01*
X15513531Y9588500D01*
X12034426Y8596100D02*
X12117600D01*
X12029925Y8600600D02*
X12034426Y8596100D01*
X12117600D02*
X12153900Y8559800D01*
X16524699Y6936200D02*
X17259300D01*
X12153900Y8559800D02*
X12712700D01*
X12788900Y8483600D01*
X12992101D01*
X12649200Y8075300D02*
X12650150Y8076250D01*
X12159000Y8450600D02*
X12179300Y8470900D01*
X12647300Y8077200D02*
X12649200Y8075300D01*
X12562831Y8077200D02*
X12647300D01*
X12547600Y8092431D02*
X12562831Y8077200D01*
X12029925Y8450600D02*
X12159000D01*
X16528700Y6686200D02*
X17259300D01*
X12532369Y8470900D02*
X12547600Y8455669D01*
X12179300Y8470900D02*
X12532369D01*
X12547600Y8092431D02*
Y8455669D01*
X16471899Y6629400D02*
X16528700Y6686200D01*
X12991150Y8076250D02*
X12992101Y8077200D01*
X12650150Y8076250D02*
X12991150D01*
X10892425Y9038100D02*
Y9165225D01*
X10896600Y9169400D01*
X16278700Y9489600D02*
X17259300D01*
X15113000Y9753600D02*
Y9855200D01*
X15163800Y9906000D02*
X15862300D01*
X16278700Y9489600D01*
X15113000Y9855200D02*
X15163800Y9906000D01*
X12140100Y8700600D02*
X12204700Y8636000D01*
X12028564Y8700600D02*
X12140100D01*
X16383574Y7709474D02*
X16967200D01*
X16319501Y7645400D02*
X16383574Y7709474D01*
X12204700Y8636000D02*
X12687300D01*
X12776200Y8724900D02*
X12903200D01*
X12687300Y8636000D02*
X12776200Y8724900D01*
X9650900Y8700600D02*
X9904925D01*
X9537700Y8813800D02*
X9650900Y8700600D01*
X9537700Y8813800D02*
Y9740900D01*
X16257300Y9739600D02*
X17259300D01*
X15963901Y10033000D02*
X16257300Y9739600D01*
X11696700Y10033000D02*
X15963901D01*
X15887700Y6616700D02*
X16014700Y6489700D01*
X11021580Y5805920D02*
X11112500Y5715000D01*
X14249400D02*
X14350999Y5816600D01*
X11112500Y5715000D02*
X14249400D01*
X16687801Y6057900D02*
X16916400D01*
X17256000D01*
X16014700Y6489700D02*
X16256000D01*
X16687801Y6057900D01*
X15290800Y6502400D02*
X15405099Y6616700D01*
X15887700D01*
X15113000Y6502400D02*
X15290800D01*
X15100301Y6489700D02*
X15113000Y6502400D01*
X15100301Y6311900D02*
Y6489700D01*
X14973300Y6184900D02*
X15100301Y6311900D01*
X14973300Y6045200D02*
Y6184900D01*
X14770100Y5842000D02*
X14973300Y6045200D01*
X14541499Y5842000D02*
X14770100D01*
X14516100Y5816600D02*
X14541499Y5842000D01*
X14350999Y5816600D02*
X14516100D01*
X7617980Y5805920D02*
X11021580D01*
X7366000Y6057900D02*
X7617980Y5805920D01*
X7366000Y6057900D02*
Y6629400D01*
X7531100Y6794500D01*
X8294084D01*
X8305800Y6806216D01*
Y7302500D01*
X7397599Y7429500D02*
X8305800D01*
X7391400Y7435699D02*
X7397599Y7429500D01*
X7391400Y7435699D02*
Y8559800D01*
X7341142Y8610058D02*
X7391400Y8559800D01*
X6645983Y8610058D02*
X7341142D01*
X5181200Y7087000D02*
X5289800D01*
X5156200Y7112000D02*
X5181200Y7087000D01*
X5054600Y7112000D02*
X5156200D01*
X5016500Y7150100D02*
X5054600Y7112000D01*
X4523731Y7150100D02*
X5016500D01*
X4508500Y7134869D02*
X4523731Y7150100D01*
X4508500Y7072900D02*
Y7134869D01*
X4845800Y7493000D02*
X5214361D01*
X5214361Y7493000D01*
X5207000Y7485639D02*
X5214361Y7493000D01*
X5207000Y7213600D02*
Y7485639D01*
Y7213600D02*
X5233600Y7187000D01*
X5289799D01*
X4927600Y6985900D02*
X5119000D01*
X5170100Y7037000D01*
X5289800D01*
X4219800Y6515100D02*
X4583600D01*
X7157075Y7644999D02*
Y7848199D01*
X3911600Y8305800D02*
X4025600D01*
X3720475Y8114675D02*
X3911600Y8305800D01*
X3576600Y8114675D02*
X3720475D01*
X4341400Y8623300D02*
X4914900D01*
X4305600Y8305800D02*
X5448300D01*
X3576600Y8012675D02*
X3732775D01*
X3797300Y8077200D01*
X4101626D01*
X4102100Y8076726D01*
X3576600Y7912675D02*
X3745925D01*
X3798948Y7859652D01*
X4104061D01*
X6692500Y8230000D02*
X6845300Y8077200D01*
X7096769D01*
X3053800Y8800100D02*
X4164600D01*
X4341400Y8623300D01*
X4961576Y8669976D02*
Y8699500D01*
X4914900Y8623300D02*
X4961576Y8669976D01*
X6667500Y8631576D02*
Y8864600D01*
X6642100Y8890000D02*
X6667500Y8864600D01*
X6645983Y8610058D02*
X6667500Y8631576D01*
X6554158Y8610058D02*
X6645983D01*
X6553199Y8609100D02*
X6553200Y8609100D01*
X6526600Y8482400D02*
X6553200Y8509000D01*
Y8609100D01*
X6526600Y8397305D02*
Y8482400D01*
X5651500Y8890000D02*
X6642100D01*
X5613400Y8851900D02*
X5651500Y8890000D01*
X5613400Y8763000D02*
Y8851900D01*
Y8470900D02*
Y8623300D01*
X5448300Y8305800D02*
X5613400Y8470900D01*
X5970049Y8495251D02*
X6007100Y8458200D01*
X5970049Y8495251D02*
Y8583700D01*
X6007100Y8458200D02*
X6169669D01*
X6184900Y8382000D02*
Y8442969D01*
Y8382000D02*
X6236900Y8330000D01*
X6169669Y8458200D02*
X6184900Y8442969D01*
X6236900Y8330000D02*
X6309294D01*
X6276331Y8534400D02*
X6362700D01*
X6261100Y8549631D02*
X6276331Y8534400D01*
X6261100Y8549631D02*
Y8623050D01*
X6261749Y8623700D01*
X6426600Y8397305D02*
Y8470500D01*
X6362700Y8534400D02*
X6426600Y8470500D01*
X6376600Y8014900D02*
Y8112694D01*
X6324600Y7962900D02*
X6376600Y8014900D01*
X6210300Y7962900D02*
X6324600D01*
X6173574Y7926174D02*
X6210300Y7962900D01*
X6173574Y7835500D02*
Y7926174D01*
X6135474Y8533026D02*
X6172200Y8496300D01*
X6350000D01*
X6135474Y8533026D02*
Y8628700D01*
X6376600Y8397305D02*
Y8469700D01*
X6350000Y8496300D02*
X6376600Y8469700D01*
X5249400Y8696677D02*
X5762977D01*
X5842000Y8617653D01*
Y8486131D02*
Y8617653D01*
X5930900Y8470900D02*
X5956300Y8445500D01*
X5842000Y8486131D02*
X5857231Y8470900D01*
X5930900D01*
X5956300Y8380500D02*
Y8445500D01*
X5993300Y8343500D02*
X6008475D01*
X5956300Y8380500D02*
X5993300Y8343500D01*
X5249400Y8696677D02*
Y8944278D01*
X5233900Y8959777D02*
X5249400Y8944278D01*
X6184900Y8245230D02*
Y8279599D01*
X6185300Y8280000D01*
X6184900Y8245230D02*
X6200131Y8230000D01*
X6309294D01*
X6008475Y8343500D02*
X6045475Y8306500D01*
X6185300Y8280000D02*
X6309294D01*
X6045475Y8306500D02*
X6158800D01*
X6185300Y8280000D01*
X6476600Y8014100D02*
Y8112694D01*
Y8014100D02*
X6540500Y7950200D01*
Y7772400D02*
Y7950200D01*
Y7772400D02*
X6565900Y7747000D01*
X6704444D01*
X6719674Y7731769D01*
Y7645000D02*
Y7731769D01*
X6476600Y8397305D02*
X6477636Y8398341D01*
X6402174Y8611199D02*
X6412075Y8601299D01*
Y8535825D02*
X6477636Y8470264D01*
Y8398341D02*
Y8470264D01*
X6412075Y8535825D02*
Y8601299D01*
X6426600Y7976000D02*
Y8112694D01*
X6388100Y7937500D02*
X6426600Y7976000D01*
X6388100Y7837974D02*
Y7937500D01*
Y7837974D02*
X6389474Y7836600D01*
X6593906Y8280000D02*
X6690369D01*
X6593906Y8230000D02*
X6692500D01*
X6690369Y8280000D02*
X6692500Y8277869D01*
X7157075Y7848199D02*
Y8016895D01*
X7096769Y8077200D02*
X7112000Y8092431D01*
X7096769Y8077200D02*
X7157075Y8016895D01*
X6692500Y8230000D02*
Y8277869D01*
X7112000Y8092431D02*
Y8194525D01*
X7113374Y8195900D01*
X6593906Y8329999D02*
X6841174D01*
X6846674Y8335500D01*
X6593906Y8180000D02*
X6679000D01*
X6723075Y8135925D01*
Y7848199D02*
Y8135925D01*
X6929675Y7644999D02*
X7082074D01*
X6929675Y7645000D02*
X6929675Y7644999D01*
X6933075Y7848199D02*
X7082074D01*
X6933074Y7848199D02*
X6933075Y7848199D01*
X3479175Y8114675D02*
X3576600D01*
X3454400Y8089900D02*
X3479175Y8114675D01*
X3454400Y7835900D02*
Y8089900D01*
Y7835900D02*
X3479625Y7810675D01*
X3576600D01*
X4964400Y8944278D02*
X4979900Y8959778D01*
X4964400Y8696676D02*
Y8944278D01*
X5232400Y9146276D02*
X5233900Y9144776D01*
X5232400Y9146276D02*
Y9522469D01*
X5217169Y9537700D02*
X5232400Y9522469D01*
X4775200Y9537700D02*
X5217169D01*
X4734800Y9497300D02*
X4775200Y9537700D01*
X4734800Y9382477D02*
Y9497300D01*
X4979900Y9144777D02*
X4991100Y9155977D01*
Y9471669D01*
X4975869Y9486900D02*
X4991100Y9471669D01*
X4830030Y9486900D02*
X4975869D01*
X4814800Y9471669D02*
X4830030Y9486900D01*
X4814800Y9382478D02*
Y9471669D01*
Y9310600D02*
Y9382478D01*
X4725901Y9221701D02*
X4814800Y9310600D01*
X4725901Y9118600D02*
Y9221701D01*
X4734800Y9319500D02*
Y9382477D01*
X4660900Y9245600D02*
X4734800Y9319500D01*
X4660900Y9118600D02*
Y9245600D01*
D68*
X16916400Y6184900D02*
X16917050Y6185550D01*
X17258650D02*
X17259300Y6186200D01*
X17256000Y6057900D02*
X17259300Y6061200D01*
X6553199Y8609100D02*
X6554158Y8610058D01*
D69*
X17259300Y6561200D02*
D03*
X17259300Y6311200D02*
D03*
Y6436200D02*
D03*
X3053800Y8675100D02*
D03*
X17259300Y6186200D02*
D03*
Y9114600D02*
D03*
Y7061200D02*
D03*
Y6811200D02*
D03*
Y9864600D02*
D03*
Y9239600D02*
D03*
Y9614600D02*
D03*
X17259300Y9364600D02*
D03*
X17259300Y8989600D02*
D03*
Y6936200D02*
D03*
Y6686200D02*
D03*
Y9489600D02*
D03*
Y9739600D02*
D03*
D70*
X13880016Y6583703D02*
D03*
D71*
X13379636D02*
D03*
D72*
X17259300Y8864600D02*
D03*
Y6061200D02*
D03*
X3053800Y8800100D02*
D03*
D73*
X3576600Y8394675D02*
D03*
Y7530675D02*
D03*
X3196600Y8394675D02*
D03*
Y7530675D02*
D03*
D74*
X3683000Y8674100D02*
D03*
X16713200Y6565900D02*
D03*
Y6438900D02*
D03*
Y6311900D02*
D03*
X14566901Y5778500D02*
D03*
X10960100Y9372600D02*
D03*
X11036300Y9423400D02*
D03*
X9182100Y9105900D02*
D03*
X9169400Y9194800D02*
D03*
X13373100Y7188200D02*
D03*
Y7467600D02*
D03*
Y7696200D02*
D03*
X13500101Y9182100D02*
D03*
X8666808Y6578600D02*
D03*
X15836900Y8343900D02*
D03*
X9398000Y8115300D02*
D03*
X15951199Y6731000D02*
D03*
X15862300Y6553200D02*
D03*
X12915900Y9118600D02*
D03*
X11785600Y9309100D02*
D03*
X12255500Y6819900D02*
D03*
X10261600Y8458200D02*
D03*
X13614400Y7239000D02*
D03*
Y8077200D02*
D03*
X15671800Y8394700D02*
D03*
X10096500Y8280400D02*
D03*
X15430499Y8369300D02*
D03*
X12153900Y8382000D02*
D03*
X13830299Y7823200D02*
D03*
X13893800Y8089900D02*
D03*
X14566901Y6096000D02*
D03*
X14147800Y6146800D02*
D03*
X10845800Y6007100D02*
D03*
X14439900Y5880100D02*
D03*
X10439400Y6210300D02*
D03*
Y6337300D02*
D03*
X13398500Y9182100D02*
D03*
Y9055100D02*
D03*
X12915900Y9207500D02*
D03*
X11849100Y9372600D02*
D03*
X15748000Y8343900D02*
D03*
X10020300Y8229600D02*
D03*
X14719299Y9093200D02*
D03*
X12700000Y9271000D02*
D03*
X12496800Y8877300D02*
D03*
X11451500Y9677400D02*
D03*
X11493500Y9296400D02*
D03*
X12496800Y7543800D02*
D03*
X12471400Y8166100D02*
D03*
X9766300Y9804400D02*
D03*
X10782300Y9436100D02*
D03*
X9740900Y8572500D02*
D03*
X9461500Y8013700D02*
D03*
X15074899Y6946900D02*
D03*
X12306300Y6642100D02*
D03*
X14071600Y6578600D02*
D03*
X13195300Y6311900D02*
D03*
X12319000Y6299200D02*
D03*
X9448800Y7416800D02*
D03*
X9436100Y6883400D02*
D03*
X11315700Y6451600D02*
D03*
X9334500Y6591300D02*
D03*
X10591800Y6451600D02*
D03*
X10033000D02*
D03*
X9182100Y9461500D02*
D03*
X9144000Y8801100D02*
D03*
Y8648700D02*
D03*
X7315200Y8496300D02*
D03*
X4660900Y9740900D02*
D03*
X5778500Y8763000D02*
D03*
X4724400Y8712200D02*
D03*
X6642100Y7975600D02*
D03*
X8788400Y7607300D02*
D03*
X8724900Y7124700D02*
D03*
X7696200Y5969000D02*
D03*
X3759200Y8280400D02*
D03*
X4368800Y8077200D02*
D03*
X6007100Y7899400D02*
D03*
X4368800Y7861300D02*
D03*
X3759200Y7620000D02*
D03*
X4013200Y6375400D02*
D03*
X15506700Y8318500D02*
D03*
X10020300Y8432800D02*
D03*
X15354300Y8864600D02*
D03*
X13550900Y7759700D02*
D03*
X11912552Y9436012D02*
D03*
X15798801Y6896100D02*
D03*
X12915900Y9296400D02*
D03*
X15798801Y7023100D02*
D03*
X14986000Y6400800D02*
D03*
X14363699D02*
D03*
X13766800Y7759700D02*
D03*
X13792200Y8077200D02*
D03*
X15684500Y6692900D02*
D03*
X12509500Y9004300D02*
D03*
X12750800Y8242300D02*
D03*
X12471400Y8318500D02*
D03*
X15684500Y6972300D02*
D03*
X14909801Y6934200D02*
D03*
X12496800Y7721600D02*
D03*
X11912600Y6477000D02*
D03*
X11518900Y6273800D02*
D03*
X10795000D02*
D03*
X11290300D02*
D03*
X5448300Y8801100D02*
D03*
X6311900Y7366000D02*
D03*
X4686300Y7493000D02*
D03*
X5105400Y7188200D02*
D03*
Y6502400D02*
D03*
X14922501Y6311900D02*
D03*
X14287500Y6273800D02*
D03*
X11645900Y6197600D02*
D03*
X10858500D02*
D03*
X14376401Y6235700D02*
D03*
X14605000Y6223000D02*
D03*
X15582899Y8382000D02*
D03*
X10058400Y8356600D02*
D03*
X14033501Y6134100D02*
D03*
X14490700Y6019800D02*
D03*
X10020300Y8140700D02*
D03*
X15278101Y8940800D02*
D03*
X13487399Y7823200D02*
D03*
X13703300Y7696200D02*
D03*
Y8077200D02*
D03*
X12001500Y9474200D02*
D03*
X12915900Y9385300D02*
D03*
X14338300Y8991600D02*
D03*
Y9182100D02*
D03*
X14668500Y6159500D02*
D03*
X14262100Y6184900D02*
D03*
X16332201Y8267700D02*
D03*
X11049000Y9283700D02*
D03*
X15354300Y9677400D02*
D03*
X12433300Y9347200D02*
D03*
X16384425Y7834474D02*
D03*
X16459200Y7124700D02*
D03*
X12992101Y8661400D02*
D03*
X9512300Y6692900D02*
D03*
X9817100Y6896100D02*
D03*
X10553700Y9182100D02*
D03*
X16526700Y6811200D02*
D03*
X12992101Y8394700D02*
D03*
X9740900Y6692900D02*
D03*
Y6832600D02*
D03*
X9461500Y9652000D02*
D03*
X11798300Y10096500D02*
D03*
X10858500Y9791700D02*
D03*
X12433300Y9448800D02*
D03*
X16386426Y7959474D02*
D03*
X11645900Y6362700D02*
D03*
X9398000Y10096500D02*
D03*
Y9944100D02*
D03*
X10452100Y9867900D02*
D03*
Y9728200D02*
D03*
X15290800Y9740900D02*
D03*
X8483600Y7302500D02*
D03*
X10058400Y7835900D02*
D03*
X10496395Y9594695D02*
D03*
X11019700Y9677400D02*
D03*
X10528300D02*
D03*
X9613900Y9817100D02*
D03*
X11595100Y9969500D02*
D03*
X12255500Y6718300D02*
D03*
X10020300Y7645400D02*
D03*
X10642600Y9169400D02*
D03*
X16388426Y8084474D02*
D03*
X15201900Y9753600D02*
D03*
X9626600Y6692900D02*
D03*
Y6832600D02*
D03*
X8394700Y7302500D02*
D03*
X10058400Y7962900D02*
D03*
X10071100Y9867900D02*
D03*
Y9728200D02*
D03*
X11087100Y9169400D02*
D03*
X15417799Y9613900D02*
D03*
X11188700Y9156700D02*
D03*
X15481300Y9550400D02*
D03*
X16524699Y6936200D02*
D03*
X12992101Y8483600D02*
D03*
X16471899Y6629400D02*
D03*
X12992101Y8077200D02*
D03*
X10896600Y9169400D02*
D03*
X15113000Y9753600D02*
D03*
X16319501Y7645400D02*
D03*
X12903200Y8724900D02*
D03*
X9537700Y9740900D02*
D03*
X11696700Y10033000D02*
D03*
X8305800Y7302500D02*
D03*
Y7429500D02*
D03*
X5613400Y8623300D02*
D03*
Y8763000D02*
D03*
D75*
X5384800Y7072000D02*
D03*
X5384800Y7152000D02*
D03*
%TF.MD5,93985e1299d1b74ad325b41417df241e*%
M02*
