%TF.GenerationSoftware,Altium Limited,Altium Designer,25.8.1 (18)*%
G04 Layer_Physical_Order=4*
G04 Layer_Color=16711680*
%FSLAX45Y45*%
%MOMM*%
%TF.SameCoordinates,7B3F40D8-49BE-4A82-B445-1243D3C56F15*%
%TF.FilePolarity,Positive*%
%TF.FileFunction,Copper,L4,Bot,Signal*%
%TF.Part,Single*%
G01*
G75*
%TA.AperFunction,Conductor*%
%ADD67C,0.26000*%
%ADD68C,0.20000*%
%TA.AperFunction,ComponentPad*%
%ADD69C,1.00000*%
%ADD70C,1.54060*%
%ADD71R,1.54060X1.54060*%
%ADD72R,1.00000X1.00000*%
G04:AMPARAMS|DCode=73|XSize=1.1mm|YSize=1.7mm|CornerRadius=0.55mm|HoleSize=0mm|Usage=FLASHONLY|Rotation=270.000|XOffset=0mm|YOffset=0mm|HoleType=Round|Shape=RoundedRectangle|*
%AMROUNDEDRECTD73*
21,1,1.10000,0.60000,0,0,270.0*
21,1,0.00000,1.70000,0,0,270.0*
1,1,1.10000,-0.30000,0.00000*
1,1,1.10000,-0.30000,0.00000*
1,1,1.10000,0.30000,0.00000*
1,1,1.10000,0.30000,0.00000*
%
%ADD73ROUNDEDRECTD73*%
%TA.AperFunction,ViaPad*%
%ADD74C,0.60000*%
%ADD75C,0.50000*%
D67*
X14307100Y5740400D02*
X14345200Y5778500D01*
X14566901D01*
X11074400Y5740400D02*
X14307100D01*
X10883900Y5930900D02*
X11074400Y5740400D01*
X10960100Y9372600D02*
Y9471669D01*
X11068531Y9448800D02*
X11595100D01*
X11671300Y9525000D01*
X11036300Y9423400D02*
X11043131D01*
X11068531Y9448800D01*
X10975331Y9486900D02*
X11582400D01*
X11633200Y9537700D01*
X10960100Y9471669D02*
X10975331Y9486900D01*
X10896600Y9169400D02*
Y9509769D01*
X10911831Y9525000D01*
X11569700D02*
X11595100Y9550400D01*
X10911831Y9525000D02*
X11569700D01*
X10553700Y9601200D02*
X10591800Y9639300D01*
X10981600D02*
X11019700Y9677400D01*
X10655300Y9601200D02*
X11490969D01*
X11518900Y9629131D01*
X10591800Y9639300D02*
X10981600D01*
X10553700Y9499600D02*
X10655300Y9601200D01*
X11518900Y9629131D02*
Y9804400D01*
X10668000Y9563100D02*
X11541769D01*
X11557000Y9578331D01*
X10591800Y9486900D02*
X10668000Y9563100D01*
X11557000Y9578331D02*
Y9779000D01*
X9182100Y9105900D02*
X9232900Y9156700D01*
Y9194800D01*
X9359900Y9321800D01*
Y9497069D01*
X9375131Y9512300D01*
X9474200D01*
X9512300Y9474200D01*
X10071100D01*
X10096500Y9499600D01*
Y9598669D01*
X10111731Y9613900D01*
X10414000D01*
X10470995Y9670895D01*
X10521795D01*
X10528300Y9677400D01*
X9169400Y9194800D02*
X9309100Y9334500D01*
Y9547869D01*
X9324331Y9563100D01*
X9486900D01*
X9677400Y9753600D01*
Y9893300D01*
X9702800Y9918700D01*
X10817869D01*
X10858500Y9878069D01*
Y9791700D02*
Y9878069D01*
X13373100Y7188200D02*
Y7467600D01*
X13535669Y7632700D02*
X13550900Y7617469D01*
Y7178031D02*
Y7617469D01*
X12448531Y7632700D02*
X13535669D01*
X12433300Y7647931D02*
X12448531Y7632700D01*
X12433300Y7647931D02*
Y7782569D01*
X13373100Y7696200D02*
Y8978900D01*
X13385800Y8991600D01*
X13474699D01*
X13500101Y9017000D01*
Y9182100D01*
X8509000Y6337300D02*
Y7172969D01*
Y6337300D02*
X8585200Y6261100D01*
X8244831Y7188200D02*
X8493769D01*
X8509000Y7172969D01*
X8585200Y6261100D02*
X10335269D01*
X10350500Y6028639D02*
Y6245869D01*
X10335269Y6261100D02*
X10350500Y6245869D01*
X8661400Y6573192D02*
X8666808Y6578600D01*
X8661400Y6438900D02*
Y6573192D01*
X15836900Y8334700D02*
Y8343900D01*
X15814030Y8311830D02*
X15836900Y8334700D01*
X15814030Y8295631D02*
Y8311830D01*
X15798801Y8280400D02*
X15814030Y8295631D01*
X15737831Y8280400D02*
X15798801D01*
X15722600Y8265169D02*
X15737831Y8280400D01*
X15722600Y8229600D02*
Y8265169D01*
X15621001Y8128000D02*
X15722600Y8229600D01*
X14579601Y8128000D02*
X15621001D01*
X13868401Y7416800D02*
X14579601Y8128000D01*
X13868401Y7048500D02*
Y7416800D01*
X13754100Y6934200D02*
X13868401Y7048500D01*
X13830299Y7061200D02*
Y7442200D01*
X13741400Y6972300D02*
X13830299Y7061200D01*
X12065000Y6972300D02*
X13741400D01*
X12077700Y7010400D02*
X13716000D01*
X13792200Y7086600D01*
X12103100D02*
X13677901D01*
X13716000Y7124700D02*
Y7518400D01*
X13677901Y7086600D02*
X13716000Y7124700D01*
X13703300Y7048500D02*
X13754100Y7099300D01*
X11798300Y7391400D02*
X12103100Y7086600D01*
X11798300Y7340600D02*
X12090400Y7048500D01*
X13703300D01*
X11798300Y7289800D02*
X12077700Y7010400D01*
X11798300Y7239000D02*
X12065000Y6972300D01*
X10568931Y7391400D02*
X11798300D01*
X10518131Y7340600D02*
X11798300D01*
X10467331Y7289800D02*
X11798300D01*
X10416531Y7239000D02*
X11798300D01*
X12052300Y6934200D02*
X13754100D01*
X11798300Y7188200D02*
X12052300Y6934200D01*
X10365731Y7188200D02*
X11798300D01*
X10264131Y7137400D02*
X11798300D01*
X11938000Y6908800D02*
Y6997700D01*
X11798300Y7137400D02*
X11938000Y6997700D01*
X11785600Y7086600D02*
X11899900Y6972300D01*
Y6883400D02*
Y6972300D01*
X10213331Y7086600D02*
X11785600D01*
X14554201Y8166100D02*
X15595599D01*
X13830299Y7442200D02*
X14554201Y8166100D01*
X13677901Y7543800D02*
X14452600Y8318500D01*
X13677901Y7178031D02*
Y7543800D01*
X13716000Y7518400D02*
X14478000Y8280400D01*
X15430499D01*
X13754100Y7099300D02*
Y7493000D01*
X14503400Y8242300D01*
X15561000D01*
X13792200Y7467600D02*
X14528799Y8204200D01*
X13792200Y7086600D02*
Y7467600D01*
X15502960Y8314760D02*
X15506700Y8318500D01*
X15464861Y8314760D02*
X15502960D01*
X15430499Y8280400D02*
X15464861Y8314760D01*
X15379700Y8318500D02*
X15430499Y8369300D01*
X14452600Y8318500D02*
X15379700D01*
X15595599Y8166100D02*
X15671800Y8242300D01*
X14528799Y8204200D02*
X15582899D01*
X15633701Y8255000D01*
X15582899Y8264200D02*
Y8382000D01*
X15561000Y8242300D02*
X15582899Y8264200D01*
X8229600Y7203431D02*
Y7848600D01*
X8267700Y7886700D02*
X9334500D01*
X8229600Y7848600D02*
X8267700Y7886700D01*
X8229600Y7203431D02*
X8244831Y7188200D01*
X9398000Y7950200D02*
Y8115300D01*
X15862300Y6553200D02*
X15951199Y6642100D01*
Y6731000D01*
X9334500Y7886700D02*
X9398000Y7950200D01*
X10452100Y5930900D02*
X10883900D01*
X10450169Y5928969D02*
X10452100Y5930900D01*
X10350500Y6028639D02*
X10450169Y5928969D01*
X12636500Y9207500D02*
X12814301D01*
X12839700Y9182100D01*
X12854932Y9118600D02*
X12915900D01*
X12839700Y9133831D02*
X12854932Y9118600D01*
X12839700Y9133831D02*
Y9182100D01*
X12598400Y9169400D02*
X12636500Y9207500D01*
X12369800Y9169400D02*
X12598400D01*
X12331700Y9207500D02*
X12369800Y9169400D01*
X12039600Y9207500D02*
X12331700D01*
X11938000Y9309100D02*
X12039600Y9207500D01*
X11785600Y9309100D02*
X11938000D01*
Y6908800D02*
X12026900Y6819900D01*
X12255500D01*
X10198100Y8091650D02*
X10261600Y8155150D01*
Y8458200D01*
X10198100Y7747000D02*
Y8091650D01*
X13614400Y7239000D02*
Y8077200D01*
X10248900Y7152631D02*
Y7706369D01*
Y7152631D02*
X10264131Y7137400D01*
X10223500Y7721600D02*
X10233669D01*
X10248900Y7706369D01*
X10198100Y7747000D02*
X10223500Y7721600D01*
X15671800Y8385500D02*
Y8394700D01*
X15633701Y8347400D02*
X15671800Y8385500D01*
X15633701Y8255000D02*
Y8347400D01*
X10086331Y8864600D02*
X10388600D01*
X10452100Y8801100D01*
X10071100Y8534400D02*
X10121900Y8483600D01*
Y8343900D02*
Y8483600D01*
X10103005Y8325005D02*
X10121900Y8343900D01*
X10071100Y8849369D02*
X10086331Y8864600D01*
X10071100Y8534400D02*
Y8849369D01*
X10452100Y7305031D02*
X10467331Y7289800D01*
X10103005Y8286905D02*
Y8325005D01*
X10452100Y7305031D02*
Y8801100D01*
X10096500Y8280400D02*
X10103005Y8286905D01*
X13566132Y7162800D02*
X13662669D01*
X13677901Y7178031D01*
X13550900D02*
X13566132Y7162800D01*
X12153900Y8051800D02*
Y8382000D01*
X12179300Y8026400D02*
X12484100D01*
X12153900Y8051800D02*
X12179300Y8026400D01*
X12509500Y7813031D02*
Y8001000D01*
X12484100Y8026400D02*
X12509500Y8001000D01*
X12494269Y7797800D02*
X12509500Y7813031D01*
X12448531Y7797800D02*
X12494269D01*
X12433300Y7782569D02*
X12448531Y7797800D01*
X13830299Y8017200D02*
X13893800Y8080700D01*
X13830299Y7823200D02*
Y8017200D01*
X13893800Y8080700D02*
Y8089900D01*
X14198599Y6096000D02*
X14566901D01*
X14147800Y6146800D02*
X14198599Y6096000D01*
X11023600Y5880100D02*
X14439900D01*
X10845800Y6007100D02*
X10896600D01*
X11023600Y5880100D01*
X10439400Y6210300D02*
Y6337300D01*
X13398500Y9055100D02*
Y9182100D01*
X12750800Y9334500D02*
X12776200Y9309100D01*
X12852400Y9245600D02*
X12865100Y9232900D01*
X12883669D02*
X12909068Y9207500D01*
X12865100Y9232900D02*
X12883669D01*
X12909068Y9207500D02*
X12915900D01*
X12791431Y9245600D02*
X12852400D01*
X12776200Y9260831D02*
X12791431Y9245600D01*
X12776200Y9260831D02*
Y9309100D01*
X12573000Y9207500D02*
X12611100Y9245600D01*
X12382500Y9207500D02*
X12573000D01*
X12344400Y9245600D02*
X12382500Y9207500D01*
X12050550Y9245600D02*
X12344400D01*
X11923550Y9372600D02*
X12050550Y9245600D01*
X11849100Y9372600D02*
X11923550D01*
X12611100Y9319269D02*
X12626331Y9334500D01*
X12611100Y9245600D02*
Y9319269D01*
X12626331Y9334500D02*
X12750800D01*
X15741495Y8337395D02*
X15748000Y8343900D01*
X15690695Y8337395D02*
X15741495D01*
X15671800Y8318500D02*
X15690695Y8337395D01*
X15671800Y8242300D02*
Y8318500D01*
X10124431Y8826500D02*
X10363200D01*
X10401300Y8788400D01*
X10109200Y8811269D02*
X10124431Y8826500D01*
X10109200Y8547100D02*
X10160000Y8496300D01*
Y8255000D02*
Y8496300D01*
X10109200Y8547100D02*
Y8811269D01*
X10020300Y8229600D02*
X10025800Y8224100D01*
X10129100D02*
X10160000Y8255000D01*
X10401300Y7254231D02*
Y8788400D01*
Y7254231D02*
X10416531Y7239000D01*
X10025800Y8224100D02*
X10129100D01*
X10010131Y8940800D02*
X10439400D01*
X10553700Y8826500D01*
X10013795Y8439305D02*
X10020300Y8432800D01*
X9994900Y8496300D02*
Y8925569D01*
X10010131Y8940800D01*
X10013795Y8439305D02*
Y8477405D01*
X9994900Y8496300D02*
X10013795Y8477405D01*
X10553700Y7406631D02*
X10568931Y7391400D01*
X10553700Y7406631D02*
Y8826500D01*
X13550900Y8874769D02*
X13566132Y8890000D01*
X15322069D01*
X15347469Y8864600D01*
X15354300D01*
X13550900Y7759700D02*
Y8874769D01*
X12547600Y9245600D02*
X12573000Y9271000D01*
X12395200Y9245600D02*
X12547600D01*
X12357100Y9283700D02*
X12395200Y9245600D01*
X12064864Y9283700D02*
X12357100D01*
X11912552Y9436012D02*
X12064864Y9283700D01*
X12814301Y9311631D02*
Y9334500D01*
X12776200Y9372600D02*
X12814301Y9334500D01*
X15798801Y6896100D02*
Y7023100D01*
X12814301Y9311631D02*
X12829530Y9296400D01*
X12915900D01*
X14363699Y6400800D02*
X14986000D01*
X12573000Y9271000D02*
Y9357369D01*
X12588231Y9372600D02*
X12776200D01*
X12573000Y9357369D02*
X12588231Y9372600D01*
X13766800Y7759700D02*
Y8042600D01*
X13792200Y8068000D01*
Y8077200D01*
X12509500Y9004300D02*
X12560300Y8953500D01*
Y8343900D02*
Y8953500D01*
X12540400Y8324000D02*
X12560300Y8343900D01*
X12471400Y8318500D02*
X12476900Y8324000D01*
X12540400D01*
X12560300Y8242300D02*
Y8343900D01*
Y8242300D02*
X12750800D01*
X15684500Y6847831D02*
Y6972300D01*
X12560300Y7747000D02*
Y8242300D01*
X12541405Y7728105D02*
X12560300Y7747000D01*
X12503305Y7728105D02*
X12541405D01*
X12496800Y7721600D02*
X12503305Y7728105D01*
X15684500Y6692900D02*
Y6817369D01*
X15669269Y6832600D02*
X15684500Y6817369D01*
X15669269Y6832600D02*
X15684500Y6847831D01*
X14795500Y6718300D02*
X14909801Y6832600D01*
X15669269D01*
X14909801D02*
Y6934200D01*
X14795500Y6492231D02*
Y6718300D01*
X14350999Y6477000D02*
X14780269D01*
X14795500Y6492231D01*
X14084300Y6210300D02*
X14350999Y6477000D01*
X14008099Y6210300D02*
X14084300D01*
X13893800Y6096000D02*
X14008099Y6210300D01*
X11775431Y6096000D02*
X13893800D01*
X11724631Y6477000D02*
X11912600D01*
X11709400Y6289031D02*
Y6461769D01*
X11724631Y6477000D01*
X11518900Y6273800D02*
X11694169D01*
X11760200Y6111231D02*
Y6210300D01*
X11709400Y6261100D02*
X11760200Y6210300D01*
Y6111231D02*
X11775431Y6096000D01*
X11694169Y6273800D02*
X11709400Y6289031D01*
Y6261100D02*
Y6289031D01*
X10795000Y6273800D02*
X11290300D01*
X5321300Y7823200D02*
X5448300Y7950200D01*
X5321300Y7823200D02*
X5778500D01*
X5448300Y7950200D02*
Y8801100D01*
X4635500Y7823200D02*
X5321300D01*
X4521200Y7708900D02*
X4635500Y7823200D01*
X5778500D02*
X6235700Y7366000D01*
X4978400Y7404100D02*
X5105400Y7277100D01*
X4521200Y7442200D02*
Y7708900D01*
X4686300Y7429500D02*
X4711700Y7404100D01*
X4559300D02*
X4711700D01*
X4978400D01*
X4686300Y7429500D02*
Y7493000D01*
X4521200Y7442200D02*
X4559300Y7404100D01*
X6235700Y7366000D02*
X6311900D01*
X5105400Y7188200D02*
Y7277100D01*
Y6502400D02*
Y7188200D01*
X14334801Y6311900D02*
X14922501D01*
X14296700Y6273800D02*
X14334801Y6311900D01*
X14287500Y6273800D02*
X14296700D01*
X10858500Y6197600D02*
X11645900D01*
X14493797Y6223000D02*
X14605000D01*
X14376401Y6235700D02*
X14481097D01*
X14493797Y6223000D01*
X10048231Y8902700D02*
X10414000D01*
X10502900Y8813800D01*
X10033000Y8521700D02*
X10083800Y8470900D01*
Y8420100D02*
Y8470900D01*
X10064905Y8401205D02*
X10083800Y8420100D01*
X10058400Y8356600D02*
X10064905Y8363105D01*
X10033000Y8521700D02*
Y8887469D01*
X10064905Y8363105D02*
Y8401205D01*
X10033000Y8887469D02*
X10048231Y8902700D01*
X10502900Y7355831D02*
Y8813800D01*
Y7355831D02*
X10518131Y7340600D01*
X14033501Y6134100D02*
X14147800Y6019800D01*
X14490700D01*
X10350500Y7203431D02*
Y8773169D01*
X10335269Y8788400D02*
X10350500Y8773169D01*
Y7203431D02*
X10365731Y7188200D01*
X10162531Y8788400D02*
X10335269D01*
X10147300Y8773169D02*
X10162531Y8788400D01*
X10198100Y8242300D02*
Y8509000D01*
X10147300Y8559800D02*
X10198100Y8509000D01*
X10147300Y8559800D02*
Y8773169D01*
Y8191500D02*
X10198100Y8242300D01*
X10020300Y8140700D02*
X10071100Y8191500D01*
X10147300D01*
X13487399Y7823200D02*
X13493906Y7829705D01*
Y7849236D01*
X13500101Y7855431D02*
Y8925569D01*
X13493906Y7849236D02*
X13500101Y7855431D01*
Y8925569D02*
X13515331Y8940800D01*
X15278101D01*
X13703300Y7696200D02*
Y8077200D01*
X12001500Y9398000D02*
Y9474200D01*
Y9398000D02*
X12077700Y9321800D01*
X12369800D01*
X12407900Y9283700D01*
X12519669D01*
X12534900Y9298931D01*
Y9372600D01*
X12788900Y9410700D02*
X12814301Y9385300D01*
X12915900D01*
X14338300Y8991600D02*
Y9182100D01*
X12573000Y9410700D02*
X12788900D01*
X12534900Y9372600D02*
X12573000Y9410700D01*
X14659300Y6159500D02*
X14668500D01*
X14267508Y6179492D02*
X14639308D01*
X14262100Y6184900D02*
X14267508Y6179492D01*
X14639308D02*
X14659300Y6159500D01*
X16315787Y8293313D02*
X16332201Y8276900D01*
Y8267700D02*
Y8276900D01*
X16315787Y8293313D02*
Y8855613D01*
X11049000Y9283700D02*
X11054500Y9289200D01*
Y9352700D01*
X11074400Y9372600D01*
X11569700D01*
X11709400Y9512300D01*
Y9649469D01*
X11724631Y9664700D01*
X15328900Y9601200D02*
X15354300Y9626600D01*
Y9677400D01*
X14706599Y9664700D02*
X14770100Y9601200D01*
X15328900D01*
X11724631Y9664700D02*
X14706599D01*
X12433300Y9347200D02*
X12534900Y9448800D01*
X15570200D01*
X16192859Y8826141D01*
Y7873641D02*
Y8826141D01*
Y7873641D02*
X16230600Y7835900D01*
X16383000D01*
X16384425Y7834474D01*
X12992101Y8661400D02*
X12998605Y8667905D01*
X13049405D01*
X13068300Y8686800D01*
Y9334500D01*
X13106400Y9372600D01*
X15544800D01*
X16116299Y8801100D01*
X16141701Y7124700D02*
X16459200D01*
X16116299Y7150100D02*
X16141701Y7124700D01*
X16116299Y7150100D02*
Y8801100D01*
X9512300Y6692900D02*
Y6880869D01*
X9527531Y6896100D01*
X9817100D01*
X10553700Y9182100D02*
Y9499600D01*
X11569700Y9855200D02*
X15316200D01*
X16315787Y8855613D01*
X11518900Y9804400D02*
X11569700Y9855200D01*
X13106400Y8394700D02*
X13246100Y8534400D01*
X12992101Y8394700D02*
X13106400D01*
X13246100Y8534400D02*
Y9271000D01*
X13271500Y9296400D01*
X15519400D01*
X16074200Y6811200D02*
X16526700D01*
X15519400Y9296400D02*
X16041208Y8774592D01*
Y6844192D02*
Y8774592D01*
Y6844192D02*
X16074200Y6811200D01*
X9740900Y6692900D02*
Y6832600D01*
X9461500Y9652000D02*
Y9969500D01*
X9588500Y10096500D01*
X11798300D01*
X12433300Y9448800D02*
X12471400Y9486900D01*
X15582899D01*
X16230600Y8839200D01*
Y7974705D02*
Y8839200D01*
X16245831Y7959474D02*
X16386426D01*
X16230600Y7974705D02*
X16245831Y7959474D01*
X10502900Y6413500D02*
X10553700Y6362700D01*
X11645900D01*
X10248900Y6413500D02*
X10502900D01*
X8661400Y6438900D02*
X8788400Y6311900D01*
X10147300D01*
X10248900Y6413500D01*
X9398000Y9944100D02*
Y10096500D01*
X10452100Y9728200D02*
Y9867900D01*
X11671300Y9687569D02*
X11686531Y9702800D01*
X11671300Y9525000D02*
Y9687569D01*
X14719299Y9702800D02*
X14782800Y9639300D01*
X11686531Y9702800D02*
X14719299D01*
X14782800Y9639300D02*
X15275569D01*
X15290800Y9654531D01*
Y9740900D01*
X10043169Y7708900D02*
X10058400Y7724131D01*
Y7835900D01*
X8483600Y7693669D02*
X8498831Y7708900D01*
X8483600Y7302500D02*
Y7693669D01*
X8498831Y7708900D02*
X10043169D01*
X10496395Y9594695D02*
X10502900Y9601200D01*
X10553700D01*
X9613900Y9817100D02*
Y9906000D01*
X9677400Y9969500D01*
X11595100D01*
X11899900Y6883400D02*
X12001500Y6781800D01*
X10198100Y7101831D02*
X10213331Y7086600D01*
X10172700Y7645400D02*
X10198100Y7620000D01*
Y7101831D02*
Y7620000D01*
X12192000Y6781800D02*
X12255500Y6718300D01*
X12001500Y6781800D02*
X12192000D01*
X10020300Y7645400D02*
X10172700D01*
X10591800Y9220200D02*
X10642600Y9169400D01*
X10591800Y9220200D02*
Y9486900D01*
X16289355Y8084474D02*
X16388426D01*
X16274126Y8099705D02*
Y8846474D01*
Y8099705D02*
X16289355Y8084474D01*
X11557000Y9779000D02*
X11595100Y9817100D01*
X15303500D02*
X16274126Y8846474D01*
X11595100Y9817100D02*
X15303500D01*
X11633200Y9537700D02*
Y9725669D01*
X11648431Y9740900D01*
X14732001D01*
X15212070Y9677400D02*
X15227299Y9692630D01*
X14795500Y9677400D02*
X15212070D01*
X15201900Y9746769D02*
Y9753600D01*
X15227299Y9692630D02*
Y9721369D01*
X15201900Y9746769D02*
X15227299Y9721369D01*
X14732001Y9740900D02*
X14795500Y9677400D01*
X9626600Y6692900D02*
Y6832600D01*
X8394700Y7302500D02*
Y7757169D01*
X8409931Y7772400D01*
X9776469D01*
X9791700Y7787631D01*
Y8026400D02*
X9829800Y8064500D01*
X10043169D01*
X10058400Y8049269D01*
Y7962900D02*
Y8049269D01*
X9791700Y7787631D02*
Y8026400D01*
X10071100Y9728200D02*
Y9867900D01*
X11087100Y9169400D02*
X11093605Y9175905D01*
Y9204969D01*
X11108836Y9220200D01*
X11582400Y9283700D02*
Y9334500D01*
X11108836Y9220200D02*
X11518900D01*
X11582400Y9283700D01*
Y9334500D02*
X11747500Y9499600D01*
Y9611369D02*
X11762731Y9626600D01*
X11747500Y9499600D02*
Y9611369D01*
X15392558Y9563100D02*
X15411295Y9581836D01*
Y9607395D01*
X15417799Y9613900D01*
X14693900Y9626600D02*
X14757401Y9563100D01*
X11762731Y9626600D02*
X14693900D01*
X14757401Y9563100D02*
X15392558D01*
X11800831Y9588500D02*
X14681200D01*
X11785600Y9573269D02*
X11800831Y9588500D01*
X11785600Y9486900D02*
Y9573269D01*
X11620500Y9321800D02*
X11785600Y9486900D01*
X11188700Y9156700D02*
X11506200D01*
X11620500Y9271000D01*
Y9321800D01*
X15449069Y9525000D02*
X15474469Y9550400D01*
X15481300D01*
X14681200Y9588500D02*
X14744701Y9525000D01*
X15449069D01*
X12992101Y8483600D02*
X12997600Y8489100D01*
X13061099D01*
X13157201Y8585200D01*
Y9309100D01*
X13182600Y9334500D01*
X15532100D01*
X16078200Y8788400D01*
X16114301Y6936200D02*
X16524699D01*
X16078200Y6972300D02*
X16114301Y6936200D01*
X16078200Y6972300D02*
Y8788400D01*
X13233400Y8077200D02*
X13335001Y8178800D01*
X16052800Y6629400D02*
X16471899D01*
X13335001Y8178800D02*
Y9243069D01*
X13350230Y9258300D02*
X15506700D01*
X13335001Y9243069D02*
X13350230Y9258300D01*
X12992101Y8077200D02*
X13233400D01*
X16002000Y6680200D02*
Y8763000D01*
Y6680200D02*
X16052800Y6629400D01*
X15506700Y9258300D02*
X16002000Y8763000D01*
X11595100Y9763769D02*
X11610331Y9779000D01*
X11595100Y9550400D02*
Y9763769D01*
X11610331Y9779000D02*
X14744701D01*
X14808200Y9715500D01*
X15065700D01*
X15103799Y9753600D01*
X15113000D01*
X12979401Y9385300D02*
X13004800Y9410700D01*
X15557500D02*
X16154515Y8813685D01*
Y7683385D02*
Y8813685D01*
Y7683385D02*
X16192500Y7645400D01*
X16319501D01*
X13004800Y9410700D02*
X15557500D01*
X12964169Y8730400D02*
X12979401Y8745630D01*
X12903200Y8724900D02*
X12908701Y8730400D01*
X12964169D01*
X12979401Y8745630D02*
Y9385300D01*
X9537700Y9740900D02*
Y9931400D01*
X9639300Y10033000D01*
X11696700D01*
D68*
X8305800Y7302500D02*
Y7429500D01*
X5613400Y8623300D02*
Y8763000D01*
D69*
X17259300Y6561200D02*
D03*
X17259300Y6311200D02*
D03*
Y6436200D02*
D03*
X3053800Y8675100D02*
D03*
X17259300Y6186200D02*
D03*
Y9114600D02*
D03*
Y7061200D02*
D03*
Y6811200D02*
D03*
Y9864600D02*
D03*
Y9239600D02*
D03*
Y9614600D02*
D03*
X17259300Y9364600D02*
D03*
X17259300Y8989600D02*
D03*
Y6936200D02*
D03*
Y6686200D02*
D03*
Y9489600D02*
D03*
Y9739600D02*
D03*
D70*
X13880016Y6583703D02*
D03*
D71*
X13379636D02*
D03*
D72*
X17259300Y8864600D02*
D03*
Y6061200D02*
D03*
X3053800Y8800100D02*
D03*
D73*
X3576600Y8394675D02*
D03*
Y7530675D02*
D03*
X3196600Y8394675D02*
D03*
Y7530675D02*
D03*
D74*
X3683000Y8674100D02*
D03*
X16713200Y6565900D02*
D03*
Y6438900D02*
D03*
Y6311900D02*
D03*
X14566901Y5778500D02*
D03*
X10960100Y9372600D02*
D03*
X11036300Y9423400D02*
D03*
X9182100Y9105900D02*
D03*
X9169400Y9194800D02*
D03*
X13373100Y7188200D02*
D03*
Y7467600D02*
D03*
Y7696200D02*
D03*
X13500101Y9182100D02*
D03*
X8666808Y6578600D02*
D03*
X15836900Y8343900D02*
D03*
X9398000Y8115300D02*
D03*
X15951199Y6731000D02*
D03*
X15862300Y6553200D02*
D03*
X12915900Y9118600D02*
D03*
X11785600Y9309100D02*
D03*
X12255500Y6819900D02*
D03*
X10261600Y8458200D02*
D03*
X13614400Y7239000D02*
D03*
Y8077200D02*
D03*
X15671800Y8394700D02*
D03*
X10096500Y8280400D02*
D03*
X15430499Y8369300D02*
D03*
X12153900Y8382000D02*
D03*
X13830299Y7823200D02*
D03*
X13893800Y8089900D02*
D03*
X14566901Y6096000D02*
D03*
X14147800Y6146800D02*
D03*
X10845800Y6007100D02*
D03*
X14439900Y5880100D02*
D03*
X10439400Y6210300D02*
D03*
Y6337300D02*
D03*
X13398500Y9182100D02*
D03*
Y9055100D02*
D03*
X12915900Y9207500D02*
D03*
X11849100Y9372600D02*
D03*
X15748000Y8343900D02*
D03*
X10020300Y8229600D02*
D03*
X14719299Y9093200D02*
D03*
X12700000Y9271000D02*
D03*
X12496800Y8877300D02*
D03*
X11451500Y9677400D02*
D03*
X11493500Y9296400D02*
D03*
X12496800Y7543800D02*
D03*
X12471400Y8166100D02*
D03*
X9766300Y9804400D02*
D03*
X10782300Y9436100D02*
D03*
X9740900Y8572500D02*
D03*
X9461500Y8013700D02*
D03*
X15074899Y6946900D02*
D03*
X12306300Y6642100D02*
D03*
X14071600Y6578600D02*
D03*
X13195300Y6311900D02*
D03*
X12319000Y6299200D02*
D03*
X9448800Y7416800D02*
D03*
X9436100Y6883400D02*
D03*
X11315700Y6451600D02*
D03*
X9334500Y6591300D02*
D03*
X10591800Y6451600D02*
D03*
X10033000D02*
D03*
X9182100Y9461500D02*
D03*
X9144000Y8801100D02*
D03*
Y8648700D02*
D03*
X7315200Y8496300D02*
D03*
X4660900Y9740900D02*
D03*
X5778500Y8763000D02*
D03*
X4724400Y8712200D02*
D03*
X6642100Y7975600D02*
D03*
X8788400Y7607300D02*
D03*
X8724900Y7124700D02*
D03*
X7696200Y5969000D02*
D03*
X3759200Y8280400D02*
D03*
X4368800Y8077200D02*
D03*
X6007100Y7899400D02*
D03*
X4368800Y7861300D02*
D03*
X3759200Y7620000D02*
D03*
X4013200Y6375400D02*
D03*
X15506700Y8318500D02*
D03*
X10020300Y8432800D02*
D03*
X15354300Y8864600D02*
D03*
X13550900Y7759700D02*
D03*
X11912552Y9436012D02*
D03*
X15798801Y6896100D02*
D03*
X12915900Y9296400D02*
D03*
X15798801Y7023100D02*
D03*
X14986000Y6400800D02*
D03*
X14363699D02*
D03*
X13766800Y7759700D02*
D03*
X13792200Y8077200D02*
D03*
X15684500Y6692900D02*
D03*
X12509500Y9004300D02*
D03*
X12750800Y8242300D02*
D03*
X12471400Y8318500D02*
D03*
X15684500Y6972300D02*
D03*
X14909801Y6934200D02*
D03*
X12496800Y7721600D02*
D03*
X11912600Y6477000D02*
D03*
X11518900Y6273800D02*
D03*
X10795000D02*
D03*
X11290300D02*
D03*
X5448300Y8801100D02*
D03*
X6311900Y7366000D02*
D03*
X4686300Y7493000D02*
D03*
X5105400Y7188200D02*
D03*
Y6502400D02*
D03*
X14922501Y6311900D02*
D03*
X14287500Y6273800D02*
D03*
X11645900Y6197600D02*
D03*
X10858500D02*
D03*
X14376401Y6235700D02*
D03*
X14605000Y6223000D02*
D03*
X15582899Y8382000D02*
D03*
X10058400Y8356600D02*
D03*
X14033501Y6134100D02*
D03*
X14490700Y6019800D02*
D03*
X10020300Y8140700D02*
D03*
X15278101Y8940800D02*
D03*
X13487399Y7823200D02*
D03*
X13703300Y7696200D02*
D03*
Y8077200D02*
D03*
X12001500Y9474200D02*
D03*
X12915900Y9385300D02*
D03*
X14338300Y8991600D02*
D03*
Y9182100D02*
D03*
X14668500Y6159500D02*
D03*
X14262100Y6184900D02*
D03*
X16332201Y8267700D02*
D03*
X11049000Y9283700D02*
D03*
X15354300Y9677400D02*
D03*
X12433300Y9347200D02*
D03*
X16384425Y7834474D02*
D03*
X16459200Y7124700D02*
D03*
X12992101Y8661400D02*
D03*
X9512300Y6692900D02*
D03*
X9817100Y6896100D02*
D03*
X10553700Y9182100D02*
D03*
X16526700Y6811200D02*
D03*
X12992101Y8394700D02*
D03*
X9740900Y6692900D02*
D03*
Y6832600D02*
D03*
X9461500Y9652000D02*
D03*
X11798300Y10096500D02*
D03*
X10858500Y9791700D02*
D03*
X12433300Y9448800D02*
D03*
X16386426Y7959474D02*
D03*
X11645900Y6362700D02*
D03*
X9398000Y10096500D02*
D03*
Y9944100D02*
D03*
X10452100Y9867900D02*
D03*
Y9728200D02*
D03*
X15290800Y9740900D02*
D03*
X8483600Y7302500D02*
D03*
X10058400Y7835900D02*
D03*
X10496395Y9594695D02*
D03*
X11019700Y9677400D02*
D03*
X10528300D02*
D03*
X9613900Y9817100D02*
D03*
X11595100Y9969500D02*
D03*
X12255500Y6718300D02*
D03*
X10020300Y7645400D02*
D03*
X10642600Y9169400D02*
D03*
X16388426Y8084474D02*
D03*
X15201900Y9753600D02*
D03*
X9626600Y6692900D02*
D03*
Y6832600D02*
D03*
X8394700Y7302500D02*
D03*
X10058400Y7962900D02*
D03*
X10071100Y9867900D02*
D03*
Y9728200D02*
D03*
X11087100Y9169400D02*
D03*
X15417799Y9613900D02*
D03*
X11188700Y9156700D02*
D03*
X15481300Y9550400D02*
D03*
X16524699Y6936200D02*
D03*
X12992101Y8483600D02*
D03*
X16471899Y6629400D02*
D03*
X12992101Y8077200D02*
D03*
X10896600Y9169400D02*
D03*
X15113000Y9753600D02*
D03*
X16319501Y7645400D02*
D03*
X12903200Y8724900D02*
D03*
X9537700Y9740900D02*
D03*
X11696700Y10033000D02*
D03*
X8305800Y7302500D02*
D03*
Y7429500D02*
D03*
X5613400Y8623300D02*
D03*
Y8763000D02*
D03*
D75*
X5384800Y7072000D02*
D03*
X5384800Y7152000D02*
D03*
%TF.MD5,191bfa9867a82b01524ad0e8a3f30932*%
M02*
