%TF.GenerationSoftware,Altium Limited,Altium Designer,25.8.1 (18)*%
G04 Layer_Color=255*
%FSLAX45Y45*%
%MOMM*%
%TF.SameCoordinates,7B3F40D8-49BE-4A82-B445-1243D3C56F15*%
%TF.FilePolarity,Positive*%
%TF.FileFunction,Pads,Bot*%
%TF.Part,Single*%
G01*
G75*
%TA.AperFunction,ComponentPad*%
%ADD69C,1.00000*%
%ADD70C,1.54060*%
%ADD71R,1.54060X1.54060*%
%ADD72R,1.00000X1.00000*%
G04:AMPARAMS|DCode=73|XSize=1.1mm|YSize=1.7mm|CornerRadius=0.55mm|HoleSize=0mm|Usage=FLASHONLY|Rotation=270.000|XOffset=0mm|YOffset=0mm|HoleType=Round|Shape=RoundedRectangle|*
%AMROUNDEDRECTD73*
21,1,1.10000,0.60000,0,0,270.0*
21,1,0.00000,1.70000,0,0,270.0*
1,1,1.10000,-0.30000,0.00000*
1,1,1.10000,-0.30000,0.00000*
1,1,1.10000,0.30000,0.00000*
1,1,1.10000,0.30000,0.00000*
%
%ADD73ROUNDEDRECTD73*%
D69*
X17259300Y6561200D02*
D03*
X17259300Y6311200D02*
D03*
Y6436200D02*
D03*
X3053800Y8675100D02*
D03*
X17259300Y6186200D02*
D03*
Y9114600D02*
D03*
Y7061200D02*
D03*
Y6811200D02*
D03*
Y9864600D02*
D03*
Y9239600D02*
D03*
Y9614600D02*
D03*
X17259300Y9364600D02*
D03*
X17259300Y8989600D02*
D03*
Y6936200D02*
D03*
Y6686200D02*
D03*
Y9489600D02*
D03*
Y9739600D02*
D03*
D70*
X13880016Y6583703D02*
D03*
D71*
X13379636D02*
D03*
D72*
X17259300Y8864600D02*
D03*
Y6061200D02*
D03*
X3053800Y8800100D02*
D03*
D73*
X3576600Y8394675D02*
D03*
Y7530675D02*
D03*
X3196600Y8394675D02*
D03*
Y7530675D02*
D03*
%TF.MD5,f394ffe22ddd70ef8f6d205be01deff8*%
M02*
